<?xml version="1.0" encoding="UTF-8"?><svg id="grImpExp" xmlns="http://www.w3.org/2000/svg" viewBox="0 0 256 256"><path id="ahp-icon-export" d="M239.93,114.72v112.82c0,12.35-10.01,22.36-22.36,22.36H38.44c-12.35,0-22.36-10.01-22.36-22.36v-112.82c0-12.35,10.01-22.36,22.36-22.36h49.25c2.29,0,4.14,1.85,4.14,4.14v15.83c0,2.29-1.85,4.14-4.14,4.14h-47.5v109.31h175.63v-109.31h-47.5c-2.29,0-4.14-1.85-4.14-4.14v-15.83c0-2.29,1.85-4.14,4.14-4.14h49.25c12.35,0,22.36,10.01,22.36,22.36ZM140.2,198.99c2.33,0,4.21-1.89,4.21-4.21V63.9c0-1.06.98-1.91,2.19-1.91h22.57c1.76,0,2.8-1.73,1.8-3L129.8,6.97c-.92-1.16-2.68-1.16-3.6,0l-41.16,52.02c-1,1.27.03,3,1.8,3h22.57c1.21,0,2.19.86,2.19,1.91v130.88c0,2.33,1.89,4.21,4.21,4.21h24.39Z"/></svg>