<?xml version="1.0" encoding="UTF-8"?><svg id="c" xmlns="http://www.w3.org/2000/svg" viewBox="0 0 256 256"><g id="d"><path id="e" d="M191.4,24.24c-18.46-11.3-40.17-17.82-63.4-17.82-.2,0-.4,0-.6,0l-27.35,84.19L191.4,24.24Z"/><path id="f" d="M198.98,29.28l-71.62,52.03h112.93c-8.72-20.95-23.14-38.94-41.31-52.03Z"/><path id="g" d="M246.28,156.23c2.15-9.06,3.3-18.51,3.3-28.23,0-13.33-2.15-26.15-6.11-38.14h-88.55l91.36,66.38Z"/><path id="h" d="M172.2,112.97l34.89,107.37c16.92-14.51,29.81-33.59,36.75-55.33l-71.64-52.05Z"/><path id="i" d="M172.6,141.82l-4.72,14.53-.17.51h0s0,0,0,0l-30,92.35c23.19-1.83,44.54-10.17,62.25-23.19l-27.36-84.19Z"/><path id="j" d="M64.6,231.76c18.46,11.3,40.17,17.82,63.4,17.82.2,0,.4,0,.6,0l27.35-84.18-91.35,66.37Z"/><path id="k" d="M112.83,174.68h0s0,0,0,0H15.71c8.72,20.95,23.13,38.94,41.31,52.03l71.62-52.03h-15.81Z"/><path id="l" d="M9.72,99.77c-2.15,9.06-3.3,18.51-3.3,28.23,0,13.32,2.15,26.15,6.11,38.14h88.55L9.72,99.77Z"/><path id="m" d="M83.8,143.04L48.91,35.66c-16.92,14.51-29.81,33.59-36.75,55.33l71.64,52.05Z"/><path id="n" d="M83.4,114.18L118.29,6.8c-23.19,1.83-44.54,10.17-62.25,23.19l27.36,84.19Z"/></g></svg>