<?xml version="1.0" encoding="UTF-8"?><svg id="c" xmlns="http://www.w3.org/2000/svg" viewBox="0 0 256 256"><g id="d"><path id="e" d="M128,245.12c-64.58,0-117.12-52.54-117.12-117.12S63.42,10.88,128,10.88s117.12,52.54,117.12,117.12-52.54,117.12-117.12,117.12ZM128,21.88c-58.51,0-106.12,47.6-106.12,106.12s47.6,106.12,106.12,106.12,106.12-47.6,106.12-106.12S186.51,21.88,128,21.88Z"/><g id="f"><path d="M127.01,41.28l-35.42,61.35-22.23-38.5c15.79-14.56,36-22.61,57.65-22.85M128,32.63c-27.39,0-52.07,11.57-69.47,30.06l33.05,57.25,49.85-86.35c-4.39-.62-8.88-.96-13.44-.96h0Z"/></g><g id="g"><path d="M153.99,45.27c20.43,6.41,37.73,20.19,48.6,38.51h-70.84l22.24-38.51M149.84,35.17l-33.06,57.27h99.72c-11.46-28.48-36.25-50.14-66.66-57.27h0Z"/></g><g id="h"><path d="M212.65,109.15c1.37,6.18,2.07,12.5,2.07,18.85,0,15.13-3.81,29.6-11.12,42.51l-35.43-61.36h44.48M219.33,100.49h-66.14l49.85,86.34c12.73-16.21,20.34-36.63,20.34-58.83,0-9.57-1.42-18.79-4.04-27.51h0Z"/></g><g id="i"><path d="M164.41,153.36l22.23,38.5c-15.79,14.56-36,22.61-57.65,22.85l35.42-61.35M164.41,136.06l-49.85,86.35c4.39.62,8.88.96,13.44.96,27.39,0,52.07-11.57,69.47-30.06l-33.05-57.25h0Z"/></g><g id="j"><path d="M52.4,85.49l35.43,61.36h-44.48c-1.37-6.18-2.07-12.5-2.07-18.86,0-15.13,3.81-29.6,11.12-42.51M52.97,69.17c-12.73,16.21-20.34,36.63-20.34,58.83,0,9.57,1.42,18.79,4.05,27.51h66.14l-49.85-86.34h0Z"/></g><g id="k"><path d="M124.24,172.22l-22.24,38.51c-20.43-6.41-37.73-20.19-48.6-38.51h70.84M139.23,163.57H39.51c11.46,28.48,36.25,50.14,66.66,57.26l33.06-57.26h0Z"/></g></g></svg>