<?xml version="1.0" encoding="UTF-8"?><svg id="c" xmlns="http://www.w3.org/2000/svg" viewBox="0 0 256 256"><g id="d"><path d="M98.61,184.44l-41.43,30.1c-10.33-8.46-19.03-18.65-25.74-30.1h67.16M112.83,174.68H15.71c8.72,20.95,23.13,38.94,41.31,52.04l71.62-52.03h-15.81s0,0,0,0h0Z"/><path d="M137.39,190.94l-15.82,48.7c-13.33-.76-26.37-3.89-38.51-9.22l54.34-39.48M155.96,165.39l-91.35,66.37c18.46,11.3,40.17,17.82,63.4,17.82.2,0,.4,0,.6,0l27.35-84.18h0Z"/><path d="M190.76,138.51l41.45,30.11c-4.83,12.39-11.85,23.81-20.7,33.74l-20.75-63.85M172.2,112.97l34.89,107.37c16.92-14.51,29.81-33.59,36.75-55.33l-71.64-52.05h0Z"/><path d="M16.72,116.92l54.32,39.47H19.81c-2.42-9.23-3.64-18.75-3.64-28.38,0-3.7.18-7.4.55-11.08M9.72,99.77c-2.15,9.06-3.3,18.51-3.3,28.23,0,13.32,2.15,26.15,6.11,38.14h88.55L9.72,99.77h0Z"/><path d="M236.19,99.61c2.42,9.23,3.64,18.75,3.64,28.39,0,3.7-.18,7.4-.55,11.08l-54.32-39.47h51.23M243.47,89.86h-88.55l91.36,66.38c2.15-9.06,3.3-18.51,3.3-28.23,0-13.33-2.15-26.15-6.11-38.14h0Z"/><path d="M134.43,16.36c13.33.76,26.37,3.89,38.51,9.22l-54.34,39.48,15.82-48.7M128,6.42c-.2,0-.4,0-.6,0l-27.35,84.19L191.4,24.24c-18.46-11.3-40.17-17.82-63.4-17.82h0Z"/><path d="M104.16,18.73l-20.75,63.88-15.83-48.71c11.22-7.22,23.6-12.34,36.58-15.17M118.29,6.8c-23.19,1.83-44.54,10.17-62.25,23.19l27.36,84.19L118.29,6.8h0Z"/><path d="M44.49,53.63l20.75,63.86-41.45-30.11c4.83-12.39,11.85-23.81,20.7-33.74M48.91,35.66c-16.92,14.51-29.81,33.59-36.75,55.33l71.64,52.05L48.91,35.66h0Z"/><path d="M172.6,173.4l15.83,48.71c-11.22,7.22-23.6,12.34-36.58,15.17l20.75-63.87M172.6,141.82l-4.72,14.53-.17.51h0s0,0,0,0l-30,92.35c23.19-1.83,44.54-10.17,62.25-23.19l-27.36-84.19h0Z"/><path d="M198.82,41.46c10.33,8.46,19.03,18.65,25.74,30.1h-67.16l41.43-30.1M198.98,29.28l-71.62,52.04h112.93c-8.72-20.95-23.14-38.94-41.31-52.04h0Z"/></g></svg>