<?xml version="1.0" encoding="UTF-8"?><svg id="c" xmlns="http://www.w3.org/2000/svg" viewBox="0 0 256 256"><g id="d"><path id="e" d="M128,245.12c-64.58,0-117.12-52.54-117.12-117.12S63.42,10.88,128,10.88s117.12,52.54,117.12,117.12-52.54,117.12-117.12,117.12ZM128,21.88c-58.51,0-106.12,47.6-106.12,106.12s47.6,106.12,106.12,106.12,106.12-47.6,106.12-106.12S186.51,21.88,128,21.88Z"/><path id="f" d="M91.59,119.94l49.85-86.35c-4.39-.62-8.88-.96-13.44-.96-27.39,0-52.07,11.57-69.47,30.06l33.05,57.25Z"/><path id="g" d="M116.77,92.43h99.72c-11.46-28.48-36.25-50.14-66.66-57.27l-33.06,57.27Z"/><path id="h" d="M203.03,186.83c12.73-16.21,20.34-36.63,20.34-58.83,0-9.57-1.42-18.79-4.04-27.51h-66.14l49.85,86.34Z"/><path id="i" d="M164.41,136.06l-49.85,86.35c4.39.62,8.88.96,13.44.96,27.39,0,52.07-11.57,69.47-30.06l-33.05-57.25Z"/><path id="j" d="M139.23,163.57H39.51c11.46,28.48,36.25,50.14,66.66,57.26l33.06-57.26Z"/><path id="k" d="M52.97,69.17c-12.73,16.21-20.34,36.63-20.34,58.83,0,9.57,1.42,18.79,4.05,27.51h66.14l-49.85-86.34Z"/></g></svg>