<?xml version="1.0" encoding="UTF-8"?><svg id="b" xmlns="http://www.w3.org/2000/svg" viewBox="0 0 256 256"><g id="c"><path id="d" d="M234.59,57.6h-30.64l-5.4-16.27c-1.79-5.41-7.34-9.22-13.24-9.22h-66.45c-5.91,0-11.45,3.81-13.24,9.22l-5.4,16.27H21.41c-10.59,0-19.18,8.59-19.18,19.18v127.93c0,10.59,8.59,19.18,19.18,19.18h213.18c10.59,0,19.18-8.59,19.18-19.18v-127.93c0-10.59-8.59-19.18-19.18-19.18ZM76.78,84.4h-44.61c-.68,0-1.22-.55-1.22-1.22v-12.19c0-.68.55-1.22,1.22-1.22h44.61c.68,0,1.22.55,1.22,1.22v12.19c0,.68-.55,1.22-1.22,1.22ZM150.34,203.98c-39.95,0-72.34-32.39-72.34-72.34s32.39-72.34,72.34-72.34,72.34,32.39,72.34,72.34-32.39,72.34-72.34,72.34Z"/><path id="e" d="M150.35,196.55c-35.79,0-64.91-29.12-64.91-64.91s29.12-64.91,64.91-64.91,64.91,29.12,64.91,64.91-29.12,64.91-64.91,64.91ZM150.35,72.82c-32.43,0-58.82,26.38-58.82,58.82s26.38,58.82,58.82,58.82,58.82-26.38,58.82-58.82-26.38-58.82-58.82-58.82Z"/><path id="f" d="M48.67,43.66h11.61c3.92,0,7.09,3.18,7.09,7.09v4.07c0,.28-.23.51-.51.51h-24.77c-.28,0-.51-.23-.51-.51v-4.07c0-3.92,3.18-7.09,7.09-7.09Z"/><path id="g" d="M130.16,127.17l27.63-47.86c-2.43-.34-4.92-.53-7.45-.53-15.18,0-28.86,6.41-38.5,16.66l18.32,31.73Z"/><path id="h" d="M144.12,111.93h55.27c-6.35-15.78-20.09-27.79-36.94-31.74l-18.32,31.74Z"/><path id="i" d="M191.93,164.25c7.05-8.98,11.27-20.3,11.27-32.61,0-5.3-.79-10.42-2.24-15.24h-36.66l27.63,47.85Z"/><path id="j" d="M170.53,136.11l-27.63,47.86c2.43.34,4.92.53,7.45.53,15.18,0,28.86-6.41,38.5-16.66l-18.32-31.73Z"/><path id="k" d="M156.57,151.35h-55.27c6.35,15.78,20.09,27.79,36.94,31.74l18.32-31.74Z"/><path id="l" d="M108.76,99.03c-7.05,8.98-11.27,20.3-11.27,32.61,0,5.3.79,10.42,2.24,15.25h36.66l-27.63-47.85Z"/></g></svg>