<?xml version="1.0" encoding="UTF-8"?><svg id="grLoupe" xmlns="http://www.w3.org/2000/svg" viewBox="0 0 256 256"><path id="ahp-icon-loupe-moin01" d="M176.23,164.44c.04-.09.08-.18.12-.27.1-.04.19-.08.27-.11.04,0,.08-.01.12-.02-.04.2-.27.31-.51.4ZM166.36,150.23c-.09.03-.18.06-.03.1l.03-.1ZM187.01,174.02s.01,0,.02,0c-.02-.11-.01-.19-.02,0ZM176.96,163.84l-.4-.12c-.02.07-.09.21-.16.36.08,0,.16-.02.23-.02.17-.07.31-.14.34-.22ZM172.16,161.42c-.12.16.13.12.22.12.01-.15.11-.31-.22-.12ZM237.72,222.97l-21.07,11.26c-.79.42-1.74.31-2.39-.27l-85.42-76.8c-31.33,18.88-72.58,14.9-99.61-12.13C-2.59,113.2-2.59,61.61,29.23,29.79c31.82-31.82,83.42-31.82,115.24,0,27.02,27.02,31.01,68.25,12.14,99.58l81.73,90.3c.92,1.01.61,2.64-.62,3.3ZM158.15,68.99c.02.14.27.02.33.02-.13-.21-.4,0-.33-.02ZM156.77,63.82c-.15.13-.23-.16.03.26.01-.03.03-.06.03-.06-.01-.04-.02-.08-.06-.2ZM156.38,63.14l.26.2c.08-.09.01-.34.12-.28-.19-.24-.27-.14-.38.08ZM155.34,61.46c.09.26.19.28.28.22l.19.15c.03-.13,0-.34.14-.41-.1.02-.21.19-.33.26l-.28-.22ZM155.35,60.61l-.22.23c-.04-.12-.07-.21-.09-.25,0,.03.03.11.08.26h0s.04.11.04.11c.05-.05.18-.15.17-.34ZM155.78,60.38l-.45-.15.17.08.29.07ZM154.99,59.01c.15.12.21.3.15.59.23.04.23-.3.4-.22-.12-.18-.35-.28-.55-.37ZM153.39,56.81l.25-.09-.22-.09-.03.19ZM153.5,57.26l.21.16.31-.07-.52-.1ZM152.87,55.31c.08.13.04.21.03.3.07-.04.14-.14.19-.06l-.22-.25ZM151.86,53.94c-.01.12.34-.1.27,0,.36-.06-.7-.43-.27,0ZM152.18,54.09c.04.07.07.15.08.22,0-.03.03-.05.03-.05-.02-.04-.06-.09-.11-.17ZM95.78,12.96l.15.26.12-.07-.27-.2ZM95.15,13.46c.07,0,.21-.02.24.09v-.44s-.24.36-.24.36ZM131.78,42.48c-24.77-24.77-65.08-24.77-89.86,0-24.77,24.77-24.77,65.08,0,89.86,24.77,24.77,65.08,24.77,89.86,0,24.77-24.77,24.77-65.08,0-89.86ZM124.43,28.27c-.28-.08-.16-.61-.38-.17.1.08.28.08.38.17ZM127.06,29.42l.12-.4-.17.35.05.04ZM129.87,31.85l.08-.07c.04-.12,0-.16-.1-.26l.02.33ZM142.41,43.88c-.3-.12-.3-.28-.6.08.13.45.41-.16.48.28.19,0-.06-.36.12-.35ZM148.1,52.45c.12-.02.39.26.3-.09-.12.02-.56-.31-.3.09ZM148.78,53.21l.23.08c.01-.12.08-.17.15-.27l-.37.19ZM148.98,51.8c.12.04.22.14.29.04l-.27-.28c-.12.02-.13.15-.02.25ZM150.76,55.04l-.16-.19c.16-.33.57.22.55-.11.33.2.77.38.83.86l-.33.26c.1-.06.09-.38-.08-.43.25.09-.19.87.38.82l.12-.41c.33.2.9.37.96.79.29-.34-.08-.06.22-.53-.42.48-.44-.95-.82-.31.37-.51-.02-.56.24-1.12-.12.07-.17.24-.26-.1-.04,0-.1,0-.14-.01v-.03s0,.02,0,.02c-.02,0-.03,0,0,0-.02.1-.05.19-.11.25-.35-.01-.59-.5-.82-.59-.04-.21.18,0,.26-.16l-.34-.13c.26-.16.2-.71.58-.37l-.19-.39c.03-.3-.07-.64-.28-.77-.04-.21-.53-.29-.24-.25l-.48-.51.06-.04c-.29-.6-1.11-.94-1.01-1.88.11.1.22.21.29.37-.03.29-.15.58.09.51,0-.23-.03-.39-.09-.51.02-.21-.01-.43-.28-.49,0,.05,0,.08,0,.12-.18-.16-.37-.31-.48-.68l.19-.2c-.22-.21-.21-.88-.51-.85.44-.63-.61-1.27-.77-1.77l-.3.17c-.17-.31-.43-.54-.77-.83l-.24.19c-.41-.18-.35-.91-.71-1.38.12-.03.18.11.18.24.17-.97-1.24-.95-1.19-1.76-.18-.07-.21-.19-.21-.32l.04.02-.03-.06v-.27c.07-.33.23-.76,0-.56l-.2.23s-.01-.01-.03-.03c0-.21-.21-.03-.35.19-.1-.04-.2-.07-.3-.08.34-.42-.43-.28-.09-.77-.29.06-.71-.62-1.22-.35.06-.05.05-.11.12-.04-.07-.2-.14-.4-.37-.45l.28-.32-.7-.02c.04-.36.08-.54.5-.53-.79-.2-.48-.29-1.2-.42l.23-.14c-.13-.15-.61-.16-.51-.39.11-.65-1.28-1.74-1.71-2.87-.44.68-.09-.62-.57-.25.09-.17.07-.36.31-.33-.52-.31-.37-.85-1.01-.79.09-.18.28-.09.32-.21-.06,0-.24-.03-.2-.15.04-.12.17-.04.29-.03-.42-.42-.88-.07-1.29.27,0-.4-.15-.47-.56-.38.05-.19.06-.44.37-.23-.13-.16-.74-1.06-1.05-.77.03-.12-.19-.22-.26-.22-.32-.34-.32-.4-.68-.68l.04.14c-.48.26-.35-.17-.66-.38l.04-.03c-.36-.86-.38-.12-.73-.97l-.17.27c-.51.48-.3-.77-.85-.87l.02.25c-.35.02.02-1.19-.13-1.43,0-.08.13-.02.22,0-.29-.76-.33.27-.8.03.06-.24.45-.38.2-.64-.02-.27-1.24-.04-1.38-.65-.02.2-.04.4-.31.37-.34-.16-.43-1.11-1.02-.84-.01-.07,0-.11.02-.15-.31-.04-.88-.32-1.19-.17.41-1.1-1.74-.49-1.19-1.34l-.77-.4.07-.08c-.44-.34-.73-.23-1.02-.12-.07-.13.05-.16.09-.2-.59-.59-.67-.61-1.51-.48l.1-.32c-.25.09-.77-1-1.65-1.03.02-.03.07-.08.15-.09-.96-.07-1.47-1.82-2.3-.86l-.66.02c.64.4-.33.43-.14.74-.29-.06-.53-.65-.17-.56l.02.08c.39-.51-.75-.6-.55-.98-1.34-.63-2.54-1.48-3.82-2.05l-.04.52-.43-.21c-.07-.15-.01-.42.3-.27-.06-.33-.62,0-.67.09-.55-.44.46-.43.27-.52l-.27-.07.04.08c-.29.1-.39.3-.76.13-.21-.18-.02-.33-.11-.38.01-.03-.01-.06-.14-.07l-.56-.26.09.45c-.32.08-.53-.22-.42.29-.14-.78-2.03-1.04-2.21-1.3-.45.14-.8.02-1.23-.16.08.11,0,.55-.35.37.43-.81-.56-.61-.66-1.33.14.49-1.11-.24-.87.48-.29-.17.08-.33-.09-.6-.86.1-1.6-.75-2.58-.9-.05.11.06.33-.19.44l-.33-.71c-.2,0-.36.61-.59.12.02.11.05.27-.08.28-1.7-1.09-3.88-.55-5.55-2.03.21.28.03.26-.17.23.12.08-.07.28-.07.45l-.71-.61c-.23.4-.87-.14-1.04.26l.27-.03c-.43.43.25,1.19.07,1.81.49-.48.79,1.03,1.57.37.1.16-.16.18-.12.34.21-.23.41-.25.72-.04l-.05.06c.97.16,1.32.52,2.34.98v-.33c.22.1.24.21.33.32.39-.4-.64-.19-.26-.65.14.7,1.62.43,1.63,1.21.35.1,0-.39.35-.28l.04.22.16-.22c.22.11.27.38.23.54-.05-.04-.17,0-.24,0,.23.31.86.16.94.26l-.3-.21c1.01.08,2.09.72,3.13.61l-.02-.17c.79-.05.51.34,1.32.47l-.04.02c.2-.09.43-.09.63,0-.25.1.25.45-.06.55.85-.02.45-.09,1.13-.45l.03.28c.25-.15.3-.26.71-.19-.39.09.12.44-.33.59.61.8,1.37-.07,1.45.81.61-.51-.55-.62-.3-.68-.09-.28.48-.37.71-.21.25.11.12.99.76,1.22-.06-.03-.09.02-.15,0,.17.25.55-.05.74.33.32-.33.36.18.61-.3l-.63-.12c.38-.01.92-.45,1.35.06-.08.08-.3.14-.44.17l-.02-.04c-.18.06-.11.06.02.04.1.21.34.03.44.25-.25.47-.74-.19-1.24.04.08.28.8-.08.41.38.53-.57.58.34,1.22,0l-.15.28c.09-.02.28-.1.4-.04l-.38.29c.48-.18.54.56.94.52-.69-.28,0-.42-.2-.75,1.02-.03.16.96,1.16,1.24-.14-.02-.4-.39-.14-.44.15.14.33.36.37.57.64.23.04-.34.38-.4.05.45.37,0,.69.01l-.13.3c.61.52.47-.53,1,0l-.46.28.38.05-.23.3c.48-.08.56.04.86.3.02-.24.3-.51.62-.37.13.28-.25.21.2.39-.19.13-.41.31-.47-.05-.07.09-.19.14-.25.22.13.3.55.32.7.4-.05-.04-.12-.1-.13-.16l.83-.07c.04.16-.08.21-.2.25.14.04.3-.05.5.02-.17.21-.28.46-.6.43l.72.05c-.01.12.16.44.03.48.25.31,1.04-.03,1.38.38l-.04.04-.3.18c.24.13.21-.06.3-.18l.06-.03h-.01s.12-.06.23-.05c.39.26.56.77,1.21.73l.02.57c.42.13-.06-.73.65-.52.51.13-.05.44.04.65.34-.08.97-.26,1.16.3-.18,0-.24-.13-.39-.17l.16.4c-.59.15-.77-.14-.69.35.52-.75,1.22.61,1.74-.11l.09.29s-.09,0-.14-.05c.13.62.64-.36,1.05.08.13.17.17.36,0,.38l.5.07c.1.09-.02.2-.12.11l.61.33-.02.02c.16-.06.48-.11.62-.13.07.21-.13.03-.16.15l.45.04c-.01.28-.41.29-.61.11-.25.95.4-.01.71.87l-.36-.12c-.11.54.2.58.32,1.08.03-.19-.13-1.15.32-1.08.05.13.15.25.43.24-.2.26.02.33.24.49l-.28.33c.3.09.42-.1.68-.14.23.24.07.54-.05.81.36.38.06-.64.59-.32.24.4.58.46,1.16.59.14.3-.21.17-.21.33l.43-.08c.04.05-.04.12-.09.15.25.06.3-.31.64-.15.39-.28.07,1.02.76.93,0,.16-.22.15-.31.3.68.17.55.17,1.25.18l.11.5c0-.45.56-.44,1.05-.4l-.02.11c-.29.08-.59.19-.75.39.06,0,.14,0,.22.05-.08.02-.14.05-.16.09-.02.04.09.02.24,0l-.26.43.16-.11.28.76c.71.06,1.55-.07,2.27.43-.41.08-.46.35-.78.62.17-.47-.58-.36-.8-.74.12.2-.06.3-.15.3l.82.31c-.27.21-.08.29-.05.54.4-.56.73.13,1.1.24-.16.16-.38.26-.6-.07-.1.65.97-.11.91.5-.06-.07-.07-.13-.18-.09.29.04.51.57.28.59l-.06-.07c.34.54,1.2,1.49,1.71,1.2-.05.05-.59.37-.71.41l2.23-.31c-.45.22-1.14,1.24-1.69,1v-.02s.55-.65.55-.65l-1.06.41c.42-.06.46.07.51.24l-.02.02h.02c.04.16.09.36.41.51,0-.12.41-.64.53-.55-.21.64-.07.39-.17,1.06,0-.19.71-.51.84-.3-.12.04-.6.47-.71.45l.97.03c-.2-.04-.53.36-.62.59.08-.14.3.43.45.51v-.31c.3.61,1.26-.08,1.63.49-.18.02-.9.39-.79.73.4-.09,1.92-.48,2.51-.14l-.12.22.47.25c-.65.08-2.12.1-2.75.01,0,.31-.18.21.05.51-.1.23-.37,0-.45-.08l.38.81c.35-.29.75.31,1.05.07l-.93-.54c.35-.29,1.37-.26,1.66.31-.06.23-.74.35-.86.44.17-.02.58.33.52.44l-.35-.09c.05.38.83.14.69.73.05.14-.26.68-.03.56.31-.48,1.63-1.38,2.04-1.45,0,.06,0,.93-.14,1.2-.22.42-1.01.2-1.2.56.11-.06.31-.03.38,0,0,.19-.36.15-.14.4.42-.19.32.6.41-.07.28.21.1.34.32.66.19-.26,1.04-.23,1.33-.01-.11.04-.2.18-.24.25.31.6.3,1.02.61,1.57-.07.11-.04.43-.27.42.12.04.29.03.4.19-.16.52-.27-.34-.54.14.24-.11.57.25.85.41.32-.27-.25-.59-.53-.75.49-.28,1.25-.16,1.81.29.38.39-.21.37-.09.42.37.92,1.27.27,1.29,1.19-.17.46-.63.35-.83.53-.32-.31-.1-.69-.25-.94v.4c-.15-.06-.37-.27-.35-.46-.16.39.72,1.49.8,2.3.17.06.39.21.47.05ZM146.01,47.27l.57-.38-.63.3.06.08ZM152.3,56.71c.37-.11.16-.26-.06-.42-.23.14-.06.28.08.45,0,0,0-.01-.02-.03ZM152.35,56.79c.04.06.08.11.1.18.15-.04,0-.09-.1-.18ZM151.19,55.57c-.08-.2-.13-.44-.21-.39l.07.36s.1,0,.14.03ZM151.23,56.34l-.09-.23.07.36.02-.12ZM151.51,56.84l.27-.22h-.3s.03.22.03.22ZM152.66,58.92c-.09-.17-.26-.24-.23-.04.05.02.04.09.1.11l.13-.07ZM154.07,60.41l-.34-.43-.13.35.13-.07c.06.3.21.16.33.15ZM154.65,61.43c-.21.17-.36.3-.53.55.05.03.18.02.21.16-.03.15-.13.05-.21.1.11.05.31.21.34-.1l-.05-.03c0-.27.2-.71.25-.69ZM154.66,59.95c.06.07.11.13.18.18l.05-.08c-.07-.05-.15-.07-.24-.1-.07-.09-.13-.18-.18-.29.09-.01.27,0,.18-.18-.17-.08-.25-.22-.34-.37-.02-.12-.02-.24-.02-.35.05-.1.12-.3.04-.29-.02.09-.04.19-.04.29v.02s-.42-.51-.42-.51c-.02-.16.03-.3.14-.57-.21-.15-.32-.15-.41-.12v-.03s-.05.05-.05.05c-.11.04-.21.09-.48-.14-.08.17-.01.8-.34.65-.3-.33-.06-.36-.02-.61-.22.3-.67-.28-1.07.01l.32.26c-.07.04-.23-.03-.25.09.25-.09.63.14.5.55.31.2,1.02-.35,1.35-.81h.05s.24.6.24.6l-.06-.03.09.11c.02.14.1.29.25.55-.31.02-.55-.22-.76.09.18.35.33.15.55.31-.33-.55.22.1.18-.38.1.09.16.19.21.28.03.19.08.38.16.55-.04,0-.07.01-.04.05,0,.15.1.2.21.24ZM154.77,61.15l.15.11.07.33c.07-.04.15-.13.26-.08l-.32-.25-.03-.12h-.12ZM155.38,62.32c-.22-.11-.52-.39-.61.04.23.05.28-.2.61-.04ZM155.83,65.64c-.11-.06-.02-.42-.16-.36l-.06.24.21.11ZM155.97,63.51l-.57-.42.04.09.53.34ZM156.17,63.24c-.14.03,0,.04.15.12l-.25-.23c-.06.07-.2.13.1.11ZM156.04,63.75c.26.48.55.28.28-.2-.04.18-.02.4-.28.2ZM156.47,66.25l-.08.09.42.02c-.2-.39-.64-.84-.62-1.17-.38.35.33.65.29,1.05ZM156.61,66.89l.25.21h.12s-.37-.21-.37-.21ZM192.11,179.24c-.12.15-.21,0,.05.15,0-.02.01-.04.02-.05-.02-.02-.04-.05-.07-.1ZM191.71,178.96l.24.02c.06-.1-.02-.23.08-.24-.18-.07-.24.03-.32.22ZM191.55,179.12c-.12.08,0,.02.14.01l-.23-.04c-.04.07-.16.17.1.03ZM190.96,178.32l.17.02c.01-.09-.02-.23.09-.33-.08.06-.17.22-.26.31ZM191.02,177.38l-.39.09.15-.02.25-.07ZM190.49,177.96c-.05-.06-.08-.11-.09-.13.01.02.04.06.09.14h0s.03.03.04.05c.04-.05.14-.18.13-.3l-.17.24ZM190.27,176.78c.13.02.19.12.16.34.2-.07.18-.3.33-.31-.11-.07-.31-.05-.49-.03ZM188.83,175.92l.21-.16-.19.02-.02.14ZM188.94,176.18l.19.03.26-.17-.45.14ZM188.36,175.08c.07.06.04.13.03.2.05-.05.12-.15.16-.11l-.19-.09ZM187.49,174.5c-.01.09.29-.2.23-.1.31-.17-.59-.05-.23.1ZM187.75,174.49s.06.08.07.13c0-.03.01-.04.02-.04-.02-.02-.05-.04-.09-.08ZM159.52,141.81h.11s0-.24,0-.24l-.1.24ZM158.95,141.74s.12.05.06.14l.31-.32-.37.18ZM169.24,159.42c-.17-.09.15-.5-.21-.16.04.07.17.09.21.16ZM170.99,160.18l-.27.28.02.04.25-.32ZM172.12,162.23l-.1.26.09-.06c.07-.09.05-.13,0-.21ZM179.94,170.13c-.24-.01-.22-.14-.51.21.05.32.36-.23.37.1.16-.06,0-.26.14-.3ZM184.54,174.61c-.1.06-.47-.04-.26.17.1-.06.33.06.26-.17ZM185.18,174.82l-.32.27.19-.02c.01-.09.07-.15.13-.24ZM185.3,173.93l-.22-.11c-.1.06-.12.15-.03.19.1-.01.19.03.25-.07ZM186.54,175.68l-.13-.08c.13-.29.48-.05.47-.28.28.02.67-.03.72.29l-.28.31c.09-.08.07-.3-.08-.27.21-.03-.15.68.34.43l.09-.33c.29.01.78-.09.84.18.24-.35-.07-.01.18-.45-.35.5-.39-.49-.7.1.31-.49-.02-.39.19-.87-.1.09-.14.23-.23.03-.04.02-.09.04-.12.04,0,0,0-.01,0-.02,0,0,0,.01,0,.02-.02,0-.02,0,0,0-.01.08-.04.15-.09.21-.3.13-.51-.13-.7-.11-.03-.13.15-.06.22-.21l-.29.03c.22-.21.17-.57.49-.47l-.16-.2c.03-.23-.05-.43-.23-.44-.03-.13-.45-.02-.21-.09l-.41-.19.05-.05c-.23-.33-.91-.3-.79-1,.09.03.18.07.23.17-.04.22-.15.47.06.34.01-.16-.01-.27-.06-.34.03-.16,0-.3-.22-.26,0,.03,0,.06-.01.09-.15-.05-.31-.1-.39-.32l.17-.2c-.18-.07-.14-.56-.39-.44.41-.6-.43-.74-.53-1.05l-.27.21c-.12-.17-.32-.26-.6-.37l-.22.21c-.33,0-.21-.58-.46-.82.1-.06.14.03.13.12.24-.76-.95-.36-.83-.97-.15,0-.16-.08-.15-.18,0,0,.02,0,.03,0,0,0-.01-.02-.02-.03.01-.07.03-.14.04-.21.1-.26.3-.63.08-.42l-.19.22s-.01,0-.02-.01c.02-.16-.17.03-.32.24-.08,0-.16,0-.24.02.34-.41-.32-.1.03-.56-.25.12-.51-.29-.99.04.05-.05.06-.1.1-.06-.03-.13-.06-.27-.25-.25l.28-.31-.59.16c.09-.29.15-.43.5-.52-.62.02-.34-.12-.93-.06l.21-.16c-.08-.08-.48,0-.36-.19.21-.53-.79-1.04-.88-1.86-.51.61.06-.47-.42-.09.12-.15.13-.29.33-.31-.36-.14-.11-.59-.66-.43.12-.15.25-.12.32-.22-.05,0-.19.02-.13-.08.06-.1.15-.06.25-.07-.25-.25-.71.1-1.14.43.08-.3,0-.35-.36-.22.09-.16.17-.36.36-.23-.06-.11-.29-.74-.63-.47.06-.1-.09-.15-.15-.14-.16-.23-.15-.27-.35-.45v.1c-.47.26-.24-.1-.43-.22l.04-.03c-.04-.63-.28-.05-.27-.7l-.23.23c-.56.42.03-.6-.36-.65l-.07.2c-.28.04.43-.95.4-1.12.02-.07.11-.02.17-.01.04-.58-.36.23-.63.06.14-.19.49-.32.39-.51.07-.2-.95.02-.8-.47-.09.16-.19.32-.38.3-.19-.13.12-.88-.43-.67.02-.05.05-.09.08-.12-.22-.03-.53-.26-.83-.14.75-.84-1.09-.44-.3-1.1l-.38-.36.09-.06c-.16-.29-.43-.22-.69-.15,0-.1.11-.12.16-.15-.15-.5-.22-.51-.87-.48l.23-.25c-.22.04-.05-.87-.66-.98.03-.02.09-.06.15-.06-.64-.15-.12-1.57-1.17-.93l-.46-.07c.22.41-.44.29-.48.56-.17-.09-.02-.59.17-.46l-.02.07c.53-.35-.2-.57.14-.84-.6-.66-.9-1.55-1.42-2.2l-.31.39-.17-.24c.04-.13.23-.33.35-.16.14-.26-.4-.11-.49-.05-.11-.44.54-.25.47-.35l-.14-.11-.02.07c-.24.03-.41.16-.56-.05-.03-.18.18-.26.15-.32.03-.02.03-.05-.05-.08l-.21-.31-.2.36c-.25,0-.21-.28-.43.14.36-.63-.7-1.2-.64-1.45-.36.01-.51-.16-.66-.4-.02.1-.32.42-.44.2.74-.52.01-.59.38-1.16-.21.41-.52-.45-.81.15-.07-.2.25-.23.31-.48-.58-.14-.51-.95-.98-1.32-.1.07-.17.26-.39.28l.25-.62c-.12-.05-.59.36-.42-.07-.06.09-.14.22-.22.18-.31-1.25-1.89-1.49-1.83-3.09-.07.27-.16.2-.24.12,0,.1-.22.19-.34.3l.02-.66c-.4.22-.36-.38-.72-.14l.16.07c-.52.17-.66.95-1.17,1.34.59-.19-.25,1.01.62.77-.05.15-.2.08-.29.21.27-.11.39-.05.44.19l-.07.03c.44.42.41.79.71,1.43l.21-.25c.06.14,0,.23,0,.33.48-.19-.25-.33.26-.56-.37.57.66.79.19,1.37.14.17.24-.29.38-.12l-.11.17.23-.12c.06.14-.08.36-.2.47,0-.04-.1-.05-.14-.07-.05.3.41.36.4.46l-.05-.24c.54.35.83,1.09,1.52,1.27l.08-.13c.51.16.11.38.53.68h-.04c.18-.01.32.04.4.15-.22.02-.11.4-.36.4.55.18.34.03.97-.08l-.14.22c.24-.06.34-.13.55.01-.3-.02-.19.37-.55.38-.08.75.92.23.47.93.68-.27,0-.59.2-.59.1-.23.52-.18.57-.02.1.14-.49.79-.21,1.1-.02-.03-.07,0-.09-.04-.03.23.38.08.29.41.39-.19.14.21.57-.12l-.34-.21c.25.08.85-.17.86.3-.1.05-.28.06-.38.05-.05.18.21.09.16.27-.43.32-.39-.28-.85-.19-.1.23.58.09.07.37.67-.35.2.37.81.23l-.26.19c.07,0,.24-.03.29.04l-.41.16c.42-.05.05.54.34.58-.31-.34.23-.33.28-.63.69.16-.42.79.11,1.18-.09-.04-.06-.37.14-.36.03.14.04.34-.04.5.33.28.21-.26.47-.25-.2.36.26.05.47.11l-.25.21c.15.5.6-.34.69.15l-.46.15.23.1-.31.2c.37,0,.36.11.44.36.14-.19.47-.36.61-.2-.05.24-.29.14-.06.34-.2.08-.44.19-.3-.1-.09.06-.2.08-.29.14-.07.26.22.33.29.41-.02-.04-.04-.09-.02-.14l.63.04c-.05.13-.16.15-.27.18.08.04.24,0,.34.08-.22.15-.42.33-.64.27l.49.13c-.07.1-.1.37-.21.39.03.28.76.1.8.47-.02,0-.04.02-.05.03l-.3.11c.11.13.18-.03.3-.11l.05-.02s0,0,0-.01c.05-.02.11-.03.18,0,.14.26.06.66.56.69l-.23.45c.26.13.28-.59.71-.36.32.14-.23.35-.26.52.28-.04.83-.14.72.33-.13-.02-.13-.12-.21-.16l-.06.34c-.5.08-.51-.17-.66.23.72-.57.63.59,1.34.02l-.05.24s-.07,0-.09-.04c-.15.5.64-.27.78.09.03.14-.01.3-.15.3l.36.07c.04.07-.09.16-.13.09l.34.28h-.02c.15-.03.41-.07.52-.08-.03.17-.11.02-.18.12l.32.04c-.12.23-.42.23-.5.08-.55.76.3,0,.21.71l-.23-.1c-.3.45-.04.46-.12.86.09-.16.29-.92.63-.87,0,.1.03.19.26.18-.25.21-.1.26.03.38l-.34.27c.21.06.37-.09.59-.14.1.18-.12.43-.31.65.16.3.26-.52.57-.28.05.32.31.35.72.43.01.24-.22.15-.27.28l.37-.09s-.07.1-.11.12c.19.02.33-.27.57-.17.4-.26-.23.8.36.67-.05.13-.22.15-.34.27.52.06.41.08.97.01l-.04.39c.12-.36.57-.42.95-.45-.01.03-.03.06-.04.09-.26.1-.53.23-.71.41.05-.01.11,0,.16.01-.07.03-.13.06-.15.09-.03.04.07,0,.19-.02l-.31.37.16-.11.07.54c.58-.06,1.31-.31,1.8-.04-.35.13-.46.35-.78.62.24-.4-.41-.19-.51-.45.06.14-.12.24-.19.26l.62.11c-.27.21-.13.24-.15.43.45-.51.58-.02.86,0-.16.16-.37.27-.48.05-.21.53.82-.25.66.22-.04-.04-.04-.09-.14-.03.24-.03.34.33.14.4l-.04-.04c.19.35.76.9,1.24.58-.05.05-.56.41-.66.47l1.92-.72c-.41.27-1.15,1.21-1.57,1.15,0,0,0-.01,0-.02l.57-.63-.96.55c.36-.13.38-.05.39.08l-.02.02s.01,0,.02,0c0,.12.02.26.28.29.01-.09.44-.58.53-.54-.26.54-.12.32-.28.84.02-.14.67-.56.75-.43-.1.06-.57.5-.67.51l.82-.21c-.16.02-.5.4-.61.61.09-.13.2.25.32.28l.03-.23c.19.39,1.08-.38,1.32-.03-.15.06-.81.53-.75.75.36-.18,1.7-.88,2.16-.8l-.12.2.38.05c-.56.24-1.81.67-2.35.77-.03.23-.17.2,0,.37-.1.2-.32.11-.38.06l.25.5c.33-.31.62.02.89-.24l-.74-.15c.33-.31,1.2-.57,1.39-.22-.07.19-.66.47-.77.57.15-.06.47.09.4.19l-.29.03c.01.27.69-.12.53.36.04.09-.27.58-.06.42.3-.45,1.49-1.51,1.85-1.68,0,.05-.07.68-.2.92-.21.37-.88.46-1.06.78.1-.08.27-.11.33-.12-.02.14-.32.22-.14.34.37-.27.24.34.36-.18.23.07.07.22.23.39.18-.25.9-.49,1.13-.43-.1.07-.18.2-.22.26.24.34.22.64.47.94-.06.1-.04.33-.25.4.1-.01.25-.07.33,0-.15.43-.22-.16-.47.28.21-.16.48,0,.71.01.28-.31-.19-.35-.43-.37.43-.37,1.07-.53,1.53-.4.31.15-.19.34-.09.33.31.52,1.08-.26,1.09.39-.15.38-.54.47-.71.68-.27-.11-.08-.45-.21-.58v.28c-.14.02-.32-.06-.3-.2-.14.34.61.81.68,1.35.15-.02.33,0,.4-.14ZM182.72,171.65l.52-.45-.56.41.04.04ZM187.9,176.27c.32-.22.13-.24-.06-.27-.2.19-.05.22.07.29,0,0-.01,0-.02-.02ZM187.94,176.3s.07.05.09.09c.13-.09,0-.06-.09-.09ZM186.8,175.93s.08-.04.12-.03c-.08-.11-.12-.26-.19-.19l.07.22ZM186.97,176.42l-.08-.13.07.22v-.09ZM187.22,176.66l.23-.26-.26.12.03.14ZM188.29,177.65c-.08-.08-.23-.07-.2.07.05,0,.04.04.09.04l.11-.1ZM189.56,178.11l-.31-.15-.09.29.11-.1c.07.18.19.03.29-.03ZM189.95,179.13c-.02-.18.12-.57.17-.57-.17.2-.28.35-.41.6.05,0,.15-.06.19.03-.02.12-.11.09-.18.15.09,0,.28,0,.28-.21h-.05ZM190.2,177.6s.03-.05.04-.07c-.06,0-.14.01-.21.03-.06-.03-.12-.07-.17-.12.08-.05.23-.11.15-.2-.15.02-.22-.05-.3-.12-.02-.07-.03-.15-.03-.24.04-.09.09-.25.02-.21-.02.07-.02.14-.02.21,0,0,0,.01,0,.02l-.37-.19c-.02-.1.01-.22.09-.45-.19-.02-.28.03-.35.08v-.02s-.03.03-.04.05c-.09.07-.17.14-.42.09-.07.15.02.55-.27.58-.27-.11-.07-.22-.04-.41-.18.3-.58.06-.92.42l.28.06c-.06.05-.2.07-.21.16.21-.16.54-.15.45.18.28.02.86-.65,1.13-1.09.01,0,.03-.02.04-.03l.23.33h-.05s.08.04.08.04c.02.09.09.16.24.27-.26.14-.48.07-.64.37.17.17.29-.03.48,0-.3-.24.19-.02.14-.34.09.02.14.07.19.11.03.12.08.23.16.32-.04.02-.06.04-.03.05.01.1.1.09.2.07.05.02.11.04.17.04ZM190.2,178.32h.13s.08.21.08.21c.05-.05.12-.15.21-.16l-.29-.03-.03-.07-.1.06ZM190.8,178.85c-.19.02-.47-.04-.52.29.2-.07.22-.26.52-.29ZM190.92,179.39h.48s-.52-.04-.52-.04l.04.04ZM191.49,180.85c-.1.01-.06-.27-.17-.17l-.03.19.19-.02ZM191.7,179.26c-.02.14.01.28-.23.25.26.2.49-.05.23-.25ZM192.09,180.97l-.06.1.36-.18c-.22-.16-.63-.25-.65-.48-.29.4.34.28.36.56ZM192.62,181.28l-.34.04.24.02.1-.06ZM194.13,181.75c-.13-.06-.33.2-.27.15.03.08.23-.13.27-.15ZM182.17,168.42s.02-.11.05-.19c0-.09-.01-.16-.12-.2l-.22.25c.13.03.23.09.28.15ZM189.68,176.9h0s0,0,0,0c0,0,0,0,0,0ZM189.54,176.99s.06-.03.09-.06c-.05,0-.12-.06-.09.06ZM189.65,176.93s0,0,.03-.03c-.01,0-.02.02-.04.02,0,0,0,0,0,0ZM154.3,58.78h0s0,0,0,0h0ZM151.29,52.97h.02c-.02-.17-.02-.27-.02,0ZM113.19,18.7l-.06-.11c-.09.07-.18.12.06.11ZM136.66,34.47h-.15s-.31.08-.31.08l-.05.33c.27-.06.53-.15.5-.41ZM136.86,34.25l-.58-.25c0,.09-.03.25-.06.44l.29.02c.19-.05.34-.11.34-.21ZM154.14,58.81l.11-.02c-.06-.04-.13-.17-.11.02ZM129.46,30.51c-.05.19.23.16.35.16-.07-.19-.03-.4-.35-.16ZM144.85,42.46c-.01-.06,0-.15.02-.24-.01-.12-.06-.24-.19-.33l-.22.25c.17.1.31.23.39.33ZM154.26,58.8s.01.02.03-.02h-.04s.01.02.01.02ZM120.83,82.65H52.88c-3.59,0-6.5,2.91-6.5,6.5s2.91,6.5,6.5,6.5h67.95c3.59,0,6.5-2.91,6.5-6.5s-2.91-6.5-6.5-6.5Z"/></svg>