<?xml version="1.0" encoding="UTF-8"?><svg id="c" xmlns="http://www.w3.org/2000/svg" viewBox="0 0 203.31 68.14"><path id="d" d="M173.49,30.18l7.84.12v-7.08c-1.16-.49-1.98-1.64-1.98-2.98,0-1.79,1.45-3.23,3.23-3.23s3.23,1.45,3.23,3.23c0,1.34-.82,2.49-1.98,2.98v6.93l1.87-.69c.68-.25,1.12-.75,1.14-1.3l.03-.91c.02-.8.94-1.46,2.07-1.48l2.21-.04c1.17-.02,2.12.64,2.11,1.46v1.87c-.02.7.67,1.3,1.64,1.45l4.73.71c.99.15,1.7.76,1.7,1.47v2.75c0,.71-.71,1.32-1.7,1.47l-4.72.72c-.97.15-1.65.75-1.65,1.44v1.88c0,.82-.95,1.47-2.11,1.45l-2.26-.04c-1.15-.02-2.07-.69-2.07-1.51v-.86c0-.56-.44-1.07-1.14-1.33l-1.85-.68v5.63c1.16.49,1.98,1.64,1.98,2.98,0,1.79-1.45,3.23-3.23,3.23s-3.23-1.45-3.23-3.23c0-1.34.82-2.49,1.98-2.98v-5.79l-7.84.12v5.67c1.16.49,1.98,1.64,1.98,2.98,0,1.79-1.45,3.23-3.23,3.23s-3.23-1.45-3.23-3.23c0-1.34.82-2.49,1.98-2.98v-5.63l-125.13,1.92v-2.9l118.56-.56v-1.19s-118.56.56-118.56.56v-3.54l118.55,1v-1.19s-118.55-1-118.55-1v-2.89l125.13,1.92v-6.93c-1.16-.49-1.98-1.64-1.98-2.98,0-1.79,1.45-3.23,3.23-3.23s3.23,1.45,3.23,3.23c0,1.34-.82,2.49-1.98,2.98v6.96ZM41.43,66.49c6.8-1.96,9.72-.65,10.72,0,1,.65,4.16,2.34,4.19-2.27.03-4.6,3.95-10.2,14.7-12.02,10.75-1.82,13.72,4.04,14.01,4.81s-1.44,3.59-1.1,4.74c.34,1.15,2.1,1.34,4.17,0s5.86-.21,9.36.62c3.5.82,13.71,2.89,22.88-4.12,5.71-4.36,7.74-12.66,8.47-18.3l-53.73.83c.73.8,1.22,1.87,1.27,3.02.06,2.13-2.05,3.32-3.71,3.95-6.33,2.44-13.79-.84-19.75,2.78-.8.43-1.27,1.32-1.43,2.27.35-.44.88-.72,1.48-.72,1.05,0,1.91.85,1.91,1.91,0,.99-.76,1.8-1.73,1.89-.28.08-.56.15-.86.15-1.6.14-2.26-1.92-2.27-3.17-.09-1.39.48-3,1.68-3.88,3.12-2.58,7.43-2.9,11.07-2.88,3.24.11,6.21.54,9.3-.23,1.4-.36,2.9-.95,3.07-2.1.1-.6.03-1.22-.15-1.83-.2.83-.95,1.45-1.85,1.45-1.05,0-1.91-.85-1.91-1.91,0-.23.05-.44.12-.65l-25.51.39-1.07.02v1.35l-12.98-4.57c-2.54-.9-5.22-1.35-7.92-1.35h-13.98c-1.43,0-2.59-1.16-2.59-2.59s1.16-2.59,2.59-2.59h13.98c2.7,0,5.37-.46,7.92-1.35l12.98-4.57v1.35l1.07.02,25.43.39c-.02-.12-.04-.25-.04-.38,0-1.05.85-1.91,1.91-1.91.9,0,1.64.62,1.85,1.45.17-.61.24-1.23.15-1.83-.17-1.15-1.67-1.74-3.07-2.1-3.09-.78-6.06-.34-9.3-.23-3.64.02-7.96-.29-11.07-2.88-1.2-.88-1.77-2.49-1.68-3.88,0-1.25.67-3.31,2.27-3.17.3,0,.59.06.86.15.97.09,1.73.9,1.73,1.89,0,1.05-.85,1.91-1.91,1.91-.6,0-1.13-.28-1.48-.72.16.95.63,1.84,1.43,2.27,5.96,3.62,13.42.34,19.75,2.78,1.67.63,3.77,1.81,3.71,3.95-.05,1.02-.43,1.99-1.03,2.76l53.48.82c-.72-5.64-2.76-13.94-8.47-18.3-9.17-7.01-19.37-4.95-22.88-4.12-3.5.82-7.28,1.96-9.36.62s-3.83-1.15-4.17,0c-.34,1.15,1.39,3.97,1.1,4.74s-3.26,6.63-14.01,4.81c-10.75-1.82-14.67-7.42-14.7-12.02-.03-4.6-3.19-2.92-4.19-2.27-1,.65-3.92,1.96-10.72,0-6.8-1.96-19.24-1.15-24.94,2.37C11.02,7.41,5.78,14.98,3.78,21.78c-1.99,6.8-1.82,12.29-1.82,12.29,0,0-.17,5.48,1.82,12.29,1.99,6.8,7.24,14.38,12.71,17.76,5.7,3.52,18.14,4.33,24.94,2.37Z"/></svg>