<?xml version="1.0" encoding="UTF-8"?><svg id="grDownload" xmlns="http://www.w3.org/2000/svg" viewBox="0 0 256 256"><path id="ahp-icon-dl01" d="M35.5,95.86c-1.44-1.58-.32-4.12,1.82-4.12h48.12c1.36,0,2.46-1.1,2.46-2.46V12.38c0-1.36,1.1-2.46,2.46-2.46h75.27c1.36,0,2.46,1.1,2.46,2.46v76.89c0,1.36,1.1,2.46,2.46,2.46h48.11c2.14,0,3.26,2.54,1.82,4.12l-87.02,95.65c-2.93,3.23-8.01,3.23-10.94,0L35.5,95.86ZM247.29,215.41H8.71c-1.59,0-2.88,1.29-2.88,2.88v24.91c0,1.59,1.29,2.88,2.88,2.88h238.57c1.59,0,2.88-1.29,2.88-2.88v-24.91c0-1.59-1.29-2.88-2.88-2.88Z"/></svg>