<?xml version="1.0" encoding="UTF-8"?><svg id="c" xmlns="http://www.w3.org/2000/svg" viewBox="0 0 208.7 68.14"><path id="d" d="M30.54,60.11c6.1-4.17,9.95-4.81,15.41-4.49s10.27,3.85,17.33,4.17,13.8-1.93,13.8-4.81-4.17-1.6-8.02-3.21-5.14-4.17-5.14-6.1c0-1.4,2.53-4.31,3.92-5.81l102.12-2.13s.02.05.03.07c2.12,4.24,5.06,5.04,6.74,5.46,1.28.32,1.93.32,4.49,0,3.52-.44,11.23-3.53,13.48-3.53s2.57,4.17,6.42,4.49,6.1-3.21,6.1-6.1-1.28-4.17-2.57-5.14-26.32-7.38-29.85-7.38-4.42,3.55-5.46,5.14c-.13.19-.23.43-.31.69l-94.02-1.96c.17-1.41,1.22-7.39,6.87-8.53,6.42-1.28,12.52-1.28,12.52-4.17s-5.78-7.7-15.09-6.74-18.29,4.81-22.79,4.49S39.44,6.12,31.51,4.9C23.16,3.62,12.04,2.34,4.87,22.88c-7.06,20.22-1.6,34.02,2.89,37.87,5.69,4.88,16.69,3.53,22.79-.64ZM49,23.68v13.48h-4.33s0,6.74,0,6.74h-4.33v-13.48h4.33s0-6.74,0-6.74h4.33ZM18.83,43.42v-17.97c0-.44.36-.8.8-.8s.8.36.8.8v17.97c0,.44-.36.8-.8.8s-.8-.36-.8-.8ZM20.75,50.32c0-1.42,1.15-2.57,2.57-2.57s2.57,1.15,2.57,2.57-1.15,2.57-2.57,2.57-2.57-1.15-2.57-2.57ZM27.49,53.85c0-1.42,1.15-2.57,2.57-2.57s2.57,1.15,2.57,2.57-1.15,2.57-2.57,2.57-2.57-1.15-2.57-2.57ZM183.52,23.22c-.37,1.37-1.91,2.14-3.45,1.73s-2.49-1.86-2.12-3.23,1.91-2.14,3.45-1.73,2.49,1.86,2.12,3.23ZM190.49,25.1c-.37,1.37-1.91,2.14-3.45,1.73s-2.49-1.86-2.12-3.23,1.91-2.14,3.45-1.73,2.49,1.86,2.12,3.23ZM197.45,26.97c-.37,1.37-1.91,2.14-3.45,1.73s-2.49-1.86-2.12-3.23,1.91-2.14,3.45-1.73,2.49,1.86,2.12,3.23ZM204.42,28.84c-.37,1.37-1.91,2.14-3.45,1.73s-2.49-1.86-2.12-3.23,1.91-2.14,3.45-1.73,2.49,1.86,2.12,3.23Z"/></svg>