<?xml version="1.0" encoding="UTF-8"?><svg id="c" xmlns="http://www.w3.org/2000/svg" viewBox="0 0 220 173.15"><path id="d" d="M216.65,76.46c0-.73-.23-1.3-.78-1.8-1.19-1.08-2.68-1.55-4.15-1.98-1.54-.45-3.12-.82-4.71-1.03-3.42-.45-6.84-.84-10.27-1.14-3.66-.32-7.33-.51-11-.77-4.49-.32-8.99-.65-13.48-.98-.21-.02-.41-.1-.62-.15-.02-.06-.03-.11-.05-.17.3-.24.59-.51.91-.71,1.05-.63,2.13-1.21,3.18-1.85,1.61-.97,3.2-1.99,4.82-2.96,1.94-1.17,3.9-2.3,5.84-3.47,1.94-1.17,3.88-2.34,5.8-3.54,1.81-1.13,3.64-2.22,5.37-3.46,3.27-2.36,6.35-4.94,9.01-8,2.27-2.61,4.16-5.42,4.78-8.92.54-3.04-.4-5.58-2.47-7.78-.33-.35-.73-.47-1.22-.48-2.39-.08-4.77-.19-7.15-.29-4.75-.22-9.5-.45-14.25-.66-3.09-.13-6.18-.15-9.26-.33-3.59-.22-7.18-.52-10.76-.86-1.84-.18-3.69-.45-5.5-.81-1.96-.38-3.91-.87-5.85-1.38-1.35-.36-2.69-.77-3.99-1.28-1.43-.57-2.86-1.19-4.2-1.94-1.56-.88-3.11-1.81-4.5-2.92-2-1.6-3.64-3.54-4.7-5.94-.78-1.77-1.21-3.59-1.12-5.5.04-.9,0-1.76-.22-2.63-.13-.5-.38-.75-.91-.73-.76.04-1.51.07-2.27.08-4.53.04-9.06.08-13.58.1-3.81.01-7.62-.03-11.43,0-.34,0-.74.19-1.01.41-.39.32-.68.75-1.01,1.14-2.62,3.11-5.23,6.22-7.85,9.33-2.41,2.84-4.83,5.66-7.24,8.5-2.63,3.1-5.23,6.22-7.86,9.32-2.23,2.64-4.49,5.26-6.73,7.89-3.15,3.72-6.28,7.46-9.43,11.18-3.14,3.71-6.28,7.41-9.42,11.11-.13.16-.2.38-.29.57.22.09.43.24.65.25,1.17.09,2.35.09,3.52.21,2.45.25,4.89.54,7.33.86.99.13,1.98.35,2.93.65,1.89.58,3.79,1.17,5.63,1.91,1.53.61,2.98,1.45,4.47,2.18.35.17.4.42.31.75-.19.67-.38,1.35-.57,2.02-.49,1.69-.94,3.39-1.5,5.05-.44,1.3-.14,1.32,1.13,1.23,3.82-.27,7.63-.55,11.45-.8,4.14-.26,8.28-.48,12.43-.73,5.18-.32,10.36-.67,15.54-1,1.12-.07,2.23-.11,3.35-.18.53-.03.78-.28.67-.69-.13-.47-.3-.94-.46-1.4-.46-1.28-.92-2.56-1.37-3.84-.44-1.25-.8-2.52-1.3-3.74-.76-1.88-1.3-3.79-1.39-5.82-.02-.39-.13-.78-.25-1.16-.28-.86-.59-1.71-.89-2.57-.42-1.21-.83-2.43-1.25-3.65-.48-1.37-.96-2.74-1.44-4.11-.43-1.23-.84-2.47-1.27-3.7-.64-1.84-1.29-3.67-1.93-5.51-.43-1.25-.84-2.51-1.28-3.75-.62-1.78-1.27-3.56-1.9-5.34-.18-.5-.36-.99-.52-1.5-.17-.56.27-.76.63-.92.35-.16.7-.09.86.37.51,1.38,1.05,2.75,1.55,4.14.62,1.72,1.2,3.46,1.82,5.18.71,1.99,1.43,3.98,2.15,5.97.21.57.41,1.14.62,1.71.48,1.31.97,2.62,1.45,3.93.43,1.19.85,2.38,1.28,3.58.47,1.31.96,2.62,1.43,3.94.49,1.39,1.06,2.73,1.91,3.96.56.82.97,1.74,1.39,2.64.26.54.42,1.13.63,1.7.64,1.72,1.28,3.43,1.91,5.15.57,1.54,1.14,3.08,1.68,4.63.13.38.35.47.73.44,1.62-.13,3.25-.24,4.88-.34,5.92-.38,11.83-.75,17.75-1.13,3.33-.21,6.65-.43,9.98-.62,1.93-.11,3.87-.34,5.79-.25,3.95.18,7.9.53,11.85.83,3.55.27,7.1.57,10.65.87,4.06.35,8.12.64,12.16,1.1,2.48.28,4.92.81,7.38,1.27.49.09.93.39,1.4.59-.02.06-.04.12-.05.18-.22.04-.43.11-.65.13-1.96.17-3.92.33-5.89.48-1.44.11-2.87.18-4.31.3-3.17.27-6.34.57-9.51.83-3.13.26-6.27.49-9.4.75-3.19.27-6.38.57-9.56.84-1.32.11-2.65.19-3.97.29-2.49.19-4.98.45-7.48.58-2.6.14-5.16.42-7.64,1.27-1.5.51-2.81,1.27-3.88,2.46-.23.25-.62.46-.96.49-4.64.45-9.28.86-13.92,1.28-.42.04-.75-.08-.91-.51-.72-1.97-1.45-3.94-2.16-5.91-.6-1.65-1.16-3.31-1.78-4.96-.07-.19-.38-.42-.58-.41-1.02,0-2.04.08-3.06.13-.47.03-.57.28-.42.7.43,1.15.83,2.31,1.27,3.46.32.84.36,1.64-.12,2.45-.15.26-.17.67-.08.97.19.63.49,1.23.73,1.84.25.65.52,1.3.73,1.97.18.57-.02.85-.57.9-2.08.17-4.15.34-6.23.51-3.46.28-6.91.53-10.37.83-4.92.43-9.85.9-14.77,1.34-1.74.16-3.47.33-5.21.42-2.13.12-4.29.37-6.4.19-2.48-.21-4.93-.81-7.39-1.24-.75-.13-1.49-.25-2.24-.39-.56-.11-.71-.33-.56-.82.68-2.36,1.37-4.72,2.05-7.08.19-.65.36-1.31.55-1.97.67-2.28,1.35-4.57,2.03-6.85.16-.54.36-1.08.49-1.63.09-.38.08-.76-.36-.97-.74-.34-1.45-.76-2.21-1.01-2.35-.76-4.69-1.62-7.1-2.13-2.62-.55-5.31-.86-7.99-1.07-4.95-.38-9.88-.07-14.8.51-.32.04-.65.09-.93.23-.25.12-.51.34-.63.58-.59,1.2-1.13,2.43-1.7,3.64-.82,1.74-1.66,3.47-2.47,5.22-.96,2.07-1.91,4.15-2.86,6.23-.19.42-.53.56-.98.45-.5-.11-1-.21-1.5-.3-1.46-.24-2.91-.46-4.37-.69-.34-.05-.64-.14-.56-.65.17-.02.35-.06.54-.07,1.36-.07,2.72-.15,4.09-.21.38-.02.65-.13.81-.49.2-.45.44-.88.63-1.33.11-.24.16-.51.24-.76-.28-.06-.56-.18-.84-.17-2.63.15-5.26.32-7.89.48-3.42.2-6.85.4-10.27.6-.73.04-.85.16-.85.83,0,3.52-.07,7.05.03,10.57.1,3.73-2.51,6.41-5.93,6.96-1.24.2-2.52.12-3.79.16-.38.01-.76-.03-1.14,0-1.3.07-2.25,1.09-2.29,2.36-.08,2.65-.18,5.3-.3,7.94-.02.51.11.85.62.99.65.19,1.3.39,1.95.59,2.37.71,4.74,1.41,7.11,2.12.71.21,1.41.43,2.12.64,1.55.47,3.11.95,4.66,1.41.85.25,1.71.48,2.56.74,1.52.46,3.03.93,4.56,1.38,1.47.43,2.94.84,4.41,1.27,1.7.5,3.4,1.03,5.11,1.52.53.15.81.43.86.98.17,1.77.34,3.54.52,5.31.49,4.73.98,9.45,1.46,14.18.2,2,.37,4,.59,5.99.04.33.16.75.39.93.64.49,1.38.85,2.05,1.31.43.3.86.32,1.35.22.76-.15,1.53-.27,2.29-.39.73-.11.87-.25.93-.97.2-2.34.4-4.68.6-7.02.41-4.74.81-9.47,1.22-14.21.06-.68.18-1.35.3-2.02.07-.36.24-.53.69-.39,1.49.49,2.99.94,4.49,1.38,1.45.43,2.91.83,4.36,1.26,1.46.44,2.91.93,4.38,1.37,1.52.45,3.06.86,4.58,1.3.87.25,1.72.57,2.59.82.69.2,1.4.51,2.09.47,1.36-.07,2.7-.35,4.05-.55,2-.29,4.01-.59,6.01-.88,1.95-.28,3.89-.58,5.84-.84.38-.05.8-.06,1.17.03,1.16.26,2.32.54,3.46.88,1.03.31,2.16.37,3.04,1.16.77.69,1.71,1.06,2.76.98.61-.04.8.26.85.79.46,4.52.94,9.04,1.39,13.56.32,3.22.61,6.45.92,9.67.25,2.54.54,5.08.79,7.63.25,2.6.48,5.2.71,7.81.04.46.21.82.63,1.08.93.57,1.85,1.17,2.79,1.74.2.12.47.2.7.17,1.18-.16,2.36-.35,3.53-.56.8-.14.93-.31,1.01-1.12.25-2.64.51-5.28.76-7.92.39-4.26.77-8.52,1.14-12.79.3-3.51.58-7.02.88-10.53.26-3.02.57-6.03.83-9.05.1-1.17.26-1.32,1.42-1.63.5-.13.96-.48,1.39-.78.59-.41,1.09-.96,1.7-1.3,1.48-.82,3.1-1.29,4.78-1.2,1.67.09,3.6-1.74,3.82-3.23.16-1.11.33-1.2,1.46-1.38.28-.04.56-.07.85-.11,1.95-.26,3.9-.51,5.85-.79,2.1-.29,4.2-.61,6.29-.91,1.78-.26,3.56-.51,5.34-.77.57-.08.9-.43,1.04-.98.59-2.32,1.67-4.37,3.38-6.06,1.29-1.28,2.79-2.2,4.61-2.49,1.98-.32,3.97-.61,5.95-.89,2.62-.37,5.25-.71,7.88-1.05,3.44-.45,6.87-.86,10.31-1.32,3.45-.46,6.9-.96,10.35-1.43.85-.12.95-.07,1.05.81.26,2.2.49,4.4.72,6.61.37,3.64.72,7.27,1.07,10.91.34,3.45.68,6.9,1,10.35.06.69.33,1.19.97,1.47.14.06.25.16.38.25.82.55,1.62,1.09,2.71.78.72-.21,1.5-.25,2.22-.45.21-.06.44-.4.49-.64.14-.68.2-1.39.26-2.08.3-3.45.58-6.91.89-10.36.26-2.9.57-5.8.82-8.71.28-3.23.53-6.45.8-9.68.07-.85.18-.99,1.05-1.12,3.15-.46,6.3-.9,9.44-1.34.78-.11.85-.18.85-.97,0-4.02.01-8.03.01-12.05,0-3.39,0-6.78,0-10.17ZM76.34,111.32c-2.45.55-4.91,1.08-7.37,1.6-.55.12-.82.39-.8.97.03.62.02,1.25.02,1.87,0,.84-.22.97-1,.71-.72-.24-1.46-.39-2.19-.58-1.74-.43-3.49-.85-5.23-1.3-1.74-.45-3.47-.93-5.2-1.38-.93-.24-1.87-.46-2.8-.7-1.85-.48-3.69-.96-5.54-1.44-.75-.2-1.5-.4-2.25-.59-1.78-.44-3.56-.86-5.34-1.31-1.68-.43-3.35-.91-5.04-1.35-1.7-.44-3.41-.85-5.11-1.29-1.79-.46-3.58-.94-5.37-1.41-.75-.2-1.5-.39-2.25-.58-1.72-.43-3.45-.85-5.17-1.28-1.5-.38-3.01-.75-4.51-1.14-.57-.15-.78-.52-.75-1.21.04-.95.23-1.15,1.15-1.28,2.75-.39,5.5-.83,8.26-1.17.79-.1,1.62.05,2.41.19,1.43.26,2.84.61,4.26.93,2.05.46,4.09.93,6.14,1.39.89.2,1.77.4,2.66.58,2.07.44,4.15.86,6.22,1.31,1.99.44,3.98.93,5.97,1.36,2.03.45,4.07.84,6.1,1.29,2.01.44,4.02.91,6.03,1.37.9.21,1.8.42,2.71.61,2.07.44,4.15.85,6.22,1.3,1.99.44,3.98.92,5.97,1.36.59.13,1.2.16,1.79.32.22.06.39.32.58.49-.19.11-.37.29-.58.33Z"/></svg>