<?xml version="1.0" encoding="UTF-8"?><svg id="c" xmlns="http://www.w3.org/2000/svg" viewBox="0 0 208.7 68.14"><path id="d" d="M200.31,5.06H8.4c-3,0-5.44,2.43-5.44,5.44v47.15c0,3,2.43,5.44,5.44,5.44h191.91c3,0,5.44-2.43,5.44-5.44V10.5c0-3-2.43-5.44-5.44-5.44ZM155.14,11.51c1.13,0,2.05.92,2.05,2.05s-.92,2.05-2.05,2.05-2.05-.92-2.05-2.05.92-2.05,2.05-2.05ZM149.28,11.51c1.13,0,2.05.92,2.05,2.05s-.92,2.05-2.05,2.05-2.05-.92-2.05-2.05.92-2.05,2.05-2.05ZM149.28,17.37c1.13,0,2.05.92,2.05,2.05s-.92,2.05-2.05,2.05-2.05-.92-2.05-2.05.92-2.05,2.05-2.05ZM143.42,11.51c1.13,0,2.05.92,2.05,2.05s-.92,2.05-2.05,2.05-2.05-.92-2.05-2.05.92-2.05,2.05-2.05ZM138.28,11.51c1.13,0,2.05.92,2.05,2.05s-.92,2.05-2.05,2.05-2.05-.92-2.05-2.05.92-2.05,2.05-2.05ZM132.42,11.51c1.13,0,2.05.92,2.05,2.05s-.92,2.05-2.05,2.05-2.05-.92-2.05-2.05.92-2.05,2.05-2.05ZM132.42,17.37c1.13,0,2.05.92,2.05,2.05s-.92,2.05-2.05,2.05-2.05-.92-2.05-2.05.92-2.05,2.05-2.05ZM126.56,11.51c1.13,0,2.05.92,2.05,2.05s-.92,2.05-2.05,2.05-2.05-.92-2.05-2.05.92-2.05,2.05-2.05ZM126.56,17.37c1.13,0,2.05.92,2.05,2.05s-.92,2.05-2.05,2.05-2.05-.92-2.05-2.05.92-2.05,2.05-2.05ZM110.01,18.67v-9.78c0-.32.26-.58.58-.58s.58.26.58.58v9.78c.3.32.5.88.5,1.53s-.2,1.21-.5,1.53v.61c0,.32-.26.58-.58.58s-.58-.26-.58-.58v-.61c-.3-.32-.5-.88-.5-1.53s.2-1.21.5-1.53ZM107.32,14.44v-5.56c0-.32.26-.58.58-.58s.58.26.58.58v5.56c.3.32.5.88.5,1.53s-.2,1.21-.5,1.53v4.84c0,.32-.26.58-.58.58s-.58-.26-.58-.58v-4.84c-.3-.32-.5-.88-.5-1.53s.2-1.21.5-1.53ZM101.94,16.36v-7.48c0-.32.26-.58.58-.58s.58.26.58.58v7.48c.3.32.5.88.5,1.53s-.2,1.21-.5,1.53v2.92c0,.32-.26.58-.58.58s-.58-.26-.58-.58v-2.92c-.3-.32-.5-.88-.5-1.53s.2-1.21.5-1.53ZM99.25,9.83v-.94c0-.32.26-.58.58-.58s.58.26.58.58v.94c.3.32.5.88.5,1.53s-.2,1.21-.5,1.53v9.45c0,.32-.26.58-.58.58s-.58-.26-.58-.58v-9.45c-.3-.32-.5-.88-.5-1.53s.2-1.21.5-1.53ZM93.87,10.98v-2.1c0-.32.26-.58.58-.58s.58.26.58.58v2.1c.3.32.5.88.5,1.53s-.2,1.21-.5,1.53v8.3c0,.32-.26.58-.58.58s-.58-.26-.58-.58v-8.3c-.3-.32-.5-.88-.5-1.53s.2-1.21.5-1.53ZM86.04,14.44v-5.56c0-.32.26-.58.58-.58s.58.26.58.58v5.56c.3.32.5.88.5,1.53s-.2,1.21-.5,1.53v4.84c0,.32-.26.58-.58.58s-.58-.26-.58-.58v-4.84c-.3-.32-.5-.88-.5-1.53s.2-1.21.5-1.53ZM83.35,10.98v-2.1c0-.32.26-.58.58-.58s.58.26.58.58v2.1c.3.32.5.88.5,1.53s-.2,1.21-.5,1.53v8.3c0,.32-.26.58-.58.58s-.58-.26-.58-.58v-8.3c-.3-.32-.5-.88-.5-1.53s.2-1.21.5-1.53ZM77.97,9.83v-.94c0-.32.26-.58.58-.58s.58.26.58.58v.94c.3.32.5.88.5,1.53s-.2,1.21-.5,1.53v9.45c0,.32-.26.58-.58.58s-.58-.26-.58-.58v-9.45c-.3-.32-.5-.88-.5-1.53s.2-1.21.5-1.53ZM75.28,12.9v-4.02c0-.32.26-.58.58-.58s.58.26.58.58v4.02c.3.32.5.88.5,1.53s-.2,1.21-.5,1.53v6.38c0,.32-.26.58-.58.58s-.58-.26-.58-.58v-6.38c-.3-.32-.5-.88-.5-1.53s.2-1.21.5-1.53ZM53.56,11.51c1.13,0,2.05.92,2.05,2.05s-.92,2.05-2.05,2.05-2.05-.92-2.05-2.05.92-2.05,2.05-2.05ZM53.56,17.37c1.13,0,2.05.92,2.05,2.05s-.92,2.05-2.05,2.05-2.05-.92-2.05-2.05.92-2.05,2.05-2.05ZM47.7,11.51c1.13,0,2.05.92,2.05,2.05s-.92,2.05-2.05,2.05-2.05-.92-2.05-2.05.92-2.05,2.05-2.05ZM47.7,17.37c1.13,0,2.05.92,2.05,2.05s-.92,2.05-2.05,2.05-2.05-.92-2.05-2.05.92-2.05,2.05-2.05ZM41.84,11.51c1.13,0,2.05.92,2.05,2.05s-.92,2.05-2.05,2.05-2.05-.92-2.05-2.05.92-2.05,2.05-2.05ZM35.98,11.51c1.13,0,2.05.92,2.05,2.05s-.92,2.05-2.05,2.05-2.05-.92-2.05-2.05.92-2.05,2.05-2.05ZM15.72,58.18c0,.44-.36.8-.8.8h-5.9c-.44,0-.8-.36-.8-.8v-30.85h5.76v17.96c0,.44.36.8.8.8h.93v12.1ZM23.79,58.18c0,.44-.36.8-.8.8h-5.9c-.44,0-.8-.36-.8-.8v-12.1h.93c.44,0,.8-.36.8-.8v-17.96h4.03v17.96c0,.44.36.8.8.8h.93v12.1ZM31.85,58.18c0,.44-.36.8-.8.8h-5.9c-.44,0-.8-.36-.8-.8v-12.1h.93c.44,0,.8-.36.8-.8v-17.96h5.76v30.85ZM30.12,15.61c-1.13,0-2.05-.92-2.05-2.05s.92-2.05,2.05-2.05,2.05.92,2.05,2.05-.92,2.05-2.05,2.05ZM39.92,58.18c0,.44-.36.8-.8.8h-5.9c-.44,0-.8-.36-.8-.8v-30.85h5.76v17.96c0,.44.36.8.8.8h.93v12.1ZM39.79,19.42c0-1.13.92-2.05,2.05-2.05s2.05.92,2.05,2.05-.92,2.05-2.05,2.05-2.05-.92-2.05-2.05ZM47.98,58.18c0,.44-.36.8-.8.8h-5.9c-.44,0-.8-.36-.8-.8v-12.1h.93c.44,0,.8-.36.8-.8v-17.96h4.03v17.96c0,.44.36.8.8.8h.93v12.1ZM56.05,58.18c0,.44-.36.8-.8.8h-5.9c-.44,0-.8-.36-.8-.8v-12.1h.93c.44,0,.8-.36.8-.8v-17.96h4.03v17.96c0,.44.36.8.8.8h.93v12.1ZM64.11,58.18c0,.44-.36.8-.8.8h-5.9c-.44,0-.8-.36-.8-.8v-12.1h.93c.44,0,.8-.36.8-.8v-17.96h5.76v30.85ZM72.18,58.18c0,.44-.36.8-.8.8h-5.9c-.44,0-.8-.36-.8-.8v-30.85h5.76v17.96c0,.44.36.8.8.8h.93v12.1ZM72.59,22.33v-8.3c-.3-.32-.5-.88-.5-1.53s.2-1.21.5-1.53v-2.1c0-.32.26-.58.58-.58s.58.26.58.58v2.1c.3.32.5.88.5,1.53s-.2,1.21-.5,1.53v8.3c0,.32-.26.58-.58.58s-.58-.26-.58-.58ZM80.24,58.18c0,.44-.36.8-.8.8h-5.9c-.44,0-.8-.36-.8-.8v-12.1h.93c.44,0,.8-.36.8-.8v-17.96h4.03v17.96c0,.44.36.8.8.8h.93v12.1ZM80.16,17.89c0-.64.2-1.21.5-1.53v-7.48c0-.32.26-.58.58-.58s.58.26.58.58v7.48c.3.32.5.88.5,1.53s-.2,1.21-.5,1.53v2.92c0,.32-.26.58-.58.58s-.58-.26-.58-.58v-2.92c-.3-.32-.5-.88-.5-1.53ZM88.31,58.18c0,.44-.36.8-.8.8h-5.9c-.44,0-.8-.36-.8-.8v-12.1h.93c.44,0,.8-.36.8-.8v-17.96h5.76v30.85ZM88.23,20.2c0-.64.2-1.21.5-1.53v-9.78c0-.32.26-.58.58-.58s.58.26.58.58v9.78c.3.32.5.88.5,1.53s-.2,1.21-.5,1.53v.61c0,.32-.26.58-.58.58s-.58-.26-.58-.58v-.61c-.3-.32-.5-.88-.5-1.53ZM96.37,58.18c0,.44-.36.8-.8.8h-5.9c-.44,0-.8-.36-.8-.8v-30.85h5.76v17.96c0,.44.36.8.8.8h.93v12.1ZM96.56,22.33v-6.38c-.3-.32-.5-.88-.5-1.53s.2-1.21.5-1.53v-4.02c0-.32.26-.58.58-.58s.58.26.58.58v4.02c.3.32.5.88.5,1.53s-.2,1.21-.5,1.53v6.38c0,.32-.26.58-.58.58s-.58-.26-.58-.58ZM104.44,58.18c0,.44-.36.8-.8.8h-5.9c-.44,0-.8-.36-.8-.8v-12.1h.93c.44,0,.8-.36.8-.8v-17.96h4.03v17.96c0,.44.36.8.8.8h.93v12.1ZM104.63,22.33v-8.3c-.3-.32-.5-.88-.5-1.53s.2-1.21.5-1.53v-2.1c0-.32.26-.58.58-.58s.58.26.58.58v2.1c.3.32.5.88.5,1.53s-.2,1.21-.5,1.53v8.3c0,.32-.26.58-.58.58s-.58-.26-.58-.58ZM112.5,58.18c0,.44-.36.8-.8.8h-5.9c-.44,0-.8-.36-.8-.8v-12.1h.93c.44,0,.8-.36.8-.8v-17.96h4.03v17.96c0,.44.36.8.8.8h.93v12.1ZM120.57,58.18c0,.44-.36.8-.8.8h-5.9c-.44,0-.8-.36-.8-.8v-12.1h.93c.44,0,.8-.36.8-.8v-17.96h5.76v30.85ZM128.64,58.18c0,.44-.36.8-.8.8h-5.9c-.44,0-.8-.36-.8-.8v-30.85h5.76v17.96c0,.44.36.8.8.8h.93v12.1ZM136.7,58.18c0,.44-.36.8-.8.8h-5.9c-.44,0-.8-.36-.8-.8v-12.1h.93c.44,0,.8-.36.8-.8v-17.96h4.03v17.96c0,.44.36.8.8.8h.93v12.1ZM136.23,19.42c0-1.13.92-2.05,2.05-2.05s2.05.92,2.05,2.05-.92,2.05-2.05,2.05-2.05-.92-2.05-2.05ZM144.77,58.18c0,.44-.36.8-.8.8h-5.9c-.44,0-.8-.36-.8-.8v-12.1h.93c.44,0,.8-.36.8-.8v-17.96h5.76v30.85ZM143.42,21.47c-1.13,0-2.05-.92-2.05-2.05s.92-2.05,2.05-2.05,2.05.92,2.05,2.05-.92,2.05-2.05,2.05ZM152.83,58.18c0,.44-.36.8-.8.8h-5.9c-.44,0-.8-.36-.8-.8v-30.85h5.76v17.96c0,.44.36.8.8.8h.93v12.1ZM155.14,17.37c1.13,0,2.05.92,2.05,2.05s-.92,2.05-2.05,2.05-2.05-.92-2.05-2.05.92-2.05,2.05-2.05ZM160.9,58.18c0,.44-.36.8-.8.8h-5.9c-.44,0-.8-.36-.8-.8v-12.1h.93c.44,0,.8-.36.8-.8v-17.96h4.03v17.96c0,.44.36.8.8.8h.93v12.1ZM168.96,58.18c0,.44-.36.8-.8.8h-5.9c-.44,0-.8-.36-.8-.8v-12.1h.93c.44,0,.8-.36.8-.8v-17.96h4.03v17.96c0,.44.36.8.8.8h.93v12.1ZM177.03,58.18c0,.44-.36.8-.8.8h-5.9c-.44,0-.8-.36-.8-.8v-12.1h.93c.44,0,.8-.36.8-.8v-17.96h5.76v30.85ZM185.1,58.18c0,.44-.36.8-.8.8h-5.9c-.44,0-.8-.36-.8-.8v-30.85h5.89v17.96c0,.44.36.8.8.8h.8v12.1ZM193.17,58.18c0,.44-.36.8-.8.8h-5.9c-.44,0-.8-.36-.8-.8v-12.1h1.06c.44,0,.8-.36.8-.8v-17.96h4.03v17.96c0,.44.36.8.8.8h.8v12.1ZM201.23,58.18c0,.44-.36.8-.8.8h-5.9c-.44,0-.8-.36-.8-.8v-12.1h1.06c.44,0,.8-.36.8-.8v-17.96h5.63v30.85Z"/></svg>