<?xml version="1.0" encoding="UTF-8"?><svg id="grBatterie" xmlns="http://www.w3.org/2000/svg" viewBox="0 0 256 256"><path id="ahp-icon-battcharge" d="M248.64,103.55h-21.43v-32.14c0-6.91-6.21-12.51-13.86-12.51H18.41c-7.66,0-13.86,5.6-13.86,12.51v113.18c0,6.91,6.21,12.51,13.86,12.51h194.94c7.66,0,13.86-5.6,13.86-12.51v-32.14h21.43c1.56,0,2.82-1.14,2.82-2.54v-43.82c0-1.4-1.26-2.54-2.82-2.54ZM148.93,142.68l-51.16,39.74,23.16-41.52c-12.17-5.3-24.43-11.67-35.8-17.52,6.87-6.6,46.26-44.56,54-52l-16.67,41.44c7.38,2.91,14.68,6.02,21.78,9.58,0,0,18.53,9.54,18.53,9.54l-13.84,10.75Z"/></svg>