<?xml version="1.0" encoding="UTF-8"?><svg id="b" xmlns="http://www.w3.org/2000/svg" viewBox="0 0 256 256"><g id="c"><g id="d"><path id="e" d="M230.96,72.19c-21.31-29.74-53.71-16.87-68.36-8.76-14.65,8.11-34.6,8.76-34.6,8.76,0,0-19.96-.65-34.6-8.76-14.65-8.11-47.05-20.98-68.36,8.76C3.74,101.93-3.81,169.84,9.95,201.8c13.76,31.96,63.92,5.51,73.68-13.67,9.77-19.18,44.37-19.18,44.37-19.18,0,0,34.6,0,44.37,19.18,9.77,19.18,59.92,45.63,73.68,13.67,13.76-31.96,6.21-99.87-15.09-129.61ZM93.75,133.45h-16.9c-.66,0-1.2.54-1.2,1.2v16.9c0,.66-.54,1.2-1.2,1.2h-16.57c-.66,0-1.2-.54-1.2-1.2v-16.9c0-.66-.54-1.2-1.2-1.2h-16.9c-.66,0-1.2-.54-1.2-1.2v-16.57c0-.66.54-1.2,1.2-1.2h16.9c.66,0,1.2-.54,1.2-1.2v-16.9c0-.66.54-1.2,1.2-1.2h16.57c.66,0,1.2.54,1.2,1.2v16.9c0,.66.54,1.2,1.2,1.2h16.9c.66,0,1.2.54,1.2,1.2v16.57c0,.66-.54,1.2-1.2,1.2ZM189.49,91.5c6.07,0,10.99,4.92,10.99,10.99s-4.92,10.99-10.99,10.99-10.99-4.92-10.99-10.99,4.92-10.99,10.99-10.99ZM167.67,135.3c-6.07,0-10.99-4.92-10.99-10.99s4.92-10.99,10.99-10.99,10.99,4.92,10.99,10.99-4.92,10.99-10.99,10.99ZM189.49,157.12c-6.07,0-10.99-4.92-10.99-10.99s4.92-10.99,10.99-10.99,10.99,4.92,10.99,10.99-4.92,10.99-10.99,10.99ZM211.32,135.3c-6.07,0-10.99-4.92-10.99-10.99s4.92-10.99,10.99-10.99,10.99,4.92,10.99,10.99-4.92,10.99-10.99,10.99Z"/><path id="f" d="M85.74,58.69c-4.33-9.96-16.87-13.48-26.93-13.06-8.22.51-15.78,5.07-21.4,10.83,6.46-1.56,12.35-3.72,18.69-4.5,10.32-.42,20.75.77,29.65,6.74Z"/><path id="g" d="M200.26,51.96c6.34.79,12.23,2.94,18.69,4.5-5.62-5.76-13.18-10.32-21.4-10.83-10.06-.42-22.6,3.1-26.93,13.06,8.89-5.96,19.33-7.16,29.65-6.74Z"/></g></g></svg>