<?xml version="1.0" encoding="UTF-8"?><svg id="b" xmlns="http://www.w3.org/2000/svg" viewBox="0 0 256 256"><g id="c"><g id="d"><path id="e" d="M211.5,180.92l-15.68-4.04c-12.86-3.31-27.3.34-35.91,9.07l-10.51,10.65c-2.11,2.13-3.72,4.41-4.88,6.75v-35.96c0-.33-.03-.66-.05-.98,51.07-6.13,90.16-40.32,90.16-81.58,0-45.6-47.74-82.56-106.63-82.56S21.37,39.24,21.37,84.84c0,41.26,39.09,75.45,90.16,81.58-.02.33-.05.65-.05.98v33.2c-.92-1.37-2.01-2.71-3.27-3.99l-10.51-10.65c-8.61-8.73-23.05-12.38-35.91-9.07l-15.68,4.04c-20.58,5.3-27.64,25.31-13.85,39.29l10.51,10.65c8.61,8.73,23.05,12.38,35.91,9.07l15.68-4.04c7.77-2,13.6-6.09,17.12-11.17v12.48c0,9.12,7.4,16.52,16.52,16.52s16.52-7.4,16.52-16.52v-15.18c3.18,6.3,9.63,11.52,18.73,13.86l15.68,4.04c12.86,3.31,27.3-.34,35.91-9.07l10.51-10.65c13.79-13.98,6.73-33.99-13.85-39.29ZM90.36,213.56c-.24.93-1.08,1.55-2,1.55-.17,0-.34-.02-.51-.06l-36.26-9.28c-1.11-.28-1.77-1.41-1.49-2.51.28-1.11,1.41-1.77,2.51-1.49l36.26,9.28c1.11.28,1.77,1.41,1.49,2.51ZM128,148.98c-45.75,0-82.84-28.72-82.84-64.14S82.25,20.69,128,20.69s82.84,28.72,82.84,64.14-37.09,64.14-82.84,64.14ZM206.01,205.76l-36.26,9.28c-.17.04-.34.06-.51.06-.92,0-1.76-.62-2-1.55-.28-1.11.38-2.23,1.49-2.51l36.26-9.28c1.11-.29,2.23.38,2.51,1.49.28,1.11-.38,2.23-1.49,2.51Z"/><path id="f" d="M128,43.28c-29.64,0-53.67,18.61-53.67,41.56s24.03,41.56,53.67,41.56,53.67-18.6,53.67-41.56-24.03-41.56-53.67-41.56ZM109.52,103.59c-3.21,0-5.81-7.95-5.81-17.76s2.6-17.76,5.81-17.76,5.81,7.95,5.81,17.76-2.6,17.76-5.81,17.76ZM146.04,103.59c-3.21,0-5.81-7.95-5.81-17.76s2.6-17.76,5.81-17.76,5.81,7.95,5.81,17.76-2.6,17.76-5.81,17.76Z"/></g></g></svg>