<?xml version="1.0" encoding="UTF-8"?><svg id="b" xmlns="http://www.w3.org/2000/svg" viewBox="0 0 256 256"><g id="c"><g id="d"><g id="e"><path d="M232.53,159.32c-13.55,45.39-55.69,77.77-104.53,77.77s-90.98-32.37-104.53-77.77h67.45c9.11,10.8,22.6,17.22,37.08,17.22s27.97-6.41,37.08-17.22h67.45M252.15,143.32h-95.45c-5.48,10.24-16.28,17.22-28.71,17.22s-23.23-6.97-28.71-17.22H3.85c7.56,61.86,60.26,109.77,124.15,109.77s116.6-47.91,124.15-109.77h0Z"/></g><g id="f"><path d="M128,18.91c48.84,0,90.98,32.37,104.53,77.77h-67.45c-9.11-10.8-22.6-17.22-37.08-17.22s-27.97,6.41-37.08,17.22H23.47c13.55-45.39,55.69-77.77,104.53-77.77M128,2.91C64.1,2.91,11.4,50.82,3.85,112.68h95.45c5.48-10.24,16.28-17.22,28.71-17.22s23.23,6.97,28.71,17.22h95.45C244.6,50.82,191.9,2.91,128,2.91h0Z"/></g></g></g></svg>