<?xml version="1.0" encoding="UTF-8"?><svg id="b" xmlns="http://www.w3.org/2000/svg" viewBox="0 0 256 256"><g id="c"><g id="d"><path id="e" d="M130.48,254.64c-69.83,0-126.64-56.81-126.64-126.64S60.65,1.36,130.48,1.36c33.83,0,65.63,13.17,89.55,37.09l3.35,3.35-86.2,86.2,86.2,86.2-3.35,3.35c-23.92,23.92-55.72,37.09-89.55,37.09ZM130.48,10.83C65.87,10.83,13.31,63.39,13.31,128s52.56,117.17,117.17,117.17c29.71,0,57.74-10.99,79.44-31.04l-86.13-86.13,86.13-86.13c-21.7-20.05-49.72-31.03-79.44-31.03Z"/><circle id="f" cx="132.35" cy="58.33" r="14.47"/><circle id="g" cx="168.96" cy="128" r="10.07"/><circle id="h" cx="203.56" cy="128" r="10.07"/><circle id="i" cx="237.35" cy="128" r="10.07"/></g></g></svg>