<?xml version="1.0" encoding="UTF-8"?><svg id="b" xmlns="http://www.w3.org/2000/svg" viewBox="0 0 256 256"><g id="c"><g id="d"><path id="e" d="M223.38,41.8l-3.35-3.35C196.11,14.53,164.31,1.36,130.48,1.36,60.65,1.36,3.84,58.17,3.84,128s56.81,126.64,126.64,126.64c33.83,0,65.63-13.17,89.55-37.09l3.35-3.35-86.2-86.2,86.2-86.2ZM117.88,58.33c0-7.99,6.48-14.47,14.47-14.47s14.47,6.48,14.47,14.47-6.48,14.47-14.47,14.47-14.47-6.48-14.47-14.47Z"/><circle id="f" cx="168.96" cy="128" r="10.07"/><circle id="g" cx="203.56" cy="128" r="10.07"/><circle id="h" cx="237.35" cy="128" r="10.07"/></g></g></svg>