<?xml version="1.0" encoding="UTF-8"?><svg id="b" xmlns="http://www.w3.org/2000/svg" viewBox="0 0 256 256"><g id="c"><g id="d"><g id="e"><path d="M129.04,19.56c17.83,0,35.33,4.87,52.02,14.46,11.18,6.43,20.95,13.95,29.28,22.53l-.86,1.46c-9.32,15.79-11.16,35.21-5.04,53.28,5.95,17.58,18.57,31.46,34.67,38.16-5.2,14.48-15.8,25.78-32.35,34.53-.95.5-2.02,1-3.15,1.53-.22.1-.44.2-.67.31-2.46-8.51-8.13-14.91-16.68-18.72-4.18-1.86-8.08-3.26-11.92-4.27-14.52-3.82-29.06-4.38-43.12-4.91l-2.94-.11-.62-.02-.62.04c-3.19.23-6.39.44-9.58.66-7.46.49-15.16,1-22.82,1.8-10.94,1.13-20.05,3.83-27.84,8.25-7.41,4.2-12.08,9.94-13.89,17.05-10.12-4.81-18.13-10.6-24.42-17.62-4.97-5.55-8.66-11.52-11.09-17.97,17.53-7.76,30.28-22.2,35.9-40.66,5.52-18.12,3.21-37.18-6.34-52.29l-.41-.65c.54-.56,1.09-1.13,1.64-1.69,16.77-16.98,36.48-27.99,58.57-32.72,7.48-1.6,14.96-2.41,22.25-2.41h0M128.2,155.87c36.11,0,65.59-29.37,65.72-65.47.06-17.68-6.73-34.28-19.14-46.76-12.36-12.43-28.84-19.29-46.4-19.32h-.12c-36.26,0-65.8,29.45-65.84,65.64-.05,36.29,29.42,65.85,65.68,65.91h.1M129.03,8.56c-8.05,0-16.24.88-24.55,2.66-24.96,5.34-46.24,17.67-64.1,35.75C19.51,68.1,5.52,92.82,3.12,123.02c-1.56,19.73,3.84,37.36,17.18,52.28,8.66,9.68,19.33,16.51,31.12,21.7,1.74.77,2.41,1.68,2.46,3.62.08,2.86.38,5.75,1,8.54,3.74,16.74,14.73,27.08,30.07,33.31,13.64,5.54,28.04,6.77,42.74,6.95,13.31-.2,26.68-1.19,39.49-5.74,20.57-7.32,33.76-20.64,34.89-43.61.04-.85,1-1.97,1.82-2.42,2.59-1.44,5.37-2.54,7.99-3.92,17.83-9.42,31.64-22.58,38.13-42.19,5.6-16.92,4.49-33.92-.85-50.61-10.77-33.68-32.2-58.92-62.64-76.42-18.24-10.49-37.46-15.93-57.51-15.93h0ZM128.2,144.87s-.05,0-.08,0c-30.39-.04-54.75-24.48-54.7-54.89.04-30.32,24.48-54.66,54.84-54.66.03,0,.06,0,.09,0,30.3.05,54.68,24.64,54.57,55.04-.11,30.19-24.53,54.51-54.72,54.51h0ZM12.94,139.94c-7.27-14.66,6.15-56.64,24.73-77.03,15.65,24.78,6.74,63.11-24.73,77.03h0ZM243.76,139.47c-27.98-11.32-41-48.45-24.81-75.87,15.52,11.61,30.99,58.93,24.81,75.87h0ZM126.18,240.74c-12.39,0-24.64-1.36-36.47-5.73-12.88-4.76-22.63-12.77-26.18-26.74-1.64-6.44-1.45-12.92-.08-19.37,1.08-5.08,4.5-8.35,8.8-10.79,7.3-4.14,15.34-6.03,23.55-6.88,10.66-1.1,21.38-1.64,32.07-2.42,14.72.58,29.38.9,43.69,4.67,3.5.92,6.93,2.21,10.24,3.68,7.21,3.22,10.88,8.85,11.47,16.81,1.38,18.75-6.94,32.45-24.58,39.9-10.66,4.5-21.91,6.13-33.35,6.65-3.06.14-6.11.22-9.15.22h0Z"/></g><path id="f" d="M109.19,200.49c0,3.93.04,7.86-.01,11.79-.05,4.13-2.41,6.57-6.3,6.63-3.98.07-6.53-2.21-6.59-6.32-.11-8.15-.11-16.3,0-24.44.06-4.16,2.52-6.37,6.57-6.31,3.97.06,6.27,2.41,6.32,6.57.05,4.03.01,8.05.01,12.08Z"/><path id="g" d="M147.17,200.35c0-4.03-.04-8.05.01-12.08.06-4,2.33-6.32,6.17-6.43,4.07-.12,6.64,2.07,6.71,6.16.12,8.24.12,16.49,0,24.73-.06,4.05-2.7,6.3-6.71,6.18-3.75-.11-6.1-2.53-6.16-6.48-.06-4.02-.01-8.05-.01-12.08Z"/></g></g></svg>