<?xml version="1.0" encoding="UTF-8"?><svg id="b" xmlns="http://www.w3.org/2000/svg" viewBox="0 0 256 256"><g id="c"><path id="d" d="M198.78,6.04H57.22c-4.78,0-8.66,3.89-8.66,8.66v226.6c0,4.78,3.89,8.66,8.66,8.66h127.26c12.67,0,22.97-10.3,22.97-22.97V14.7c0-4.78-3.89-8.66-8.66-8.66ZM64.14,37.08c0-3.86,3.14-7.01,7.01-7.01h112.11c3.86,0,7.01,3.14,7.01,7.01v73.77c0,8.1-6.59,14.68-14.68,14.68h-104.43c-3.86,0-7.01-3.14-7.01-7.01V37.08ZM99.83,199.9h-16.22v-18.08h-18.08v-16.22h18.08v-18.08h16.22v18.08h18.08v16.22h-18.08v18.08ZM117.34,216.08l-14.42,6.2c-.28.12-.56.17-.85.17-.83,0-1.62-.49-1.97-1.3-.47-1.09.04-2.35,1.12-2.82l14.42-6.2c1.09-.47,2.35.04,2.82,1.12.47,1.09-.04,2.35-1.12,2.82ZM140.06,216.08l-14.42,6.2c-.28.12-.56.17-.85.17-.83,0-1.62-.49-1.97-1.3-.47-1.09.04-2.35,1.12-2.82l14.42-6.2c1.09-.47,2.35.04,2.82,1.12.47,1.09-.04,2.35-1.12,2.82ZM159.58,193.49c-5.73,0-10.39-4.66-10.39-10.39s4.66-10.39,10.39-10.39,10.39,4.66,10.39,10.39-4.66,10.39-10.39,10.39ZM184.99,182.57c-5.73,0-10.39-4.66-10.39-10.39s4.66-10.39,10.39-10.39,10.39,4.66,10.39,10.39-4.66,10.39-10.39,10.39Z"/></g></svg>