<?xml version="1.0" encoding="UTF-8"?><svg id="b" xmlns="http://www.w3.org/2000/svg" viewBox="0 0 256 256"><g id="c"><g id="d"><path id="e" d="M57.22,10.24h141.57c2.46,0,4.46,2,4.46,4.46v212.3c0,10.36-8.41,18.77-18.77,18.77H57.22c-2.46,0-4.46-2-4.46-4.46V14.7c0-2.46,2-4.46,4.46-4.46Z" fill="none" stroke="#000" stroke-miterlimit="10" stroke-width="8.41"/><g id="f"><path d="M183.26,36.76c.17,0,.31.14.31.31v73.77c0,4.41-3.58,7.99-7.99,7.99h-104.43c-.17,0-.31-.14-.31-.31V37.08c0-.17.14-.31.31-.31h112.11M183.26,30.07h-112.11c-3.86,0-7.01,3.14-7.01,7.01v81.45c0,3.86,3.14,7.01,7.01,7.01h104.43c8.1,0,14.68-6.59,14.68-14.68V37.08c0-3.86-3.14-7.01-7.01-7.01h0Z"/></g><circle id="g" cx="159.58" cy="183.11" r="6.94" stroke="#000" stroke-miterlimit="10" stroke-width="6.89"/><circle id="h" cx="184.99" cy="172.18" r="6.94" stroke="#000" stroke-miterlimit="10" stroke-width="6.89"/><polygon id="i" points="117.9 165.61 99.83 165.61 99.83 147.53 83.61 147.53 83.61 165.61 65.54 165.61 65.54 181.82 83.61 181.82 83.61 199.9 99.83 199.9 99.83 181.82 117.9 181.82 117.9 165.61"/><g id="j"><line x1="102.07" y1="220.31" x2="116.49" y2="214.11" fill="none" stroke="#000" stroke-linecap="round" stroke-miterlimit="10" stroke-width="4.29"/></g><g id="k"><line x1="124.79" y1="220.31" x2="139.21" y2="214.11" fill="none" stroke="#000" stroke-linecap="round" stroke-miterlimit="10" stroke-width="4.29"/></g></g></g></svg>