<?xml version="1.0" encoding="UTF-8"?><svg id="b" xmlns="http://www.w3.org/2000/svg" viewBox="0 0 256 256"><g id="c"><g id="d"><path id="e" d="M127.71,249.4c-14.71-.18-29.1-1.41-42.74-6.95-15.35-6.23-26.34-16.57-30.07-33.31-.62-2.79-.93-5.68-1-8.54-.05-1.93-.72-2.85-2.46-3.61-11.79-5.19-22.46-12.02-31.12-21.7C6.96,160.38,1.56,142.74,3.12,123.02c2.39-30.2,16.39-54.91,37.26-76.05,17.85-18.08,39.14-30.41,64.1-35.75,29.01-6.21,56.5-1.43,82.06,13.27,30.44,17.5,51.87,42.74,62.64,76.42,5.34,16.7,6.45,33.7.85,50.61-6.49,19.61-20.3,32.77-38.13,42.19-2.62,1.39-5.4,2.48-7.99,3.92-.83.46-1.78,1.57-1.82,2.42-1.14,22.97-14.32,36.29-34.89,43.61-12.81,4.55-26.18,5.54-39.49,5.74ZM128.12,144.87c30.22.04,54.69-24.3,54.8-54.51.11-30.4-24.27-54.98-54.57-55.04-30.41-.05-54.9,24.31-54.94,54.66-.04,30.41,24.32,54.85,54.7,54.89ZM127.86,168.8c-10.69.78-21.41,1.32-32.07,2.42-8.21.85-16.25,2.74-23.55,6.88-4.3,2.44-7.72,5.71-8.8,10.79-1.38,6.46-1.56,12.94.08,19.37,3.55,13.97,13.3,21.98,26.18,26.74,14.74,5.45,30.12,6.22,45.62,5.51,11.44-.52,22.69-2.14,33.35-6.65,17.64-7.45,25.96-21.15,24.58-39.9-.59-7.97-4.25-13.6-11.47-16.81-3.31-1.47-6.74-2.76-10.24-3.68-14.31-3.77-28.97-4.09-43.69-4.67ZM37.68,62.91c-18.58,20.39-32.01,62.37-24.73,77.03,31.47-13.92,40.38-52.26,24.73-77.03ZM243.76,139.47c6.18-16.95-9.3-64.27-24.81-75.87-16.19,27.43-3.17,64.55,24.81,75.87Z"/><path id="f" d="M109.19,200.49c0,3.93.04,7.86-.01,11.79-.05,4.13-2.41,6.57-6.3,6.63-3.98.07-6.53-2.21-6.59-6.32-.11-8.15-.11-16.3,0-24.44.06-4.16,2.52-6.37,6.57-6.31,3.97.06,6.27,2.41,6.32,6.57.05,4.03.01,8.05.01,12.08Z"/><path id="g" d="M147.17,200.35c0-4.03-.04-8.05.01-12.08.06-4,2.33-6.32,6.17-6.43,4.07-.12,6.64,2.07,6.71,6.16.12,8.24.12,16.49,0,24.73-.06,4.05-2.7,6.3-6.71,6.18-3.75-.11-6.1-2.53-6.16-6.48-.06-4.02-.01-8.05-.01-12.08Z"/></g></g></svg>