<?xml version="1.0" encoding="UTF-8"?><svg id="c" xmlns="http://www.w3.org/2000/svg" viewBox="0 0 174 166"><rect id="d" x="12.22" y="51.84" width="149.56" height="101.83" rx="5.81" ry="5.81"/><path id="e" d="M161.12,161.89H12.88c-4.9,0-8.88-3.98-8.88-8.88V52.5c0-4.9,3.98-8.88,8.88-8.88h148.24c4.9,0,8.88,3.98,8.88,8.88v100.5c0,4.9-3.98,8.88-8.88,8.88ZM12.88,50.52c-1.1,0-1.99.89-1.99,1.99v100.5c0,1.1.89,1.99,1.99,1.99h148.24c1.1,0,1.99-.89,1.99-1.99V52.5c0-1.1-.89-1.99-1.99-1.99H12.88ZM162.86,42.3H11.14c-3.5,0-6.35-2.85-6.35-6.35V10.46c0-3.5,2.85-6.35,6.35-6.35h151.72c3.5,0,6.35,2.85,6.35,6.35v25.49c0,3.5-2.85,6.35-6.35,6.35ZM11.14,9.41c-.57,0-1.04.47-1.04,1.04v25.49c0,.57.47,1.04,1.04,1.04h151.72c.57,0,1.04-.47,1.04-1.04V10.46c0-.57-.47-1.04-1.04-1.04H11.14ZM30.78,18.76c2.45,0,4.44,1.99,4.44,4.44s-1.99,4.44-4.44,4.44-4.44-1.99-4.44-4.44,1.99-4.44,4.44-4.44M30.78,14.72c-4.69,0-8.49,3.8-8.49,8.49s3.8,8.49,8.49,8.49,8.49-3.8,8.49-8.49-3.8-8.49-8.49-8.49h0ZM67.68,15.25c-4.39,0-7.96,3.56-7.96,7.96s3.56,7.96,7.96,7.96,7.96-3.56,7.96-7.96-3.56-7.96-7.96-7.96ZM87,15.25c-4.39,0-7.96,3.56-7.96,7.96s3.56,7.96,7.96,7.96,7.96-3.56,7.96-7.96-3.56-7.96-7.96-7.96ZM106.32,15.25c-4.39,0-7.96,3.56-7.96,7.96s3.56,7.96,7.96,7.96,7.96-3.56,7.96-7.96-3.56-7.96-7.96-7.96ZM150.64,19.49c-2.05,0-3.71,1.66-3.71,3.71s1.66,3.71,3.71,3.71,3.71-1.66,3.71-3.71-1.66-3.71-3.71-3.71Z"/></svg>