<?xml version="1.0" encoding="UTF-8"?><svg id="c" xmlns="http://www.w3.org/2000/svg" viewBox="0 0 216 216"><path d="M167.93,24.34c0-2.05,1.66-3.71,3.71-3.71s3.71,1.66,3.71,3.71-1.66,3.71-3.71,3.71-3.71-1.66-3.71-3.71ZM43.3,24.34c0-4.69,3.8-8.49,8.49-8.49s8.49,3.8,8.49,8.49-3.8,8.49-8.49,8.49-8.49-3.8-8.49-8.49ZM47.34,24.34c0,2.45,1.99,4.44,4.44,4.44s4.44-1.99,4.44-4.44-1.99-4.44-4.44-4.44-4.44,1.99-4.44,4.44ZM25.8,37.08V11.59c0-3.5,2.85-6.35,6.35-6.35h151.72c3.5,0,6.35,2.85,6.35,6.35v25.49c0,3.5-2.85,6.35-6.35,6.35H32.14c-3.5,0-6.35-2.85-6.35-6.35ZM31.1,37.08c0,.57.47,1.04,1.04,1.04h151.72c.57,0,1.04-.47,1.04-1.04V11.59c0-.57-.47-1.04-1.04-1.04H32.14c-.57,0-1.04.47-1.04,1.04v25.49ZM191,53.64v148.24c0,4.9-3.98,8.88-8.88,8.88H33.88c-4.9,0-8.88-3.98-8.88-8.88V53.64c0-4.9,3.98-8.88,8.88-8.88h148.24c4.9,0,8.88,3.98,8.88,8.88ZM184.11,53.64c0-1.1-.89-1.99-1.99-1.99H33.88c-1.1,0-1.99.89-1.99,1.99v148.24c0,1.1.89,1.99,1.99,1.99h148.24c1.1,0,1.99-.89,1.99-1.99V53.64ZM88.68,32.29c4.39,0,7.96-3.56,7.96-7.96s-3.56-7.96-7.96-7.96-7.96,3.56-7.96,7.96,3.56,7.96,7.96,7.96ZM108,32.29c4.39,0,7.96-3.56,7.96-7.96s-3.56-7.96-7.96-7.96-7.96,3.56-7.96,7.96,3.56,7.96,7.96,7.96ZM127.32,32.29c4.39,0,7.96-3.56,7.96-7.96s-3.56-7.96-7.96-7.96-7.96,3.56-7.96,7.96,3.56,7.96,7.96,7.96ZM103.23,92.22c0,18.16-14.72,32.88-32.88,32.88s-32.88-14.72-32.88-32.88,14.72-32.88,32.88-32.88,32.88,14.72,32.88,32.88ZM97.39,92.22c0-14.91-12.13-27.05-27.05-27.05s-27.05,12.13-27.05,27.05,12.13,27.05,27.05,27.05,27.05-12.13,27.05-27.05ZM90.5,92.22c0,11.13-9.02,20.15-20.15,20.15s-20.15-9.02-20.15-20.15,9.02-20.15,20.15-20.15,20.15,9.02,20.15,20.15ZM85.73,92.22c0-8.48-6.9-15.38-15.38-15.38s-15.38,6.9-15.38,15.38,6.9,15.38,15.38,15.38,15.38-6.9,15.38-15.38ZM179.6,92.22c0,18.16-14.72,32.88-32.88,32.88s-32.88-14.72-32.88-32.88,14.72-32.88,32.88-32.88,32.88,14.72,32.88,32.88ZM173.76,92.22c0-14.91-12.13-27.05-27.05-27.05s-27.05,12.13-27.05,27.05,12.13,27.05,27.05,27.05,27.05-12.13,27.05-27.05ZM166.87,92.22c0,11.13-9.02,20.15-20.15,20.15s-20.15-9.02-20.15-20.15,9.02-20.15,20.15-20.15,20.15,9.02,20.15,20.15ZM162.1,92.22c0-8.48-6.9-15.38-15.38-15.38s-15.38,6.9-15.38,15.38,6.9,15.38,15.38,15.38,15.38-6.9,15.38-15.38ZM103.23,162.76c0,18.16-14.72,32.88-32.88,32.88s-32.88-14.72-32.88-32.88,14.72-32.88,32.88-32.88,32.88,14.72,32.88,32.88ZM97.39,162.76c0-14.91-12.13-27.05-27.05-27.05s-27.05,12.13-27.05,27.05,12.13,27.05,27.05,27.05,27.05-12.13,27.05-27.05ZM90.5,162.76c0,11.13-9.02,20.15-20.15,20.15s-20.15-9.02-20.15-20.15,9.02-20.15,20.15-20.15,20.15,9.02,20.15,20.15ZM85.73,162.76c0-8.48-6.9-15.38-15.38-15.38s-15.38,6.9-15.38,15.38,6.9,15.38,15.38,15.38,15.38-6.9,15.38-15.38ZM179.6,162.76c0,18.16-14.72,32.88-32.88,32.88s-32.88-14.72-32.88-32.88,14.72-32.88,32.88-32.88,32.88,14.72,32.88,32.88ZM173.76,162.76c0-14.91-12.13-27.05-27.05-27.05s-27.05,12.13-27.05,27.05,12.13,27.05,27.05,27.05,27.05-12.13,27.05-27.05ZM166.87,162.76c0,11.13-9.02,20.15-20.15,20.15s-20.15-9.02-20.15-20.15,9.02-20.15,20.15-20.15,20.15,9.02,20.15,20.15ZM162.1,162.76c0-8.48-6.9-15.38-15.38-15.38s-15.38,6.9-15.38,15.38,6.9,15.38,15.38,15.38,15.38-6.9,15.38-15.38Z"/></svg>