<?xml version="1.0" encoding="UTF-8"?><svg id="c" xmlns="http://www.w3.org/2000/svg" viewBox="0 0 74 216"><g id="d"><rect x="25.89" y="93.58" width="22.64" height="106.08"/><rect x="10.79" y="57.94" width="52.83" height="33.96" rx="16.98" ry="16.98"/><path d="M60.3,55.43c3.92-5.73,6.26-12.93,6.26-20.76C66.56,16.03,53.33.92,37,.92S7.44,16.03,7.44,34.67c0,7.83,2.34,15.03,6.26,20.76h46.61Z"/><path d="M44.92,200.84h-15.85c-1.99,0-3.61,1.28-3.61,2.86h0c0,.67.68,1.21,1.52,1.21h1.47l2.14,10.18h12.81l2.14-10.18h1.47c.84,0,1.52-.54,1.52-1.21h0c0-1.58-1.61-2.86-3.61-2.86Z"/></g></svg>