<?xml version="1.0" encoding="UTF-8"?><svg id="c" xmlns="http://www.w3.org/2000/svg" viewBox="0 0 74 216"><g id="d"><path d="M67.67,18.2v-3.04c0,1.13-.92,2.04-2.04,2.04s-2.04-.92-2.04-2.04c0-.67.33-1.26.83-1.64h2.43c.5.37.83.96.83,1.64v-1.64c1.36,0,2.45-1.1,2.45-2.46v-1.01c0-4.18-3.39-7.57-7.57-7.57H11.45c-4.18,0-7.57,3.39-7.57,7.57v1.01c0,1.36,1.1,2.46,2.46,2.46h2.03c.5.37.83.96.83,1.64,0,1.13-.92,2.04-2.04,2.04-.29,0-.57-.06-.82-.17v1.82c.25.34.41.76.41,1.22s-.16.88-.41,1.22v1.82c.25-.11.53-.17.82-.17,1.13,0,2.04.92,2.04,2.04s-.92,2.04-2.04,2.04c-.29,0-.57-.06-.82-.17v1.82c.25.34.41.76.41,1.22s-.16.88-.41,1.22v1.82c.25-.11.53-.17.82-.17,1.13,0,2.04.92,2.04,2.04s-.92,2.04-2.04,2.04c-.29,0-.57-.06-.82-.17v1.82c.25.34.41.76.41,1.22s-.16.88-.41,1.22v1.82c.25-.11.53-.17.82-.17,1.13,0,2.04.92,2.04,2.04s-.92,2.04-2.04,2.04c-.29,0-.57-.06-.82-.17v1.82c.25.34.41.76.41,1.22s-.16.88-.41,1.22v1.82c.25-.11.53-.17.82-.17,1.13,0,2.04.92,2.04,2.04s-.92,2.04-2.04,2.04c-.29,0-.57-.06-.82-.17v1.82c.25.34.41.76.41,1.22s-.16.88-.41,1.22v1.82c.25-.11.53-.17.82-.17,1.13,0,2.04.92,2.04,2.04s-.92,2.04-2.04,2.04c-.29,0-.57-.06-.82-.17v1.82c.25.34.41.76.41,1.22s-.16.88-.41,1.22v1.82c.25-.11.53-.17.82-.17,1.13,0,2.04.92,2.04,2.04s-.92,2.04-2.04,2.04c-.29,0-.57-.06-.82-.17v1.82c.25.34.41.76.41,1.22s-.16.88-.41,1.22v1.82c.25-.11.53-.17.82-.17,1.13,0,2.04.92,2.04,2.04s-.92,2.04-2.04,2.04c-.29,0-.57-.06-.82-.17v1.82c.25.34.41.76.41,1.22s-.16.88-.41,1.22v1.82c.25-.11.53-.17.82-.17,1.13,0,2.04.92,2.04,2.04s-.92,2.04-2.04,2.04c-.29,0-.57-.06-.82-.17v1.82c.25.34.41.76.41,1.22s-.16.88-.41,1.22v1.82c.25-.11.53-.17.82-.17,1.13,0,2.04.92,2.04,2.04s-.92,2.04-2.04,2.04c-.29,0-.57-.06-.82-.17v1.82c.25.34.41.76.41,1.22s-.16.88-.41,1.22v1.82c.25-.11.53-.17.82-.17,1.13,0,2.04.92,2.04,2.04s-.92,2.04-2.04,2.04c-.29,0-.57-.06-.82-.17v1.82c.25.34.41.76.41,1.22s-.16.88-.41,1.22v1.82c.25-.11.53-.17.82-.17,1.13,0,2.04.92,2.04,2.04s-.92,2.04-2.04,2.04c-.29,0-.57-.06-.82-.17v1.82c.25.34.41.76.41,1.22s-.16.88-.41,1.22v1.82c.25-.11.53-.17.82-.17,1.13,0,2.04.92,2.04,2.04s-.92,2.04-2.04,2.04c-.29,0-.57-.06-.82-.17v1.82c.25.34.41.76.41,1.22,0,.29-.07.57-.18.82h-.25c-1.34,0-2.43,1.09-2.43,2.43v30.48c0,4.18,3.39,7.57,7.57,7.57h3.47c.01,2.03,1.66,3.68,3.7,3.68h7.34v28.72c0,1.08.87,1.95,1.95,1.95h18.19c1.08,0,1.95-.87,1.95-1.95v-28.72h7.34c2.04,0,3.69-1.65,3.7-3.68h3.47c4.18,0,7.57-3.39,7.57-7.57v-30.48c0-1.34-1.09-2.43-2.43-2.43h-1.08c-.11-.25-.17-.53-.17-.82,0-.84.51-1.56,1.23-1.87v-3.04c0,1.13-.92,2.04-2.04,2.04s-2.04-.92-2.04-2.04.92-2.04,2.04-2.04,2.04.92,2.04,2.04v-3.04c-.72-.32-1.23-1.03-1.23-1.87s.51-1.56,1.23-1.87v-3.04c0,1.13-.92,2.04-2.04,2.04s-2.04-.92-2.04-2.04.92-2.04,2.04-2.04,2.04.92,2.04,2.04v-3.04c-.72-.32-1.23-1.03-1.23-1.87s.51-1.56,1.23-1.87v-3.04c0,1.13-.92,2.04-2.04,2.04s-2.04-.92-2.04-2.04.92-2.04,2.04-2.04,2.04.92,2.04,2.04v-3.04c-.72-.32-1.23-1.03-1.23-1.87s.51-1.56,1.23-1.87v-3.04c0,1.13-.92,2.04-2.04,2.04s-2.04-.92-2.04-2.04.92-2.04,2.04-2.04,2.04.92,2.04,2.04v-3.04c-.72-.32-1.23-1.03-1.23-1.87s.51-1.56,1.23-1.87v-3.04c0,1.13-.92,2.04-2.04,2.04s-2.04-.92-2.04-2.04.92-2.04,2.04-2.04,2.04.92,2.04,2.04v-3.04c-.72-.32-1.23-1.03-1.23-1.87s.51-1.56,1.23-1.87v-3.04c0,1.13-.92,2.04-2.04,2.04s-2.04-.92-2.04-2.04.92-2.04,2.04-2.04,2.04.92,2.04,2.04v-3.04c-.72-.32-1.23-1.03-1.23-1.87s.51-1.56,1.23-1.87v-3.04c0,1.13-.92,2.04-2.04,2.04s-2.04-.92-2.04-2.04.92-2.04,2.04-2.04,2.04.92,2.04,2.04v-3.04c-.72-.32-1.23-1.03-1.23-1.87s.51-1.56,1.23-1.87v-3.04c0,1.13-.92,2.04-2.04,2.04s-2.04-.92-2.04-2.04.92-2.04,2.04-2.04,2.04.92,2.04,2.04v-3.04c-.72-.32-1.23-1.03-1.23-1.87s.51-1.56,1.23-1.87v-3.04c0,1.13-.92,2.04-2.04,2.04s-2.04-.92-2.04-2.04.92-2.04,2.04-2.04,2.04.92,2.04,2.04v-3.04c-.72-.32-1.23-1.03-1.23-1.87s.51-1.56,1.23-1.87v-3.04c0,1.13-.92,2.04-2.04,2.04s-2.04-.92-2.04-2.04.92-2.04,2.04-2.04,2.04.92,2.04,2.04v-3.04c-.72-.32-1.23-1.03-1.23-1.87s.51-1.56,1.23-1.87v-3.04c0,1.13-.92,2.04-2.04,2.04s-2.04-.92-2.04-2.04.92-2.04,2.04-2.04,2.04.92,2.04,2.04v-3.04c-.72-.32-1.23-1.03-1.23-1.87s.51-1.56,1.23-1.87v-3.04c0,1.13-.92,2.04-2.04,2.04s-2.04-.92-2.04-2.04.92-2.04,2.04-2.04,2.04.92,2.04,2.04v-3.04c-.72-.32-1.23-1.03-1.23-1.87s.51-1.56,1.23-1.87ZM59.09,13.53h2.43c.5.37.83.96.83,1.64,0,1.13-.92,2.04-2.04,2.04s-2.04-.92-2.04-2.04c0-.67.33-1.26.83-1.64ZM52.95,93.69c0-1.13.92-2.04,2.04-2.04s2.04.92,2.04,2.04-.92,2.04-2.04,2.04-2.04-.92-2.04-2.04ZM57.04,103.5c0,1.13-.92,2.04-2.04,2.04s-2.04-.92-2.04-2.04.92-2.04,2.04-2.04,2.04.92,2.04,2.04ZM52.95,83.87c0-1.13.92-2.04,2.04-2.04s2.04.92,2.04,2.04-.92,2.04-2.04,2.04-2.04-.92-2.04-2.04ZM52.95,74.06c0-1.13.92-2.04,2.04-2.04s2.04.92,2.04,2.04-.92,2.04-2.04,2.04-2.04-.92-2.04-2.04ZM52.95,64.24c0-1.13.92-2.04,2.04-2.04s2.04.92,2.04,2.04-.92,2.04-2.04,2.04-2.04-.92-2.04-2.04ZM52.95,54.43c0-1.13.92-2.04,2.04-2.04s2.04.92,2.04,2.04-.92,2.04-2.04,2.04-2.04-.92-2.04-2.04ZM52.95,44.61c0-1.13.92-2.04,2.04-2.04s2.04.92,2.04,2.04-.92,2.04-2.04,2.04-2.04-.92-2.04-2.04ZM52.95,34.8c0-1.13.92-2.04,2.04-2.04s2.04.92,2.04,2.04-.92,2.04-2.04,2.04-2.04-.92-2.04-2.04ZM54.58,39.71c0,1.13-.92,2.04-2.04,2.04s-2.04-.92-2.04-2.04.92-2.04,2.04-2.04,2.04.92,2.04,2.04ZM54.58,49.52c0,1.13-.92,2.04-2.04,2.04s-2.04-.92-2.04-2.04.92-2.04,2.04-2.04,2.04.92,2.04,2.04ZM54.58,59.33c0,1.13-.92,2.04-2.04,2.04s-2.04-.92-2.04-2.04.92-2.04,2.04-2.04,2.04.92,2.04,2.04ZM54.58,69.15c0,1.13-.92,2.04-2.04,2.04s-2.04-.92-2.04-2.04.92-2.04,2.04-2.04,2.04.92,2.04,2.04ZM54.58,78.96c0,1.13-.92,2.04-2.04,2.04s-2.04-.92-2.04-2.04.92-2.04,2.04-2.04,2.04.92,2.04,2.04ZM54.58,88.78c0,1.13-.92,2.04-2.04,2.04s-2.04-.92-2.04-2.04.92-2.04,2.04-2.04,2.04.92,2.04,2.04ZM54.58,98.59c0,1.13-.92,2.04-2.04,2.04s-2.04-.92-2.04-2.04.92-2.04,2.04-2.04,2.04.92,2.04,2.04ZM54.58,108.41c0,1.13-.92,2.04-2.04,2.04s-2.04-.92-2.04-2.04.92-2.04,2.04-2.04,2.04.92,2.04,2.04ZM54.58,118.22c0,1.13-.92,2.04-2.04,2.04s-2.04-.92-2.04-2.04.92-2.04,2.04-2.04,2.04.92,2.04,2.04ZM52.95,113.32c0-1.13.92-2.04,2.04-2.04s2.04.92,2.04,2.04-.92,2.04-2.04,2.04-2.04-.92-2.04-2.04ZM57.86,116.18c1.13,0,2.04.92,2.04,2.04s-.92,2.04-2.04,2.04-2.04-.92-2.04-2.04.92-2.04,2.04-2.04ZM55.81,108.41c0-1.13.92-2.04,2.04-2.04s2.04.92,2.04,2.04-.92,2.04-2.04,2.04-2.04-.92-2.04-2.04ZM55.81,98.59c0-1.13.92-2.04,2.04-2.04s2.04.92,2.04,2.04-.92,2.04-2.04,2.04-2.04-.92-2.04-2.04ZM55.81,88.78c0-1.13.92-2.04,2.04-2.04s2.04.92,2.04,2.04-.92,2.04-2.04,2.04-2.04-.92-2.04-2.04ZM55.81,78.96c0-1.13.92-2.04,2.04-2.04s2.04.92,2.04,2.04-.92,2.04-2.04,2.04-2.04-.92-2.04-2.04ZM55.81,69.15c0-1.13.92-2.04,2.04-2.04s2.04.92,2.04,2.04-.92,2.04-2.04,2.04-2.04-.92-2.04-2.04ZM55.81,59.33c0-1.13.92-2.04,2.04-2.04s2.04.92,2.04,2.04-.92,2.04-2.04,2.04-2.04-.92-2.04-2.04ZM55.81,49.52c0-1.13.92-2.04,2.04-2.04s2.04.92,2.04,2.04-.92,2.04-2.04,2.04-2.04-.92-2.04-2.04ZM55.81,39.71c0-1.13.92-2.04,2.04-2.04s2.04.92,2.04,2.04-.92,2.04-2.04,2.04-2.04-.92-2.04-2.04ZM55.81,29.89c0-1.13.92-2.04,2.04-2.04s2.04.92,2.04,2.04-.92,2.04-2.04,2.04-2.04-.92-2.04-2.04ZM54.99,27.03c-1.13,0-2.04-.92-2.04-2.04s.92-2.04,2.04-2.04,2.04.92,2.04,2.04-.92,2.04-2.04,2.04ZM54.58,29.89c0,1.13-.92,2.04-2.04,2.04s-2.04-.92-2.04-2.04.92-2.04,2.04-2.04,2.04.92,2.04,2.04ZM49.68,27.03c-.67,0-1.26-.33-1.64-.83v-2.43c.37-.5.96-.83,1.64-.83,1.13,0,2.04.92,2.04,2.04s-.92,2.04-2.04,2.04ZM49.27,29.89c0,.84-.51,1.56-1.23,1.87v-3.74c.72.32,1.23,1.03,1.23,1.87ZM49.68,32.75c1.13,0,2.04.92,2.04,2.04s-.92,2.04-2.04,2.04c-.67,0-1.26-.33-1.64-.83v-2.43c.37-.5.96-.83,1.64-.83ZM49.27,39.71c0,.84-.51,1.56-1.23,1.87v-3.74c.72.32,1.23,1.03,1.23,1.87ZM49.68,42.57c1.13,0,2.04.92,2.04,2.04s-.92,2.04-2.04,2.04c-.67,0-1.26-.33-1.64-.83v-2.43c.37-.5.96-.83,1.64-.83ZM49.27,49.52c0,.84-.51,1.56-1.23,1.87v-3.74c.72.32,1.23,1.03,1.23,1.87ZM49.68,52.38c1.13,0,2.04.92,2.04,2.04s-.92,2.04-2.04,2.04c-.67,0-1.26-.33-1.64-.83v-2.43c.37-.5.96-.83,1.64-.83ZM49.27,59.33c0,.84-.51,1.56-1.23,1.87v-3.74c.72.32,1.23,1.03,1.23,1.87ZM49.68,62.2c1.13,0,2.04.92,2.04,2.04s-.92,2.04-2.04,2.04c-.67,0-1.26-.33-1.64-.83v-2.43c.37-.5.96-.83,1.64-.83ZM49.27,69.15c0,.84-.51,1.56-1.23,1.87v-3.74c.72.32,1.23,1.03,1.23,1.87ZM49.68,72.01c1.13,0,2.04.92,2.04,2.04s-.92,2.04-2.04,2.04c-.67,0-1.26-.33-1.64-.83v-2.43c.37-.5.96-.83,1.64-.83ZM49.27,78.96c0,.84-.51,1.56-1.23,1.87v-3.74c.72.32,1.23,1.03,1.23,1.87ZM49.68,81.83c1.13,0,2.04.92,2.04,2.04s-.92,2.04-2.04,2.04c-.67,0-1.26-.33-1.64-.83v-2.43c.37-.5.96-.83,1.64-.83ZM49.27,88.78c0,.84-.51,1.56-1.23,1.87v-3.74c.72.32,1.23,1.03,1.23,1.87ZM49.68,91.64c1.13,0,2.04.92,2.04,2.04s-.92,2.04-2.04,2.04c-.67,0-1.26-.33-1.64-.83v-2.43c.37-.5.96-.83,1.64-.83ZM49.27,98.59c0,.84-.51,1.56-1.23,1.87v-3.74c.72.32,1.23,1.03,1.23,1.87ZM49.68,101.46c1.13,0,2.04.92,2.04,2.04s-.92,2.04-2.04,2.04c-.67,0-1.26-.33-1.64-.83v-2.43c.37-.5.96-.83,1.64-.83ZM49.27,108.41c0,.84-.51,1.56-1.23,1.87v-3.74c.72.32,1.23,1.03,1.23,1.87ZM49.68,111.27c1.13,0,2.04.92,2.04,2.04s-.92,2.04-2.04,2.04c-.67,0-1.26-.33-1.64-.83v-2.43c.37-.5.96-.83,1.64-.83ZM49.27,118.22c0,.84-.51,1.56-1.23,1.87v-3.74c.72.32,1.23,1.03,1.23,1.87ZM49.68,121.09c1.13,0,2.04.92,2.04,2.04s-.92,2.04-2.04,2.04c-.67,0-1.26-.33-1.64-.83v-2.43c.37-.5.96-.83,1.64-.83ZM52.54,125.99c1.13,0,2.04.92,2.04,2.04s-.92,2.04-2.04,2.04-2.04-.92-2.04-2.04.92-2.04,2.04-2.04ZM52.95,123.13c0-1.13.92-2.04,2.04-2.04s2.04.92,2.04,2.04-.92,2.04-2.04,2.04-2.04-.92-2.04-2.04ZM57.86,125.99c1.13,0,2.04.92,2.04,2.04s-.92,2.04-2.04,2.04-2.04-.92-2.04-2.04.92-2.04,2.04-2.04ZM58.27,123.13c0-1.13.92-2.04,2.04-2.04s2.04.92,2.04,2.04-.92,2.04-2.04,2.04-2.04-.92-2.04-2.04ZM58.27,113.32c0-1.13.92-2.04,2.04-2.04s2.04.92,2.04,2.04-.92,2.04-2.04,2.04-2.04-.92-2.04-2.04ZM58.27,103.5c0-1.13.92-2.04,2.04-2.04s2.04.92,2.04,2.04-.92,2.04-2.04,2.04-2.04-.92-2.04-2.04ZM58.27,93.69c0-1.13.92-2.04,2.04-2.04s2.04.92,2.04,2.04-.92,2.04-2.04,2.04-2.04-.92-2.04-2.04ZM58.27,83.87c0-1.13.92-2.04,2.04-2.04s2.04.92,2.04,2.04-.92,2.04-2.04,2.04-2.04-.92-2.04-2.04ZM58.27,74.06c0-1.13.92-2.04,2.04-2.04s2.04.92,2.04,2.04-.92,2.04-2.04,2.04-2.04-.92-2.04-2.04ZM58.27,64.24c0-1.13.92-2.04,2.04-2.04s2.04.92,2.04,2.04-.92,2.04-2.04,2.04-2.04-.92-2.04-2.04ZM58.27,54.43c0-1.13.92-2.04,2.04-2.04s2.04.92,2.04,2.04-.92,2.04-2.04,2.04-2.04-.92-2.04-2.04ZM58.27,44.61c0-1.13.92-2.04,2.04-2.04s2.04.92,2.04,2.04-.92,2.04-2.04,2.04-2.04-.92-2.04-2.04ZM58.27,34.8c0-1.13.92-2.04,2.04-2.04s2.04.92,2.04,2.04-.92,2.04-2.04,2.04-2.04-.92-2.04-2.04ZM58.27,24.98c0-1.13.92-2.04,2.04-2.04s2.04.92,2.04,2.04-.92,2.04-2.04,2.04-2.04-.92-2.04-2.04ZM59.9,20.08c0,1.13-.92,2.04-2.04,2.04s-2.04-.92-2.04-2.04.92-2.04,2.04-2.04,2.04.92,2.04,2.04ZM53.06,14.54c.99-.46,2.09-.77,3.26-.92.44.38.72.92.72,1.55,0,1.13-.92,2.04-2.04,2.04s-2.04-.92-2.04-2.04c0-.22.04-.43.11-.63ZM54.58,20.08c0,1.13-.92,2.04-2.04,2.04s-2.04-.92-2.04-2.04.92-2.04,2.04-2.04,2.04.92,2.04,2.04ZM51.71,15.29c-.06,1.07-.94,1.92-2.03,1.92-.02,0-.04,0-.07,0,.57-.73,1.28-1.38,2.1-1.92ZM49.27,20.08c0,.84-.51,1.56-1.23,1.87v-.35c0-1.03.24-2.02.66-2.92.35.37.56.86.56,1.4ZM21.13,14.63c1.19.58,2.22,1.36,3.02,2.28-.31.19-.67.3-1.05.3-1.13,0-2.04-.92-2.04-2.04,0-.19.03-.37.08-.54ZM15.73,93.69c0-1.13.92-2.04,2.04-2.04s2.04.92,2.04,2.04-.92,2.04-2.04,2.04-2.04-.92-2.04-2.04ZM19.82,103.5c0,1.13-.92,2.04-2.04,2.04s-2.04-.92-2.04-2.04.92-2.04,2.04-2.04,2.04.92,2.04,2.04ZM15.73,83.87c0-1.13.92-2.04,2.04-2.04s2.04.92,2.04,2.04-.92,2.04-2.04,2.04-2.04-.92-2.04-2.04ZM15.73,74.06c0-1.13.92-2.04,2.04-2.04s2.04.92,2.04,2.04-.92,2.04-2.04,2.04-2.04-.92-2.04-2.04ZM15.73,64.24c0-1.13.92-2.04,2.04-2.04s2.04.92,2.04,2.04-.92,2.04-2.04,2.04-2.04-.92-2.04-2.04ZM15.73,54.43c0-1.13.92-2.04,2.04-2.04s2.04.92,2.04,2.04-.92,2.04-2.04,2.04-2.04-.92-2.04-2.04ZM15.73,44.61c0-1.13.92-2.04,2.04-2.04s2.04.92,2.04,2.04-.92,2.04-2.04,2.04-2.04-.92-2.04-2.04ZM15.73,34.8c0-1.13.92-2.04,2.04-2.04s2.04.92,2.04,2.04-.92,2.04-2.04,2.04-2.04-.92-2.04-2.04ZM17.37,39.71c0,1.13-.92,2.04-2.04,2.04s-2.04-.92-2.04-2.04.92-2.04,2.04-2.04,2.04.92,2.04,2.04ZM17.37,49.52c0,1.13-.92,2.04-2.04,2.04s-2.04-.92-2.04-2.04.92-2.04,2.04-2.04,2.04.92,2.04,2.04ZM17.37,59.33c0,1.13-.92,2.04-2.04,2.04s-2.04-.92-2.04-2.04.92-2.04,2.04-2.04,2.04.92,2.04,2.04ZM17.37,69.15c0,1.13-.92,2.04-2.04,2.04s-2.04-.92-2.04-2.04.92-2.04,2.04-2.04,2.04.92,2.04,2.04ZM17.37,78.96c0,1.13-.92,2.04-2.04,2.04s-2.04-.92-2.04-2.04.92-2.04,2.04-2.04,2.04.92,2.04,2.04ZM17.37,88.78c0,1.13-.92,2.04-2.04,2.04s-2.04-.92-2.04-2.04.92-2.04,2.04-2.04,2.04.92,2.04,2.04ZM17.37,98.59c0,1.13-.92,2.04-2.04,2.04s-2.04-.92-2.04-2.04.92-2.04,2.04-2.04,2.04.92,2.04,2.04ZM17.37,108.41c0,1.13-.92,2.04-2.04,2.04s-2.04-.92-2.04-2.04.92-2.04,2.04-2.04,2.04.92,2.04,2.04ZM17.37,118.22c0,1.13-.92,2.04-2.04,2.04s-2.04-.92-2.04-2.04.92-2.04,2.04-2.04,2.04.92,2.04,2.04ZM15.73,113.32c0-1.13.92-2.04,2.04-2.04s2.04.92,2.04,2.04-.92,2.04-2.04,2.04-2.04-.92-2.04-2.04ZM20.64,116.18c1.13,0,2.04.92,2.04,2.04s-.92,2.04-2.04,2.04-2.04-.92-2.04-2.04.92-2.04,2.04-2.04ZM18.6,108.41c0-1.13.92-2.04,2.04-2.04s2.04.92,2.04,2.04-.92,2.04-2.04,2.04-2.04-.92-2.04-2.04ZM18.6,98.59c0-1.13.92-2.04,2.04-2.04s2.04.92,2.04,2.04-.92,2.04-2.04,2.04-2.04-.92-2.04-2.04ZM18.6,88.78c0-1.13.92-2.04,2.04-2.04s2.04.92,2.04,2.04-.92,2.04-2.04,2.04-2.04-.92-2.04-2.04ZM18.6,78.96c0-1.13.92-2.04,2.04-2.04s2.04.92,2.04,2.04-.92,2.04-2.04,2.04-2.04-.92-2.04-2.04ZM18.6,69.15c0-1.13.92-2.04,2.04-2.04s2.04.92,2.04,2.04-.92,2.04-2.04,2.04-2.04-.92-2.04-2.04ZM18.6,59.33c0-1.13.92-2.04,2.04-2.04s2.04.92,2.04,2.04-.92,2.04-2.04,2.04-2.04-.92-2.04-2.04ZM18.6,49.52c0-1.13.92-2.04,2.04-2.04s2.04.92,2.04,2.04-.92,2.04-2.04,2.04-2.04-.92-2.04-2.04ZM18.6,39.71c0-1.13.92-2.04,2.04-2.04s2.04.92,2.04,2.04-.92,2.04-2.04,2.04-2.04-.92-2.04-2.04ZM18.6,29.89c0-1.13.92-2.04,2.04-2.04s2.04.92,2.04,2.04-.92,2.04-2.04,2.04-2.04-.92-2.04-2.04ZM17.78,27.03c-1.13,0-2.04-.92-2.04-2.04s.92-2.04,2.04-2.04,2.04.92,2.04,2.04-.92,2.04-2.04,2.04ZM17.37,29.89c0,1.13-.92,2.04-2.04,2.04s-2.04-.92-2.04-2.04.92-2.04,2.04-2.04,2.04.92,2.04,2.04ZM12.46,27.03c-1.13,0-2.04-.92-2.04-2.04s.92-2.04,2.04-2.04,2.04.92,2.04,2.04-.92,2.04-2.04,2.04ZM14.51,34.8c0,1.13-.92,2.04-2.04,2.04s-2.04-.92-2.04-2.04.92-2.04,2.04-2.04,2.04.92,2.04,2.04ZM14.51,44.61c0,1.13-.92,2.04-2.04,2.04s-2.04-.92-2.04-2.04.92-2.04,2.04-2.04,2.04.92,2.04,2.04ZM14.51,54.43c0,1.13-.92,2.04-2.04,2.04s-2.04-.92-2.04-2.04.92-2.04,2.04-2.04,2.04.92,2.04,2.04ZM14.51,64.24c0,1.13-.92,2.04-2.04,2.04s-2.04-.92-2.04-2.04.92-2.04,2.04-2.04,2.04.92,2.04,2.04ZM14.51,74.06c0,1.13-.92,2.04-2.04,2.04s-2.04-.92-2.04-2.04.92-2.04,2.04-2.04,2.04.92,2.04,2.04ZM14.51,83.87c0,1.13-.92,2.04-2.04,2.04s-2.04-.92-2.04-2.04.92-2.04,2.04-2.04,2.04.92,2.04,2.04ZM14.51,93.69c0,1.13-.92,2.04-2.04,2.04s-2.04-.92-2.04-2.04.92-2.04,2.04-2.04,2.04.92,2.04,2.04ZM14.51,103.5c0,1.13-.92,2.04-2.04,2.04s-2.04-.92-2.04-2.04.92-2.04,2.04-2.04,2.04.92,2.04,2.04ZM14.51,113.32c0,1.13-.92,2.04-2.04,2.04s-2.04-.92-2.04-2.04.92-2.04,2.04-2.04,2.04.92,2.04,2.04ZM14.51,123.13c0,1.13-.92,2.04-2.04,2.04s-2.04-.92-2.04-2.04.92-2.04,2.04-2.04,2.04.92,2.04,2.04ZM15.33,125.99c1.13,0,2.04.92,2.04,2.04s-.92,2.04-2.04,2.04-2.04-.92-2.04-2.04.92-2.04,2.04-2.04ZM15.73,123.13c0-1.13.92-2.04,2.04-2.04s2.04.92,2.04,2.04-.92,2.04-2.04,2.04-2.04-.92-2.04-2.04ZM20.64,125.99c1.13,0,2.04.92,2.04,2.04s-.92,2.04-2.04,2.04-2.04-.92-2.04-2.04.92-2.04,2.04-2.04ZM21.05,123.13c0-1.13.92-2.04,2.04-2.04s2.04.92,2.04,2.04-.92,2.04-2.04,2.04-2.04-.92-2.04-2.04ZM21.05,113.32c0-1.13.92-2.04,2.04-2.04s2.04.92,2.04,2.04-.92,2.04-2.04,2.04-2.04-.92-2.04-2.04ZM21.05,103.5c0-1.13.92-2.04,2.04-2.04s2.04.92,2.04,2.04-.92,2.04-2.04,2.04-2.04-.92-2.04-2.04ZM21.05,93.69c0-1.13.92-2.04,2.04-2.04s2.04.92,2.04,2.04-.92,2.04-2.04,2.04-2.04-.92-2.04-2.04ZM21.05,83.87c0-1.13.92-2.04,2.04-2.04s2.04.92,2.04,2.04-.92,2.04-2.04,2.04-2.04-.92-2.04-2.04ZM21.05,74.06c0-1.13.92-2.04,2.04-2.04s2.04.92,2.04,2.04-.92,2.04-2.04,2.04-2.04-.92-2.04-2.04ZM21.05,64.24c0-1.13.92-2.04,2.04-2.04s2.04.92,2.04,2.04-.92,2.04-2.04,2.04-2.04-.92-2.04-2.04ZM21.05,54.43c0-1.13.92-2.04,2.04-2.04s2.04.92,2.04,2.04-.92,2.04-2.04,2.04-2.04-.92-2.04-2.04ZM21.05,44.61c0-1.13.92-2.04,2.04-2.04s2.04.92,2.04,2.04-.92,2.04-2.04,2.04-2.04-.92-2.04-2.04ZM21.05,34.8c0-1.13.92-2.04,2.04-2.04s2.04.92,2.04,2.04-.92,2.04-2.04,2.04-2.04-.92-2.04-2.04ZM21.05,24.98c0-1.13.92-2.04,2.04-2.04s2.04.92,2.04,2.04-.92,2.04-2.04,2.04-2.04-.92-2.04-2.04ZM22.69,20.08c0,1.13-.92,2.04-2.04,2.04s-2.04-.92-2.04-2.04.92-2.04,2.04-2.04,2.04.92,2.04,2.04ZM16.56,13.54c1.01.03,1.98.18,2.88.44.24.33.38.74.38,1.19,0,1.13-.92,2.04-2.04,2.04s-2.04-.92-2.04-2.04c0-.67.33-1.26.82-1.63ZM17.37,20.08c0,1.13-.92,2.04-2.04,2.04s-2.04-.92-2.04-2.04.92-2.04,2.04-2.04,2.04.92,2.04,2.04ZM11.25,13.53h2.43c.5.37.83.96.83,1.64,0,1.13-.92,2.04-2.04,2.04s-2.04-.92-2.04-2.04c0-.67.33-1.26.83-1.64ZM7.96,20.08c0-1.13.92-2.04,2.04-2.04s2.04.92,2.04,2.04-.92,2.04-2.04,2.04-2.04-.92-2.04-2.04ZM7.96,29.89c0-1.13.92-2.04,2.04-2.04s2.04.92,2.04,2.04-.92,2.04-2.04,2.04-2.04-.92-2.04-2.04ZM7.96,39.71c0-1.13.92-2.04,2.04-2.04s2.04.92,2.04,2.04-.92,2.04-2.04,2.04-2.04-.92-2.04-2.04ZM7.96,49.52c0-1.13.92-2.04,2.04-2.04s2.04.92,2.04,2.04-.92,2.04-2.04,2.04-2.04-.92-2.04-2.04ZM7.96,59.33c0-1.13.92-2.04,2.04-2.04s2.04.92,2.04,2.04-.92,2.04-2.04,2.04-2.04-.92-2.04-2.04ZM7.96,69.15c0-1.13.92-2.04,2.04-2.04s2.04.92,2.04,2.04-.92,2.04-2.04,2.04-2.04-.92-2.04-2.04ZM7.96,78.96c0-1.13.92-2.04,2.04-2.04s2.04.92,2.04,2.04-.92,2.04-2.04,2.04-2.04-.92-2.04-2.04ZM7.96,88.78c0-1.13.92-2.04,2.04-2.04s2.04.92,2.04,2.04-.92,2.04-2.04,2.04-2.04-.92-2.04-2.04ZM7.96,98.59c0-1.13.92-2.04,2.04-2.04s2.04.92,2.04,2.04-.92,2.04-2.04,2.04-2.04-.92-2.04-2.04ZM7.96,108.41c0-1.13.92-2.04,2.04-2.04s2.04.92,2.04,2.04-.92,2.04-2.04,2.04-2.04-.92-2.04-2.04ZM7.96,118.22c0-1.13.92-2.04,2.04-2.04s2.04.92,2.04,2.04-.92,2.04-2.04,2.04-2.04-.92-2.04-2.04ZM7.96,128.04c0-1.13.92-2.04,2.04-2.04s2.04.92,2.04,2.04-.92,2.04-2.04,2.04-2.04-.92-2.04-2.04ZM11.88,138.67h-3.74c-.11-.25-.17-.53-.17-.82,0-1.13.92-2.04,2.04-2.04s2.04.92,2.04,2.04c0,.29-.06.57-.17.82ZM10.42,132.95c0-1.13.92-2.04,2.04-2.04s2.04.92,2.04,2.04-.92,2.04-2.04,2.04-2.04-.92-2.04-2.04ZM17.22,138.63c-.32.03-.65.04-.98.04h-2.78c-.11-.25-.17-.53-.17-.82,0-1.13.92-2.04,2.04-2.04s2.04.92,2.04,2.04c0,.28-.06.54-.15.78ZM15.73,132.95c0-1.13.92-2.04,2.04-2.04s2.04.92,2.04,2.04-.92,2.04-2.04,2.04-2.04-.92-2.04-2.04ZM18.68,138.41c-.05-.18-.09-.36-.09-.56,0-1.13.92-2.04,2.04-2.04.76,0,1.41.42,1.77,1.03-1.07.73-2.34,1.28-3.72,1.57ZM23.1,134.99c-1.13,0-2.04-.92-2.04-2.04s.92-2.04,2.04-2.04,2.04.92,2.04,2.04-.92,2.04-2.04,2.04ZM25.96,130.08c-1.13,0-2.04-.92-2.04-2.04s.92-2.04,2.04-2.04v4.09ZM25.96,120.27c-1.13,0-2.04-.92-2.04-2.04s.92-2.04,2.04-2.04v4.09ZM25.96,110.45c-1.13,0-2.04-.92-2.04-2.04s.92-2.04,2.04-2.04v4.09ZM25.96,100.64c-1.13,0-2.04-.92-2.04-2.04s.92-2.04,2.04-2.04v4.09ZM25.96,90.82c-1.13,0-2.04-.92-2.04-2.04s.92-2.04,2.04-2.04v4.09ZM25.96,81.01c-1.13,0-2.04-.92-2.04-2.04s.92-2.04,2.04-2.04v4.09ZM25.96,71.19c-1.13,0-2.04-.92-2.04-2.04s.92-2.04,2.04-2.04v4.09ZM25.96,61.38c-1.13,0-2.04-.92-2.04-2.04s.92-2.04,2.04-2.04v4.09ZM25.96,51.56c-1.13,0-2.04-.92-2.04-2.04s.92-2.04,2.04-2.04v4.09ZM25.96,41.75c-1.13,0-2.04-.92-2.04-2.04s.92-2.04,2.04-2.04v4.09ZM25.96,31.94c-1.13,0-2.04-.92-2.04-2.04s.92-2.04,2.04-2.04v4.09ZM25.96,22.12c-1.13,0-2.04-.92-2.04-2.04,0-.81.48-1.51,1.16-1.84.57,1.02.88,2.16.88,3.36v.53ZM44.97,174.52c0,2.9-2.36,5.25-5.25,5.25h-5.44c-2.9,0-5.25-2.36-5.25-5.25v-31.2c0-2.9,2.36-5.25,5.25-5.25h5.44c2.9,0,5.25,2.36,5.25,5.25v31.2ZM46.2,9.85h-18.4c-1.02,0-1.84-.82-1.84-1.84s.82-1.84,1.84-1.84h18.4c1.02,0,1.84.82,1.84,1.84s-.82,1.84-1.84,1.84ZM48.04,126.17c.72.32,1.23,1.03,1.23,1.87s-.51,1.56-1.23,1.87v-3.74ZM49.6,134.98c-.77-.99-1.29-2.13-1.48-3.35.38-.44.93-.73,1.56-.73,1.13,0,2.04.92,2.04,2.04s-.92,2.04-2.04,2.04c-.03,0-.05,0-.08,0ZM54.55,138.22c-1.31-.38-2.5-.99-3.49-1.77.37-.39.9-.64,1.48-.64,1.13,0,2.04.92,2.04,2.04,0,.12-.02.25-.04.36ZM54.99,134.99c-1.13,0-2.04-.92-2.04-2.04s.92-2.04,2.04-2.04,2.04.92,2.04,2.04-.92,2.04-2.04,2.04ZM59.73,138.67h-1.96c-.63,0-1.24-.05-1.83-.14-.07-.21-.12-.44-.12-.67,0-1.13.92-2.04,2.04-2.04s2.04.92,2.04,2.04c0,.29-.06.57-.17.82ZM58.27,132.95c0-1.13.92-2.04,2.04-2.04s2.04.92,2.04,2.04-.92,2.04-2.04,2.04-2.04-.92-2.04-2.04ZM65.22,137.85c0,.29-.06.57-.17.82h-3.74c-.11-.25-.17-.53-.17-.82,0-1.13.92-2.04,2.04-2.04s2.04.92,2.04,2.04ZM65.22,128.04c0,1.13-.92,2.04-2.04,2.04s-2.04-.92-2.04-2.04.92-2.04,2.04-2.04,2.04.92,2.04,2.04ZM65.22,118.22c0,1.13-.92,2.04-2.04,2.04s-2.04-.92-2.04-2.04.92-2.04,2.04-2.04,2.04.92,2.04,2.04ZM65.22,108.41c0,1.13-.92,2.04-2.04,2.04s-2.04-.92-2.04-2.04.92-2.04,2.04-2.04,2.04.92,2.04,2.04ZM65.22,98.59c0,1.13-.92,2.04-2.04,2.04s-2.04-.92-2.04-2.04.92-2.04,2.04-2.04,2.04.92,2.04,2.04ZM65.22,88.78c0,1.13-.92,2.04-2.04,2.04s-2.04-.92-2.04-2.04.92-2.04,2.04-2.04,2.04.92,2.04,2.04ZM65.22,78.96c0,1.13-.92,2.04-2.04,2.04s-2.04-.92-2.04-2.04.92-2.04,2.04-2.04,2.04.92,2.04,2.04ZM65.22,69.15c0,1.13-.92,2.04-2.04,2.04s-2.04-.92-2.04-2.04.92-2.04,2.04-2.04,2.04.92,2.04,2.04ZM65.22,59.33c0,1.13-.92,2.04-2.04,2.04s-2.04-.92-2.04-2.04.92-2.04,2.04-2.04,2.04.92,2.04,2.04ZM65.22,49.52c0,1.13-.92,2.04-2.04,2.04s-2.04-.92-2.04-2.04.92-2.04,2.04-2.04,2.04.92,2.04,2.04ZM65.22,39.71c0,1.13-.92,2.04-2.04,2.04s-2.04-.92-2.04-2.04.92-2.04,2.04-2.04,2.04.92,2.04,2.04ZM65.22,29.89c0,1.13-.92,2.04-2.04,2.04s-2.04-.92-2.04-2.04.92-2.04,2.04-2.04,2.04.92,2.04,2.04ZM63.17,22.12c-1.13,0-2.04-.92-2.04-2.04s.92-2.04,2.04-2.04,2.04.92,2.04,2.04-.92,2.04-2.04,2.04Z"/><path d="M39.72,139.28h-5.44c-2.22,0-4.03,1.81-4.03,4.03v31.2c0,2.22,1.81,4.03,4.03,4.03h5.44c2.22,0,4.03-1.81,4.03-4.03v-31.2c0-2.22-1.81-4.03-4.03-4.03ZM37,160.75c-2.03,0-3.68-1.65-3.68-3.68s1.65-3.68,3.68-3.68,3.68,1.65,3.68,3.68-1.65,3.68-3.68,3.68ZM37,149.71c-2.03,0-3.68-1.65-3.68-3.68s1.65-3.68,3.68-3.68,3.68,1.65,3.68,3.68-1.65,3.68-3.68,3.68Z"/></g></svg>