<?xml version="1.0" encoding="UTF-8"?><svg id="c" xmlns="http://www.w3.org/2000/svg" viewBox="0 0 74 216"><g id="d"><path d="M47.69,193.86h-20.92c-.97,0-1.66.95-1.35,1.87l4.71,14.32c.19.58.74.98,1.35.98h11.49c.61,0,1.16-.39,1.35-.98l4.71-14.32c.3-.92-.38-1.87-1.35-1.87Z"/><path d="M60.72,48.35H13.28c-.62,0-1.11.52-1.07,1.13l8.3,137.73c.13,2.21,1.96,3.93,4.19,3.93h24.58c2.23,0,4.06-1.72,4.19-3.93l8.3-137.73c.04-.62-.45-1.13-1.07-1.13ZM39.68,77.22c0,1.25-1.01,2.26-2.26,2.26h-.85c-1.25,0-2.26-1.01-2.26-2.26v-12.6c0-1.25,1.01-2.26,2.26-2.26h.85c1.25,0,2.26,1.01,2.26,2.26v12.6Z"/><path d="M37,62.98c-1,0-1.81,1.01-1.81,2.26v4.13c0,1.25.81,2.26,1.81,2.26s1.81-1.01,1.81-2.26v-4.13c0-1.25-.81-2.26-1.81-2.26Z"/><path d="M20.06,4.97h33.88c4.24,0,7.69,3.45,7.69,7.69v30.42c0,1.16-.94,2.11-2.11,2.11H14.48c-1.16,0-2.11-.94-2.11-2.11V12.66c0-4.24,3.45-7.69,7.69-7.69Z"/></g></svg>