<?xml version="1.0" encoding="UTF-8"?><svg id="c" xmlns="http://www.w3.org/2000/svg" viewBox="0 0 74 216"><g id="d"><path d="M47.1,198.42h-20.2c-.94,0-1.6.92-1.31,1.8l4.55,13.83c.19.56.71.94,1.31.94h11.1c.59,0,1.12-.38,1.31-.94l4.55-13.83c.29-.89-.37-1.8-1.31-1.8Z"/><path d="M59.68,57.94H13.88c-.6,0-1.07.5-1.03,1.1l8.01,132.97c.13,2.14,1.9,3.8,4.05,3.8h23.73c2.15,0,3.92-1.66,4.05-3.8l8.01-132.97c.04-.59-.44-1.1-1.03-1.1ZM39.37,85.81c0,1.2-.98,2.18-2.18,2.18h-.82c-1.2,0-2.18-.98-2.18-2.18v-12.17c0-1.2.98-2.18,2.18-2.18h.82c1.2,0,2.18.98,2.18,2.18v12.17Z"/><path d="M36.78,72.06c-.96,0-1.75.98-1.75,2.18v3.98c0,1.2.78,2.18,1.75,2.18s1.75-.98,1.75-2.18v-3.98c0-1.2-.78-2.18-1.75-2.18Z"/><path d="M69.71,32.92c-.42-17.35-14.57-31.5-31.92-31.91C19.36.58,4.28,15.39,4.28,33.72c0,8.18,3,15.66,7.97,21.4.35.41.87.63,1.41.63h46.69c.54,0,1.06-.23,1.41-.63,5.13-5.92,8.16-13.71,7.96-22.2Z"/></g></svg>