<?xml version="1.0" encoding="UTF-8"?><svg id="grCode" xmlns="http://www.w3.org/2000/svg" viewBox="0 0 256 256"><path id="ahp-icon-codepen" d="M126.86,13.11c.78,0,1.55,0,2.33,0,1.35.53,2.78.9,4.03,1.61,37.78,21.38,75.53,42.81,113.32,64.16,3.32,1.88,5.87,4.13,6.78,7.93v82.49c-.87,3-2.47,5.38-5.28,6.98-38.17,21.6-76.33,43.22-114.47,64.87-3.81,2.17-7.44,2.17-11.23-.02-7.19-4.16-14.44-8.22-21.67-12.31-30.97-17.55-61.94-35.09-92.91-52.65-3.4-1.92-5.11-4.84-5.1-8.79.01-26.24.01-52.49,0-78.73,0-3.95,1.71-6.87,5.1-8.79,35.38-20.07,70.75-40.14,106.17-60.14,4.21-2.38,8.14-5.33,12.92-6.61ZM116.56,184.27c0-7.15-.02-14.3.01-21.45,0-1.62-.56-2.8-2-3.61-17.64-9.99-35.27-19.99-52.89-30-1.37-.78-2.65-.82-4.02-.04-10.07,5.72-20.14,11.42-30.21,17.12-1.37.78-2.01,1.92-1.98,3.49.03,2.63.06,5.26,0,7.88-.05,1.8.69,2.99,2.24,3.87,27.79,15.73,55.56,31.48,83.34,47.22,3.03,1.71,5.51.23,5.51-3.29,0-7.07,0-14.13,0-21.2ZM139.41,184.16c0,7.15,0,14.3,0,21.45,0,3.34,2.53,4.83,5.41,3.2,27.85-15.78,55.7-31.58,83.56-47.35,1.48-.84,2.15-2.04,2.15-3.68,0-2.63,0-5.26,0-7.88,0-1.65-.66-2.84-2.14-3.68-9.97-5.63-19.92-11.28-29.86-16.95-1.5-.86-2.86-.85-4.37,0-17.43,9.91-34.87,19.81-52.33,29.67-1.69.95-2.46,2.19-2.44,4.15.06,7.02.02,14.04.02,21.07ZM127.98,89.66c-.7.28-1.42.46-2.04.81-12.63,7.14-25.24,14.3-37.85,21.47-2.96,1.68-2.93,4.66.04,6.35,12.58,7.13,25.17,14.25,37.74,21.4,1.47.84,2.78.83,4.24,0,12.64-7.2,25.3-14.36,37.95-21.55,2.69-1.53,2.73-4.52.06-6.05-12.76-7.26-25.53-14.49-38.31-21.71-.55-.31-1.18-.46-1.84-.71ZM196.31,101.77c.76-.3,1.55-.52,2.24-.91,4.91-2.76,9.8-5.58,14.71-8.34,1.31-.74,2.34-1.61,2.35-3.26,0-1.65-1.02-2.53-2.33-3.27-22.81-12.92-45.61-25.85-68.41-38.78-2.97-1.68-5.46-.21-5.46,3.23,0,5.6.03,11.2-.02,16.81-.01,1.79.69,2.98,2.25,3.86,17.57,9.94,35.12,19.92,52.68,29.87.58.33,1.25.51,1.99.8ZM116.56,58.79c0-2.71-.17-5.44.05-8.14.26-3.15-2.63-5.2-5.71-3.37-7.44,4.41-15.02,8.58-22.54,12.85-15.31,8.68-30.62,17.35-45.93,26.04-2.82,1.6-2.82,4.59,0,6.2,5.05,2.88,10.11,5.72,15.16,8.6,1.36.78,2.65.82,4.02.04,17.62-10.01,35.26-20,52.89-29.99,1.42-.8,2.1-1.93,2.08-3.56-.04-2.89-.01-5.77-.01-8.66ZM230.46,108.7c-3.78,2.15-7.43,4.21-11.24,6.38,3.83,2.17,7.47,4.23,11.24,6.37v-12.75ZM25.57,108.75v12.65c3.76-2.13,7.39-4.18,11.18-6.33-3.81-2.15-7.42-4.2-11.18-6.33Z"/></svg>