<?xml version="1.0" encoding="UTF-8"?><svg id="grCode" xmlns="http://www.w3.org/2000/svg" viewBox="0 0 256 256"><path id="ahp-icon-code01" d="M188.23,194.56c-2.94,0-5.87-1.12-8.11-3.36-4.48-4.48-4.48-11.74,0-16.22l44.25-44.25-44.25-44.25c-4.48-4.48-4.48-11.74,0-16.22s11.74-4.48,16.22,0l50.47,50.47c5.51,5.52,5.51,14.49,0,20l-50.47,50.47c-2.24,2.24-5.18,3.36-8.11,3.36ZM230.58,136.94h.01-.01ZM75.89,191.2c4.48-4.48,4.48-11.74,0-16.22l-44.25-44.25,44.25-44.25c4.48-4.48,4.48-11.74,0-16.22-4.48-4.48-11.74-4.48-16.22,0L9.19,120.72c-5.51,5.52-5.51,14.49,0,20l50.47,50.47c2.24,2.24,5.18,3.36,8.11,3.36s5.87-1.12,8.11-3.36ZM115.86,243.37L163.98,17.41c1.32-6.2-2.63-12.29-8.83-13.61-6.2-1.32-12.29,2.63-13.61,8.83l-48.12,225.97c-1.32,6.2,2.63,12.29,8.83,13.61.81.17,1.61.25,2.4.25,5.3,0,10.06-3.69,11.21-9.08Z"/></svg>