<?xml version="1.0" encoding="UTF-8"?><svg id="b" xmlns="http://www.w3.org/2000/svg" viewBox="0 0 256 256"><g id="c"><path id="d" d="M202.4,202.29H53.6c-7.1,0-12.85-5.75-12.85-12.85s5.76-12.85,12.85-12.85h148.8c7.1,0,12.85,5.75,12.85,12.85s-5.75,12.85-12.85,12.85Z"/><path id="e" d="M234.48,140.85H21.52c-7.1,0-12.85-5.75-12.85-12.85s5.76-12.85,12.85-12.85h212.96c7.1,0,12.85,5.76,12.85,12.85s-5.75,12.85-12.85,12.85Z"/><path id="f" d="M202.4,79.42H53.6c-7.1,0-12.85-5.76-12.85-12.85s5.76-12.85,12.85-12.85h148.8c7.1,0,12.85,5.76,12.85,12.85s-5.75,12.85-12.85,12.85Z"/></g></svg>