<?xml version="1.0" encoding="UTF-8"?><svg id="b" xmlns="http://www.w3.org/2000/svg" viewBox="0 0 256 256"><g id="c"><path id="d" d="M203.29,216.15c-3.29,0-6.58-1.25-9.09-3.76L43.62,61.8c-5.02-5.02-5.02-13.16,0-18.18s13.16-5.02,18.18,0l150.59,150.59c5.02,5.02,5.02,13.16,0,18.18-2.51,2.51-5.8,3.76-9.09,3.76Z"/><path id="e" d="M52.71,216.15c-3.29,0-6.58-1.25-9.09-3.76-5.02-5.02-5.02-13.16,0-18.18L194.2,43.62c5.02-5.02,13.16-5.02,18.18,0,5.02,5.02,5.02,13.16,0,18.18L61.8,212.38c-2.51,2.51-5.8,3.76-9.09,3.76Z"/></g></svg>