<?xml version="1.0" encoding="UTF-8"?><svg id="b" xmlns="http://www.w3.org/2000/svg" viewBox="0 0 256 256"><g id="c"><path id="d" d="M237.49,200.74H72.65c-6.25,0-11.31-5.06-11.31-11.31s5.06-11.31,11.31-11.31h164.84c6.25,0,11.31,5.06,11.31,11.31s-5.06,11.31-11.31,11.31Z"/><circle id="e" cx="19.41" cy="189.43" r="13.76"/><path id="f" d="M183.35,139.31H18.51c-6.25,0-11.31-5.06-11.31-11.31s5.06-11.31,11.31-11.31h164.84c6.25,0,11.31,5.06,11.31,11.31s-5.06,11.31-11.31,11.31Z"/><circle id="g" cx="236.59" cy="128" r="13.76"/><path id="h" d="M237.49,77.88H72.65c-6.25,0-11.31-5.06-11.31-11.31s5.06-11.31,11.31-11.31h164.84c6.25,0,11.31,5.06,11.31,11.31s-5.06,11.31-11.31,11.31Z"/><circle id="i" cx="19.41" cy="66.57" r="13.76"/></g></svg>