<?xml version="1.0" encoding="UTF-8"?><svg id="c" xmlns="http://www.w3.org/2000/svg" viewBox="0 0 220 150"><g id="d"><g id="e"><path id="f" d="M176.8,43.43c0-.98-.63-1.82-1.5-2.13-.49-6.39-3.05-12.19-7-16.75.39-.84.24-1.87-.45-2.56-.7-.7-1.73-.84-2.57-.45-4.58-3.93-10.4-6.45-16.79-6.89-.32-.87-1.15-1.49-2.13-1.49s-1.82.63-2.13,1.5c-6.39.49-12.19,3.05-16.75,7-.84-.39-1.87-.24-2.56.45s-.84,1.73-.45,2.57c-3.93,4.58-6.45,10.4-6.89,16.79-.87.32-1.49,1.15-1.49,2.13s.63,1.82,1.5,2.13c.49,6.39,3.05,12.19,7,16.75-.39.84-.24,1.87.45,2.56s1.73.84,2.57.45c4.58,3.93,10.4,6.45,16.79,6.89.32.87,1.15,1.49,2.13,1.49s1.82-.63,2.13-1.5c6.39-.49,12.19-3.05,16.75-7,.84.39,1.87.24,2.56-.45s.84-1.73.45-2.57c3.93-4.58,6.45-10.4,6.89-16.79.87-.32,1.49-1.15,1.49-2.13ZM173.61,45.51c-.41,5.82-2.65,11.27-6.44,15.7-.81-.3-1.75-.13-2.4.52s-.82,1.61-.51,2.42c-4.41,3.82-9.85,6.09-15.65,6.54-.36-.79-1.15-1.33-2.07-1.33s-1.72.55-2.07,1.35c-5.82-.41-11.27-2.65-15.7-6.44.3-.81.13-1.75-.52-2.4s-1.61-.82-2.42-.51c-3.82-4.41-6.09-9.85-6.54-15.65.79-.36,1.33-1.15,1.33-2.07s-.55-1.72-1.35-2.07c.41-5.82,2.65-11.27,6.44-15.7.81.3,1.75.13,2.4-.52.65-.65.82-1.61.51-2.42,4.41-3.82,9.85-6.09,15.65-6.54.36.79,1.15,1.33,2.07,1.33s1.72-.55,2.07-1.35c5.82.41,11.27,2.65,15.7,6.44-.3.81-.13,1.75.52,2.4s1.61.82,2.42.51c3.82,4.41,6.09,9.85,6.54,15.65-.79.36-1.33,1.15-1.33,2.07s.55,1.72,1.35,2.07Z"/><g id="g"><path d="M146.44,18.08c-14.05,0-25.44,11.39-25.44,25.44s11.39,25.44,25.44,25.44,25.44-11.39,25.44-25.44-11.39-25.44-25.44-25.44ZM146.53,47.41c-2.09,0-3.78-1.69-3.78-3.78s1.69-3.78,3.78-3.78,3.78,1.69,3.78,3.78-1.69,3.78-3.78,3.78Z"/></g></g><g id="h"><path id="i" d="M141.58,93.47c0-.82-.52-1.52-1.26-1.79-.41-5.34-2.55-10.2-5.86-14.01.33-.7.2-1.56-.38-2.14-.58-.58-1.45-.71-2.15-.37-3.83-3.28-8.7-5.39-14.05-5.76-.27-.73-.96-1.25-1.78-1.25s-1.52.52-1.79,1.26c-5.34.41-10.2,2.55-14.01,5.86-.7-.33-1.56-.2-2.14.38s-.71,1.45-.37,2.15c-3.28,3.83-5.39,8.7-5.76,14.05-.73.27-1.25.96-1.25,1.78s.52,1.52,1.26,1.79c.41,5.34,2.55,10.2,5.86,14.01-.33.7-.2,1.56.38,2.14s1.45.71,2.15.37c3.83,3.28,8.7,5.39,14.05,5.76.27.73.96,1.25,1.78,1.25s1.52-.52,1.79-1.26c5.34-.41,10.2-2.55,14.01-5.86.7.33,1.56.2,2.14-.38s.71-1.45.37-2.15c3.28-3.83,5.39-8.7,5.76-14.05.73-.27,1.25-.96,1.25-1.78ZM138.91,95.2c-.35,4.86-2.22,9.43-5.39,13.13-.68-.25-1.47-.11-2.01.43s-.69,1.34-.43,2.02c-3.69,3.19-8.24,5.1-13.09,5.47-.3-.66-.96-1.12-1.73-1.12s-1.44.46-1.73,1.13c-4.86-.35-9.43-2.22-13.13-5.39.25-.68.11-1.47-.43-2.01s-1.34-.69-2.02-.43c-3.19-3.69-5.1-8.24-5.47-13.09.66-.3,1.12-.96,1.12-1.73s-.46-1.44-1.13-1.73c.35-4.86,2.22-9.43,5.39-13.13.68.25,1.47.11,2.01-.43.55-.55.69-1.34.43-2.02,3.69-3.19,8.24-5.1,13.09-5.47.3.66.96,1.12,1.73,1.12s1.44-.46,1.73-1.13c4.86.35,9.43,2.22,13.13,5.39-.25.68-.11,1.47.43,2.01s1.34.69,2.02.43c3.19,3.69,5.1,8.24,5.47,13.09-.66.3-1.12.96-1.12,1.73s.46,1.44,1.13,1.73Z"/><g id="j"><path d="M116.18,72.26c-11.76,0-21.29,9.53-21.29,21.29s9.53,21.29,21.29,21.29,21.29-9.53,21.29-21.29-9.53-21.29-21.29-21.29ZM116.26,96.79c-1.75,0-3.17-1.42-3.17-3.17s1.42-3.17,3.17-3.17,3.17,1.42,3.17,3.17-1.42,3.17-3.17,3.17Z"/></g></g><g id="k"><g id="l"><path d="M187.02,39.46c-7.4,0-13.41,6.02-13.41,13.41s6.02,13.41,13.41,13.41,13.41-6.02,13.41-13.41-6.02-13.41-13.41-13.41ZM187.1,56.3c-1.85,0-3.34-1.5-3.34-3.34s1.5-3.34,3.34-3.34,3.34,1.5,3.34,3.34-1.5,3.34-3.34,3.34Z"/></g><g id="m"><path d="M187.02,30.39c-12.42,0-22.48,10.06-22.48,22.48s10.06,22.48,22.48,22.48,22.48-10.06,22.48-22.48-10.06-22.48-22.48-22.48ZM187.02,67.83c-8.25,0-14.96-6.71-14.96-14.96s6.71-14.96,14.96-14.96,14.96,6.71,14.96,14.96-6.71,14.96-14.96,14.96Z"/></g></g><g id="n"><g id="o"><path d="M45.91,34.26c-12.97,0-23.52,10.55-23.52,23.52s10.55,23.52,23.52,23.52,23.52-10.55,23.52-23.52-10.55-23.52-23.52-23.52ZM46.06,63.78c-3.24,0-5.86-2.62-5.86-5.86s2.62-5.86,5.86-5.86,5.86,2.62,5.86,5.86-2.62,5.86-5.86,5.86Z"/></g><g id="p"><path d="M45.91,18.36c-21.77,0-39.41,17.65-39.41,39.41s17.65,39.41,39.41,39.41,39.41-17.65,39.41-39.41-17.65-39.41-39.41-39.41ZM45.91,84c-14.46,0-26.23-11.77-26.23-26.23s11.77-26.23,26.23-26.23,26.23,11.77,26.23,26.23-11.77,26.23-26.23,26.23Z"/></g></g><path id="q" d="M115.55,51.46v-11.72c0-3.74-3.03-6.77-6.77-6.77s-6.77,3.03-6.77,6.77v11.72h-34.1v91.38h81.75V51.46h-34.1ZM146.01,139.19h-74.46V55.1h74.46v84.09Z"/></g></svg>