<?xml version="1.0" encoding="UTF-8"?><svg id="d" xmlns="http://www.w3.org/2000/svg" viewBox="0 0 216 216"><g id="e"><g id="f"><path d="M108,45.95c-34.22,0-62.05,27.84-62.05,62.05s27.84,62.05,62.05,62.05,62.05-27.84,62.05-62.05-27.84-62.05-62.05-62.05ZM108.39,123.85c-8.54,0-15.46-6.92-15.46-15.46s6.92-15.46,15.46-15.46,15.46,6.92,15.46,15.46-6.92,15.46-15.46,15.46Z"/></g><g id="g"><path d="M108,4C50.56,4,4,50.56,4,108s46.56,104,104,104,104-46.56,104-104S165.44,4,108,4ZM108,177.21c-38.16,0-69.21-31.05-69.21-69.21s31.05-69.21,69.21-69.21,69.21,31.05,69.21,69.21-31.05,69.21-69.21,69.21Z"/></g></g></svg>