<?xml version="1.0" encoding="UTF-8"?><svg id="c" xmlns="http://www.w3.org/2000/svg" viewBox="0 0 220 183.45"><path id="d" d="M96.17,7.37c3.34,2.21,5.19-5.18,8.39-.46,1.15-1.08,2.11-1.99,3.16-2.98,1.15.67,2.2,1.28,3.42,2,1.77-2.33,3.71-3.62,5.89-.44,2.19-2.14,4.2-3.79,6.37-.37,2.22-2.01,4.31-3.33,6.42-.16,2.21-2.32,4.36-2.57,6.43.07,2.3-2.47,4.41-2.25,6.35.31,1.81-1.47,3.52-2.95,5.38-.35.24.34,1.38.54,1.6.32,2.38-2.43,3.93-.55,5.51,1.14,1.19-.62,2.26-1.18,3.42-1.78.99.9,1.89,1.72,2.94,2.67,2.36-1.75,4.51-1.85,5.94,1.38,1.27-.64,2.34-1.19,3.38-1.72,1.98.69,2.54,5.2,6.21.9-.23,1.92-.24,2.71-.43,3.44-13.77,52.74-27.56,105.48-41.29,158.23-.62,2.38-1.39,3.48-4.19,3.3-3.54-.23-7.13.35-11.26.61-7.84-55.05-15.71-110.31-23.65-166.09ZM65.54,9.78c-6.52,1.2-9.59,7.2-8.53,14.32,3.91,26.22,7.73,52.46,11.58,78.7,3.24,22.06,6.43,44.13,9.71,66.19.89,5.98,5.73,10.49,11.53,9.95,8.58-.79,17.09-2.27,25.96-3.5-7.97-56.57-15.89-112.73-23.86-169.25-9.03,1.2-17.78,2.02-26.38,3.61ZM65.53,103.51c-.49-4.78-.49-4.76-5.15-3.94-3.29.58-6.61,1.01-9.9,1.63-2.45.47-5.76-.42-6.18,3.67-.04.35-1.23.71-1.93.82-4.16.67-8.32,1.29-12.49,1.89-2.45.35-4.44.05-4.79-3.1-.33-2.99.12-5.09,3.69-5.53,4.91-.61,9.79-1.48,14.68-2.24,6.64-1.03,13.28-2.06,19.92-3.1-.54-.69-.99-.75-1.43-.68-11.27,1.68-22.54,3.39-33.81,5.05-2.35.35-4.17-.19-4.46-3.08-.28-2.71-.21-5.03,3.23-5.52,3.56-.51,7.09-1.13,10.65-1.61,2.01-.27,4.51-1.81,5.4,1.74.07.28,1.11.52,1.65.44,6.1-.94,12.18-1.94,18.55-2.97-.39-2.49-.72-4.62-1.02-6.54-.52-.2-.64-.3-.75-.28-4.77.69-9.57,1.25-14.31,2.15-2.14.41-5.27-.39-5.66,3.34-.04.34-1.23.69-1.93.8-4.03.65-8.08,1.22-12.12,1.84-2.61.4-4.71.18-5.13-3.12-.49-3.76.3-4.94,4.09-5.54,1.96-.31,3.92-.85,5.88-.85,3.29,0,7.07-3.36,9.8,1.26.11.18.71.16,1.06.11,6.17-.99,12.34-2.01,18.68-3.04-.44-2.54-.79-4.58-1.21-7.03-6.41,1.04-12.61,2.03-18.8,3.07-.44.07-1.18.47-1.18.71.03,3.51-2.7,2.85-4.73,3.19-3.3.56-6.61,1.02-9.91,1.6-2.66.47-4.68.17-5.14-3.09-.43-3.04.22-5.08,3.69-5.55,5.03-.68,10.05-1.53,15.07-2.3,6.49-1,12.98-2,19.47-2.99-1.94-.58-3.78-.43-5.59-.15-9.67,1.48-19.34,2.97-29,4.5-2.71.43-4.64-.05-5.1-3.22-.44-3.08.39-5.07,3.8-5.5,3.07-.39,6.11-1.12,9.18-1.39,2.24-.19,5.17-2.17,6.4,1.76.08.25.91.43,1.35.37,6.19-.91,12.37-1.88,18.86-2.87-.44-2.61-.77-4.62-1.17-7.03-5.21.81-10.1,1.48-14.94,2.36-2.22.4-5.26-.38-5.78,3.29-.04.31-1.27.55-1.98.67-4.15.68-8.32,1.3-12.48,1.98-2.69.44-4.29-.51-4.69-3.33-.37-2.63-.01-4.77,3.11-5.29,2.32-.39,4.65-.94,6.98-1.02,3.28-.12,7.06-3.24,9.74,1.35.14.23.95.16,1.43.08,5.96-.95,11.92-1.92,18.3-2.96-.43-2.48-.79-4.58-1.21-6.95-5.61.84-10.76,1.55-15.87,2.4-1.92.32-4.43-.02-4.64,3.12-.02.35-1.16.8-1.83.92-4.27.74-8.54,1.45-12.83,2.05-2.59.37-4.33-.55-4.65-3.45-.28-2.63.06-4.75,3.21-5.23,4.89-.74,9.78-1.49,13.87-2.12,1.73,1.13,2.93,2.58,3.95,2.46,6.1-.73,12.16-1.83,18.57-2.86-.43-2.59-.78-4.71-1.16-7.02-6.32.98-12.19,1.87-18.05,2.83-.67.11-1.82.56-1.84.91-.23,3.42-3,2.73-4.97,3.14-3.03.62-6.12.97-9.16,1.52-2.83.51-5.24.5-5.82-3.18-.56-3.53.33-4.86,4.19-5.49,5.13-.84,10.29-1.57,15.43-2.35,6.46-.99,12.91-1.99,19.63-3.03-.35-1.88-.61-3.3-.9-4.85-.89,0-1.62-.09-2.33.01-12.99,1.9-25.98,3.79-38.97,5.76-5.55.84-7.19,3.45-6.34,9.1,4.38,29.16,8.7,58.33,13.04,87.5,2.52,16.91,5.01,33.83,7.56,50.73.75,4.94,3.04,6.68,7.9,6,7.85-1.1,15.69-2.31,23.53-3.49,6.18-.93,12.36-1.89,18.45-2.83.1-3.79-1.67-4.42-4.51-3.78-1.93.43-3.91.62-5.87.92-8.81,1.36-17.62,2.75-26.44,4.09-2.85.43-4.4-.66-4.66-3.74-.24-2.83.46-4.46,3.55-4.88,6.01-.81,12-1.86,17.99-2.79,5.67-.88,11.34-1.75,17-2.63-.05-.32-.1-.64-.16-.96-7.56,1.15-15.12,2.31-22.69,3.44-4.53.68-9.05,1.52-13.61,1.8-1.07.06-3.07-1.76-3.22-2.9-.21-1.64.82-4.91,1.44-4.94,6.01-.3,11.95-5.28,18.09-.59.25.19.73.15,1.09.09,6.2-.95,12.39-1.93,18.94-2.95-.46-2.66-.83-4.78-1.23-7.05-5.31.83-10.22,1.5-15.08,2.42-2.26.43-5.61-.51-5.67,3.6,0,.22-.78.55-1.24.62-4.89.75-9.78,1.64-14.7,2.04-1,.08-2.95-1.64-3.06-2.68-.19-1.7.68-5.03,1.27-5.07,6.04-.4,11.96-5.24,18.19-.81.33.24.97.15,1.45.07,6.08-.98,12.16-1.98,18.55-3.03-.4-2.5-.74-4.65-1.12-7.09-5.54.82-10.78,1.62-16.02,2.36-2.63.37-5.25.65-4.87,4.36-5.16.79-10.05,1.59-14.95,2.26-2.5.35-4.03-.69-4.25-3.4-.21-2.57-.08-4.73,3.21-5.18,4.29-.59,8.56-1.38,12.85-2.03,7.52-1.15,15.05-2.27,22.58-3.4-2.71-.45-5.33-.16-7.92.23-8.82,1.35-17.63,2.76-26.44,4.09-2.72.41-5.24.55-5.72-3.31-.43-3.51.91-5.02,4.37-5.31,3.2-.27,6.36-.97,9.54-1.47,2.07-.33,4.42-1.6,5.44,1.68.09.28,1.11.47,1.65.39,6.1-.93,12.19-1.92,18.74-2.97-.35-2.47-.66-4.67-.98-6.97-4.52.65-8.5.97-12.34,1.87-3.03.72-7.23-.55-8.47,4.09-.07.27-.87.41-1.35.48-4.41.67-8.82,1.29-13.23,1.96-3.12.48-4.15-1.13-4.43-3.97-.27-2.77.71-4.23,3.47-4.63,4.17-.61,8.31-1.36,12.48-1.96.78-.11,2.18-.05,2.35.35,1.28,2.85,3.58,1.71,5.49,1.47,4.3-.55,8.55-1.56,12.85-1.95,3.29-.3,2.46-2.32,2.37-4.23-.11-2.16-.73-3.56-3.37-3.05-4.13.79-8.31,1.36-12.45,2.08-2.15.37-4.98-.28-5.17,3.33-.02.35-1.17.83-1.84.94-4.52.72-9.06,1.38-13.6,2.02-2.76.39-3.67-1.12-3.95-3.64-.29-2.59.16-4.45,3.07-4.92,4.28-.69,8.55-1.44,12.85-2.03.85-.12,1.8.32,2.67.61,1.25.41,2.52,1.44,3.68,1.31,5.52-.66,11-1.62,16.91-2.54-.05-1.09-.05-1.82-.13-2.54ZM214.13,32.21l-36.97,138.6c-1.73,6.49-8.4,10.35-14.89,8.62l-24.27-6.47L181.24,10.84l24.27,6.47c6.49,1.73,10.35,8.4,8.62,14.89ZM188.04,57.67c1.66.44,3.36-.54,3.8-2.2s-.54-3.36-2.2-3.8c-1.66-.44-3.36.54-3.8,2.2-.44,1.66.54,3.36,2.2,3.8ZM183.43,62.88c-.44,1.66.54,3.36,2.2,3.8,1.66.44,3.36-.54,3.8-2.2.44-1.66-.54-3.36-2.2-3.8-1.66-.44-3.36.54-3.8,2.2ZM177.42,109.51c.44-1.66-.54-3.36-2.2-3.8-1.66-.44-3.36.54-3.8,2.2-.44,1.66.54,3.36,2.2,3.8,1.66.44,3.36-.54,3.8-2.2ZM172.82,114.71c-1.66-.44-3.36.54-3.8,2.2-.44,1.66.54,3.36,2.2,3.8,1.66.44,3.36-.54,3.8-2.2.44-1.66-.54-3.36-2.2-3.8ZM179.83,100.5c.44-1.66-.54-3.36-2.2-3.8-1.66-.44-3.36.54-3.8,2.2-.44,1.66.54,3.36,2.2,3.8,1.66.44,3.36-.54,3.8-2.2ZM182.23,91.5c.44-1.66-.54-3.36-2.2-3.8-1.66-.44-3.36.54-3.8,2.2s.54,3.36,2.2,3.8c1.66.44,3.36-.54,3.8-2.2ZM184.63,82.49c.44-1.66-.54-3.36-2.2-3.8-1.66-.44-3.36.54-3.8,2.2-.44,1.66.54,3.36,2.2,3.8,1.66.44,3.36-.54,3.8-2.2ZM187.04,73.48c.44-1.66-.54-3.36-2.2-3.8-1.66-.44-3.36.54-3.8,2.2-.44,1.66.54,3.36,2.2,3.8,1.66.44,3.36-.54,3.8-2.2ZM179.83,52.27c1.66.44,3.36-.54,3.8-2.2.44-1.66-.54-3.36-2.2-3.8-1.66-.44-3.36.54-3.8,2.2-.44,1.66.54,3.36,2.2,3.8ZM177.43,61.27c1.66.44,3.36-.54,3.8-2.2.44-1.66-.54-3.36-2.2-3.8-1.66-.44-3.36.54-3.8,2.2-.44,1.66.54,3.36,2.2,3.8ZM175.03,70.28c1.66.44,3.36-.54,3.8-2.2s-.54-3.36-2.2-3.8c-1.66-.44-3.36.54-3.8,2.2-.44,1.66.54,3.36,2.2,3.8ZM172.62,79.29c1.66.44,3.36-.54,3.8-2.2.44-1.66-.54-3.36-2.2-3.8-1.66-.44-3.36.54-3.8,2.2-.44,1.66.54,3.36,2.2,3.8ZM170.22,88.29c1.66.44,3.36-.54,3.8-2.2.44-1.66-.54-3.36-2.2-3.8-1.66-.44-3.36.54-3.8,2.2-.44,1.66.54,3.36,2.2,3.8ZM167.82,97.3c1.66.44,3.36-.54,3.8-2.2.44-1.66-.54-3.36-2.2-3.8-1.66-.44-3.36.54-3.8,2.2-.44,1.66.54,3.36,2.2,3.8ZM165.42,106.3c1.66.44,3.36-.54,3.8-2.2.44-1.66-.54-3.36-2.2-3.8-1.66-.44-3.36.54-3.8,2.2s.54,3.36,2.2,3.8ZM163.01,115.31c1.66.44,3.36-.54,3.8-2.2.44-1.66-.54-3.36-2.2-3.8s-3.36.54-3.8,2.2c-.44,1.66.54,3.36,2.2,3.8ZM159.81,127.32c-1.66-.44-3.36.54-3.8,2.2-.44,1.66.54,3.36,2.2,3.8,1.66.44,3.36-.54,3.8-2.2.44-1.66-.54-3.36-2.2-3.8ZM164.41,122.12c.44-1.66-.54-3.36-2.2-3.8-1.66-.44-3.36.54-3.8,2.2-.44,1.66.54,3.36,2.2,3.8,1.66.44,3.36-.54,3.8-2.2ZM168.02,132.72c-1.66-.44-3.36.54-3.8,2.2-.44,1.66.54,3.36,2.2,3.8,1.66.44,3.36-.54,3.8-2.2.44-1.66-.54-3.36-2.2-3.8ZM172.62,127.52c.44-1.66-.54-3.36-2.2-3.8s-3.36.54-3.8,2.2c-.44,1.66.54,3.36,2.2,3.8,1.66.44,3.36-.54,3.8-2.2ZM176.22,138.13c-1.66-.44-3.36.54-3.8,2.2s.54,3.36,2.2,3.8c1.66.44,3.36-.54,3.8-2.2.44-1.66-.54-3.36-2.2-3.8ZM178.62,129.12c-1.66-.44-3.36.54-3.8,2.2-.44,1.66.54,3.36,2.2,3.8,1.66.44,3.36-.54,3.8-2.2.44-1.66-.54-3.36-2.2-3.8ZM181.03,120.12c-1.66-.44-3.36.54-3.8,2.2-.44,1.66.54,3.36,2.2,3.8,1.66.44,3.36-.54,3.8-2.2s-.54-3.36-2.2-3.8ZM183.43,111.11c-1.66-.44-3.36.54-3.8,2.2-.44,1.66.54,3.36,2.2,3.8,1.66.44,3.36-.54,3.8-2.2.44-1.66-.54-3.36-2.2-3.8ZM185.83,102.1c-1.66-.44-3.36.54-3.8,2.2-.44,1.66.54,3.36,2.2,3.8,1.66.44,3.36-.54,3.8-2.2s-.54-3.36-2.2-3.8ZM188.23,93.1c-1.66-.44-3.36.54-3.8,2.2-.44,1.66.54,3.36,2.2,3.8,1.66.44,3.36-.54,3.8-2.2.44-1.66-.54-3.36-2.2-3.8ZM190.64,84.09c-1.66-.44-3.36.54-3.8,2.2-.44,1.66.54,3.36,2.2,3.8,1.66.44,3.36-.54,3.8-2.2.44-1.66-.54-3.36-2.2-3.8ZM193.04,75.09c-1.66-.44-3.36.54-3.8,2.2-.44,1.66.54,3.36,2.2,3.8,1.66.44,3.36-.54,3.8-2.2.44-1.66-.54-3.36-2.2-3.8ZM195.44,66.08c-1.66-.44-3.36.54-3.8,2.2-.44,1.66.54,3.36,2.2,3.8,1.66.44,3.36-.54,3.8-2.2.44-1.66-.54-3.36-2.2-3.8ZM197.84,57.07c-1.66-.44-3.36.54-3.8,2.2-.44,1.66.54,3.36,2.2,3.8s3.36-.54,3.8-2.2c.44-1.66-.54-3.36-2.2-3.8Z"/></svg>