<?xml version="1.0" encoding="UTF-8"?><svg id="c" xmlns="http://www.w3.org/2000/svg" viewBox="0 0 173.9 68.14"><path id="d" d="M48.24,29.06c-1.29,1.64-2.54,2.9-3.42,4.38-4.81,8.13.65,18.68,10.14,19.32,5.5.37,11.03.13,16.55.14,13.45,0,26.9.01,40.34,0,5.93,0,11.13-3.64,12.89-8.91,2.77-8.3-3.31-16.93-12.09-16.99-12.57-.09-25.14-.04-37.7-.04-19.38,0-38.76.02-58.14-.04-2.46,0-4.77.34-7,1.35-1.33.61-2.73,1.08-4.11,1.59-1.78.66-2.29.35-2.3-1.48-.02-3.46-.02-6.93.01-10.39.02-1.99.54-2.41,2.37-1.51,5.09,2.52,10.44,2.97,16.06,2.95,29.9-.14,59.79-.07,89.69-.07,13.33,0,22.9,10.46,21.32,23.26-1.22,9.86-9.86,17.8-19.84,17.86-18.97.11-37.94.18-56.91-.01-15.6-.16-25.35-16.07-18.48-29.72.56-1.11,1.15-1.69,2.51-1.64,2.63.11,5.27,0,8.12-.03ZM130.8,26.43c.4.37,1.15.49,1.74.5,2.93.05,5.87.02,8.8.01,6.11-.01,11.35,2.14,15.69,6.43,3.51,3.46,6.96,6.98,10.48,10.43.45.44,1.16.6,1.75.89.23-.61.66-1.21.66-1.82.04-13.15.05-26.29.01-39.44,0-.61-.44-1.22-.68-1.83-.6.28-1.32.43-1.77.86-3.48,3.41-6.93,6.85-10.35,10.32-4.4,4.46-9.74,6.58-15.97,6.58-4.46,0-8.92.02-13.38,0-1.62,0-3.24-.11-4.59-.15,2.55,2.45,5.04,4.88,7.6,7.24ZM67,50.6c1.81,0,3.72,0,5.39,0,0-7.15.01-14.25.02-21.31-1.74-.04-3.6-.09-5.34-.13-.02,7.29-.04,14.35-.06,21.45ZM80.7,50.46c1.82.02,3.73.04,5.43.06.01-7.05.02-14.12.03-21.32-1.73.07-3.59.14-5.42.21-.02,7.02-.03,14.1-.05,21.05ZM94.69,29.27c-.02,7.19-.05,14.26-.07,20.97,1.73.08,3.63.17,5.41.26,0-7.06.02-14.09.02-20.92-1.97-.11-3.87-.22-5.36-.31ZM72.73,16.97c.03-.71.07-1.52.1-2.37.5-.14,1.06-.13,1.36-.41.38-.36.84-.99.75-1.41-.1-.5-.71-1.26-1.13-1.28-2.69-.12-5.4-.12-8.09,0-.43.02-1.11.76-1.17,1.23-.06.48.44,1.11.85,1.51.28.28.83.28,1.37.44-.09.78-.18,1.48-.27,2.26,2.25,0,4.22.01,6.23.02ZM100.16,17.13c.06-.88.12-1.73.18-2.58.16.09.32.19.48.28.56-.67,1.24-1.28,1.6-2.05.1-.21-.79-1.24-1.26-1.27-2.63-.14-5.26-.14-7.89-.03-.45.02-1.09.7-1.24,1.2-.12.4.34,1.41.59,1.43,2.04.15,1.46,1.71,1.62,2.9,2.05.05,3.96.09,5.92.13ZM86.98,14.86c.59-.65,1.33-1.23,1.68-1.99.11-.23-.85-1.36-1.36-1.38-2.57-.14-5.16-.13-7.74,0-.48.02-1.17.8-1.28,1.33-.09.41.51,1.05.94,1.45.25.23.75.2,1.17.3.04.91.08,1.77.09,2.14,2.11.16,4.01.31,5.97.46.04-.95.06-1.71.09-2.46.15.05.29.1.44.14ZM80.58,63.08c.36,1.76,1.39,2.7,3,2.64,1.51-.06,2.5-1.06,2.75-2.65-1.91,0-3.85.01-5.76.02ZM66.86,62.81c.24,1.86,1.25,2.86,2.85,2.89,1.55.03,2.58-.93,2.95-2.82-2.02-.02-3.91-.05-5.81-.07ZM94.28,62.99c.4,1.82,1.47,2.78,3.04,2.72,1.58-.06,2.46-.95,2.73-2.62-1.91-.03-3.84-.07-5.77-.1Z"/></svg>