<?xml version="1.0" encoding="UTF-8"?><svg id="c" xmlns="http://www.w3.org/2000/svg" viewBox="0 0 212.98 68.14"><path id="d" d="M210.42,49.46c.14,4.22-1.67,7.25-5.67,8.68-2.18.78-4.57,1.32-6.87,1.33-29.28.09-58.56.06-87.84.06-.4,0-.81-.04-1.38-.07v-3.31c.97,0,1.85,0,2.72,0,28.59,0,57.18.02,85.76-.05,2.09,0,4.27-.46,6.25-1.16,2.52-.9,3.7-3.1,3.51-5.54-.2-2.57-1.81-4.01-4.09-4.66-1.51-.43-3.13-.64-4.7-.64-46.65-.03-93.31-.01-139.96,0-.96,0-1.92,0-3.03,0v-3.28h40.44c0-.07,0-.14,0-.21-.88,0-1.76,0-2.63,0-2.8-.01-2.87-.1-2.34-3.09h7.33v3.17c1.41,0,2.84,0,4.27,0,32.12-.01,64.24-.04,96.35,0,1.9,0,3.87.35,5.7.91,4.02,1.23,6.06,3.98,6.19,7.87ZM108.02,46.21c0-.52-.13-1.03-.19-1.52h-7.58v10.15h-2.22v-10.19h-7.71c0,6.02-.04,11.81,0,17.59.05,6.19-1.04,5.39,5.75,5.46,1.41.02,2.02-.64,2.01-2-.02-1.77,0-3.54,0-5.35h2.19c0,.77,0,1.45,0,2.13.07,5.87-.84,5.13,5.37,5.24,1.84.03,2.42-.71,2.4-2.46-.06-6.35-.01-12.7-.02-19.05ZM87.7,44.65h-7.7c0,7.23,0,14.27,0,21.3,0,2.07,1.61,1.93,2.82,1.68,1.69-.35,4.36,1.52,4.89-1.7.29-1.81.05-3.7.05-5.59.8-.07,1.45-.13,2.18-.19v-5.09c-.76-.06-1.42-.11-2.25-.18v-10.22ZM58.6,52.84c-1.13.01-2.26.49-3.39.75,1.13-.37,2.25-.94,3.4-1.05,1.81-.18,3.65-.05,5.48-.05.1-.22.2-.44.3-.66-.72-.72-1.33-1.79-2.2-2.09-1.66-.58-3.48-1-5.23-1.01-12.46-.08-24.92-.02-37.38-.03-6.17,0-10.01-3.14-10.87-9.16-.32-2.28-.24-4.72.18-6.99,1.01-5.38,4.83-8.44,10.28-8.3,27.6.68,55.21,1.27,82.8,2.25,7.29.26,14.55,1.66,21.78,2.8,3.81.6,6.6,2.65,7.27,6.88.24,1.5.74,3.44,2.73,3.42,2.02-.03,2.31-2.06,2.58-3.52,1.79-9.6,1.78-19.23.04-28.84-.28-1.54-.53-3.67-2.65-3.69-2.21-.02-2.55,2.1-2.84,3.77-.48,2.78-2.13,4.42-4.65,5.32-1.43.51-2.88,1.12-4.36,1.28-10.3,1.14-20.6,2.73-30.94,3.13-24.55.94-49.12,1.31-73.68,1.86-6.55.15-11.36,3.48-13.41,9.71-1.7,5.2-1.71,10.49-.13,15.71,1.94,6.4,6.76,9.84,13.46,9.84,11.49,0,22.98.01,34.47-.02,1,0,2.01-.32,3.01-.5-.83,1.31-2.07,2.52-2.42,3.95-1.08,4.46,1.59,7.57,6.5,7.65,6.57.11,13.15.03,19.73.01.32,0,.64-.15.93-.22v-3.15c-.86,0-1.61,0-2.35,0-5.68,0-11.35.01-17.03-.02-.96,0-2.09.07-2.83-.39-.82-.51-1.76-1.57-1.78-2.41-.02-.83.89-1.94,1.69-2.46.73-.47,1.86-.41,2.81-.42,5.75-.03,11.49-.02,17.24-.02.74,0,1.47,0,2.26,0v-3.22c-.49-.06-.89-.14-1.28-.14-6.51,0-13.01-.03-19.52.04ZM111.17,52.05c10.3,0,20.6.04,30.9-.03,2.73-.02,5.07.23,5.35,3.58h2.21c.29-4.16-1.41-6.02-5.31-6.02-11.13,0-22.26,0-33.39,0h-2.37c.05.96.09,1.67.13,2.47h2.49ZM18.79,48.03h2.76v-23.26h-2.76v23.26ZM32.13,38.16v8.29c3.94.25,5.94-.92,5.99-3.39.08-3.88-1.25-4.99-5.99-4.9ZM46.28,25.22v14.78h2.71v-14.78h-2.71ZM51.21,40.72h-9.38v3.22h9.38v-3.22ZM82.49,40.6c.9,0,1.8,0,2.7,0q2.73-.01,2.42-3.05h-7.41c-.41,3.01-.38,3.04,2.29,3.05ZM102.94,40.6c.83,0,1.65,0,2.48,0,2.76-.01,2.91-.2,2.31-3.09h-7.24q-.42,3.09,2.45,3.09ZM79.87,33.26c1.2.1,2.18.19,2.97.25.38.79.67,1.41.97,2.02.37-.62.74-1.25,1.2-2.02.74-.07,1.7-.17,3.02-.3-1.84-1.23-6.7-1.17-8.15.04ZM97.92,32.49c-2.5-.24-4.99-.29-7.48.02l-.03.75c.96.09,1.92.19,2.93.29.15.71.29,1.35.43,1.99l.52.16c.31-.73.62-1.46.93-2.2.91-.06,1.82-.13,2.72-.19l-.03-.82ZM100.11,33.23c1.22.12,2.18.22,3.18.31.16.71.3,1.35.45,1.99.17.05.33.1.5.16.32-.73.65-1.47.97-2.21.9-.06,1.8-.12,3.07-.21-1.72-1.25-6.61-1.23-8.16-.05ZM38.83,40.11v4.55c.83-.04,1.52-.07,2.16-.1.68-4.2.49-4.59-2.16-4.45ZM54.26,44.53v-4.45h-2.23v4.45h2.23ZM31.38,38.77c-.02-.3-.4-.57-.62-.86-.27.23-.76.46-.77.7-.06,2.46-.06,4.93,0,7.4,0,.26.48.51.73.77.23-.27.64-.54.66-.82.08-1.16.03-2.33.03-3.49,0-1.23.04-2.47-.03-3.7ZM49.05,47.84v-3.13h-2.73c-.48,3.61-.22,3.91,2.73,3.13ZM90.52,37.15h7.4c-1.22-1.77-6.42-1.71-7.4,0ZM80.3,37.19h7.44c-1.54-1.86-6.7-1.72-7.44,0ZM100.39,37.13h7.44c-1.21-1.71-6.22-1.68-7.44,0Z"/></svg>