<?xml version="1.0" encoding="UTF-8"?><svg id="d" xmlns="http://www.w3.org/2000/svg" viewBox="0 0 216 216"><path id="e" d="M212,108c0-16.97-27.62-31.46-66.55-37.23-9.57-9.63-22.83-15.61-37.45-15.61s-27.88,5.97-37.45,15.61C31.62,76.54,4,91.03,4,108c0,10.74,11.07,20.5,29.09,27.67-.03.36-.04.73-.04,1.09,0,8.18,5.46,14.82,12.2,14.82,5.01,0,9.32-3.67,11.2-8.92,4.5.98,9.21,1.84,14.1,2.57,9.57,9.63,22.83,15.61,37.45,15.61s27.88-5.97,37.45-15.61c4.89-.73,9.6-1.59,14.1-2.57,1.88,5.25,6.18,8.92,11.2,8.92,6.74,0,12.2-6.64,12.2-14.82,0-.37-.01-.73-.04-1.09,18.02-7.17,29.09-16.92,29.09-27.67ZM60.53,131.16c-1.47-.31-2.92-.63-4.34-.97-6.25-1.49-12.08-3.26-17.39-5.29-.2-.08-.4-.15-.59-.23-7.75-3.02-13.93-6.52-17.89-10.11-2.71-2.46-4.2-4.79-4.2-6.56s1.49-4.1,4.2-6.56c4.06-3.68,10.46-7.26,18.49-10.34,6.52-2.49,13.83-4.6,21.73-6.26-3.43,7-5.36,14.86-5.36,23.16s1.92,16.16,5.36,23.16ZM136.85,134.17c-7.13,7.86-17.42,12.8-28.85,12.8s-21.71-4.94-28.85-12.8c-6.29-6.92-10.12-16.11-10.12-26.17s3.83-19.25,10.12-26.17c7.13-7.86,17.42-12.8,28.85-12.8s21.71,4.94,28.85,12.8c6.29,6.92,10.12,16.11,10.12,26.17s-3.83,19.25-10.12,26.17ZM195.69,114.56c-3.96,3.59-10.14,7.09-17.89,10.11-.2.08-.4.16-.59.23-5.31,2.03-11.14,3.8-17.39,5.29h0c-1.42.34-2.86.66-4.33.97,3.43-7,5.36-14.86,5.36-23.16s-1.92-16.16-5.36-23.16c7.9,1.66,15.21,3.76,21.73,6.26,8.03,3.08,14.43,6.66,18.49,10.34,2.71,2.46,4.2,4.79,4.2,6.56s-1.49,4.1-4.2,6.56Z"/></svg>