<?xml version="1.0" encoding="UTF-8"?><svg id="grUtility" xmlns="http://www.w3.org/2000/svg" viewBox="0 0 256 256"><path id="ahp-icon-analyse01" d="M128,184.57c-31.24,0-56.57-25.33-56.57-56.57s25.33-56.57,56.57-56.57,56.57,25.33,56.57,56.57-25.33,56.57-56.57,56.57ZM237.78,128c0-5.23-4.24-9.47-9.47-9.47s-9.47,4.24-9.47,9.47c0,42.91-29.94,78.88-70.01,88.34-4.17-7.23-11.89-12.16-20.84-12.16-13.33,0-24.14,10.81-24.14,24.14s10.81,24.14,24.14,24.14c10.87,0,19.95-7.23,22.97-17.1,49.54-10.59,86.81-54.69,86.81-107.35ZM124.98,51.82c13.33,0,24.14-10.81,24.14-24.14s-10.81-24.14-24.14-24.14c-11.14,0-20.43,7.59-23.21,17.86C53.87,33.19,18.22,76.5,18.22,128c0,5.23,4.24,9.47,9.47,9.47s9.47-4.24,9.47-9.47c0-41.96,28.63-77.26,67.36-87.65,4.26,6.86,11.8,11.48,20.47,11.48Z"/></svg>