<?xml version="1.0" encoding="UTF-8"?><svg id="grCog" xmlns="http://www.w3.org/2000/svg" viewBox="0 0 256 256"><path id="ahp-icon-cog01" d="M225.12,141.17v-26.35c0-1.34.71-2.57,1.87-3.24l22.46-12.97c.9-.52,1.35-1.58,1.09-2.58-2.96-11.4-7.46-22.18-13.28-32.1-.52-.89-1.59-1.32-2.59-1.05l-25.07,6.72c-1.29.35-2.67-.02-3.61-.97l-18.63-18.63c-.94-.94-1.31-2.32-.97-3.61l6.72-25.07c.27-1-.16-2.07-1.05-2.59-9.91-5.82-20.7-10.32-32.1-13.28-1-.26-2.06.19-2.58,1.09l-12.97,22.46c-.67,1.16-1.9,1.87-3.24,1.87h-26.35c-1.34,0-2.57-.71-3.24-1.87l-12.97-22.46c-.52-.9-1.58-1.35-2.58-1.09-11.4,2.96-22.18,7.46-32.1,13.28-.89.52-1.32,1.59-1.05,2.59l6.72,25.07c.35,1.29-.02,2.67-.97,3.61l-18.63,18.63c-.94.94-2.32,1.31-3.61.97l-25.07-6.72c-1-.27-2.07.16-2.59,1.05-5.82,9.91-10.32,20.7-13.28,32.1-.26,1,.19,2.06,1.09,2.58l22.46,12.97c1.16.67,1.87,1.9,1.87,3.24v26.35c0,1.34-.71,2.57-1.87,3.24l-22.46,12.97c-.9.52-1.35,1.58-1.09,2.58,2.96,11.4,7.46,22.18,13.28,32.1.52.89,1.59,1.32,2.59,1.05l25.07-6.72c1.29-.35,2.67.02,3.61.97l18.63,18.63c.94.94,1.31,2.32.97,3.61l-6.72,25.07c-.27,1,.16,2.07,1.05,2.59,9.91,5.82,20.7,10.32,32.1,13.28,1,.26,2.06-.19,2.58-1.09l12.97-22.46c.67-1.16,1.9-1.87,3.24-1.87h26.35c1.34,0,2.57.71,3.24,1.87l12.97,22.46c.52.9,1.58,1.35,2.58,1.09,11.4-2.96,22.18-7.46,32.1-13.28.89-.52,1.32-1.59,1.05-2.59l-6.72-25.07c-.35-1.29.02-2.67.97-3.61l18.63-18.63c.94-.94,2.32-1.31,3.61-.97l25.07,6.72c1,.27,2.07-.16,2.59-1.05,5.82-9.91,10.32-20.7,13.28-32.1.26-1-.19-2.06-1.09-2.58l-22.46-12.97c-1.16-.67-1.87-1.9-1.87-3.24ZM128,164.05c-19.91,0-36.05-16.14-36.05-36.05s16.14-36.05,36.05-36.05,36.05,16.14,36.05,36.05-16.14,36.05-36.05,36.05Z"/></svg>