<?xml version="1.0" encoding="UTF-8"?><svg id="grArrowsExpand" xmlns="http://www.w3.org/2000/svg" viewBox="0 0 256 256"><path id="ahp-icon-expandb" d="M168.76,229.8c-3.93,3.93-1.15,10.65,4.41,10.65h61.92c3.45,0,6.24-2.79,6.24-6.24v-61.92c0-5.56-6.72-8.34-10.65-4.41l-21.54,21.54-51.03-51.03-18.84,18.84,51.03,51.03-21.54,21.54h0ZM87.24,26.2c3.93-3.93,1.15-10.65-4.41-10.65H20.91c-3.45,0-6.24,2.79-6.24,6.24v61.92c0,5.56,6.72,8.34,10.65,4.41l21.54-21.54,51.03,51.03,18.84-18.84-51.03-51.03,21.54-21.54h0ZM26.2,168.76c-3.93-3.93-10.65-1.15-10.65,4.41v61.92c0,3.45,2.79,6.24,6.24,6.24h61.92c5.56,0,8.34-6.72,4.41-10.65l-21.54-21.54,51.03-51.03-18.84-18.84-51.03,51.03-21.54-21.54h0ZM229.8,87.24c3.93,3.93,10.65,1.15,10.65-4.41V20.91c0-3.45-2.79-6.24-6.24-6.24h-61.92c-5.56,0-8.34,6.72-4.41,10.65l21.54,21.54-51.03,51.03,18.84,18.84,51.03-51.03,21.54,21.54h0Z"/></svg>