<?xml version="1.0" encoding="UTF-8"?><svg id="grArrowsExpand" xmlns="http://www.w3.org/2000/svg" viewBox="0 0 256 256"><path id="ahp-icon-collapseb" d="M58.11,77.83L7.08,26.79,25.92,7.95l51.03,51.03,21.54-21.54c3.93-3.93,10.65-1.15,10.65,4.41v61.92c0,3.45-2.79,6.24-6.24,6.24h-61.92c-5.56,0-8.34-6.72-4.41-10.65l21.54-21.54ZM103.78,146.86h-61.92c-5.56,0-8.34,6.72-4.41,10.65l21.54,21.54L7.95,230.08l18.84,18.84,51.03-51.03,21.54,21.54c3.93,3.93,10.65,1.15,10.65-4.41v-61.92c0-3.45-2.79-6.24-6.24-6.24ZM152.22,109.14h61.92c5.56,0,8.34-6.72,4.41-10.65l-21.54-21.54,51.03-51.03-18.84-18.84-51.03,51.03-21.54-21.54c-3.93-3.93-10.65-1.15-10.65,4.41v61.92c0,3.45,2.79,6.24,6.24,6.24ZM197.89,178.17l21.54-21.54c3.93-3.93,1.15-10.65-4.41-10.65h-61.92c-3.45,0-6.24,2.79-6.24,6.24v61.92c0,5.56,6.72,8.34,10.65,4.41l21.54-21.54,51.03,51.03,18.84-18.84-51.03-51.03Z"/></svg>