<?xml version="1.0" encoding="UTF-8"?><svg id="grQR" xmlns="http://www.w3.org/2000/svg" viewBox="0 0 256 256"><path id="ahp-icon-qr01" d="M5.77,116.08h109.05c.7,0,1.27-.57,1.27-1.27V5.77c0-.7-.57-1.27-1.27-1.27H5.77c-.7,0-1.27.57-1.27,1.27v109.05c0,.7.57,1.27,1.27,1.27ZM85.75,36.11v48.37c0,.7-.57,1.27-1.27,1.27h-48.37c-.7,0-1.27-.57-1.27-1.27v-48.37c0-.7.57-1.27,1.27-1.27h48.37c.7,0,1.27.57,1.27,1.27ZM5.77,251.5h109.05c.7,0,1.27-.57,1.27-1.27v-109.05c0-.7-.57-1.27-1.27-1.27H5.77c-.7,0-1.27.57-1.27,1.27v109.05c0,.7.57,1.27,1.27,1.27ZM85.75,171.52v48.34c0,.7-.57,1.27-1.27,1.27h-48.37c-.7,0-1.27-.57-1.27-1.27v-48.34c0-.7.57-1.27,1.27-1.27h48.37c.7,0,1.27.57,1.27,1.27ZM139.92,5.77v109.05c0,.7.57,1.27,1.27,1.27h109.05c.7,0,1.27-.57,1.27-1.27V5.77c0-.7-.57-1.27-1.27-1.27h-109.05c-.7,0-1.27.57-1.27,1.27ZM170.25,84.48v-48.37c0-.7.57-1.27,1.27-1.27h48.37c.7,0,1.27.57,1.27,1.27v48.37c0,.7-.57,1.27-1.27,1.27h-48.37c-.7,0-1.27-.57-1.27-1.27ZM223.16,139.92h-27.84c-.7,0-1.27.57-1.27,1.27v24.54c0,.7-.57,1.27-1.27,1.27h-21.27c-.7,0-1.27-.57-1.27-1.27v-24.54c0-.7-.57-1.27-1.27-1.27h-27.81c-.7,0-1.27.57-1.27,1.27v27.81c0,.7.57,1.27,1.27,1.27h24.54c.7,0,1.27.57,1.27,1.27v21.27c0,.7-.57,1.27-1.27,1.27h-24.54c-.7,0-1.27.57-1.27,1.27v27.81c0,.7.57,1.27,1.27,1.27h24.54c.7,0,1.27.57,1.27,1.27v24.57c0,.7.57,1.27,1.27,1.27h27.81c.7,0,1.27-.57,1.27-1.27v-24.57c0-.7.57-1.27,1.27-1.27h21.3c.7,0,1.27.57,1.27,1.27v24.57c0,.7.57,1.27,1.27,1.27h27.81c.7,0,1.27-.57,1.27-1.27v-27.84c0-.7-.57-1.27-1.27-1.27h-24.54c-.7,0-1.27-.57-1.27-1.27v-21.27c0-.7.57-1.27,1.27-1.27h24.54c.7,0,1.27-.57,1.27-1.27v-27.81c0-.7-.57-1.27-1.27-1.27h-24.54c-.7,0-1.27-.57-1.27-1.27v-24.54c0-.7-.57-1.27-1.27-1.27ZM221.16,171.52v21.27c0,.7-.57,1.27-1.27,1.27h-21.3c-.7,0-1.27-.57-1.27-1.27v-21.27c0-.7.57-1.27,1.27-1.27h21.3c.7,0,1.27.57,1.27,1.27ZM194.06,198.59v21.27c0,.7-.57,1.27-1.27,1.27h-21.27c-.7,0-1.27-.57-1.27-1.27v-21.27c0-.7.57-1.27,1.27-1.27h21.27c.7,0,1.27.57,1.27,1.27Z"/></svg>