<?xml version="1.0" encoding="UTF-8"?><svg id="grQR" xmlns="http://www.w3.org/2000/svg" viewBox="0 0 256 256"><path id="ahp-icon-qr02" d="M31.62,226.04h45.73c.9,0,1.64.73,1.64,1.64v21.23c0,.9-.73,1.64-1.64,1.64H7.1c-.9,0-1.64-.73-1.64-1.64v-70.23c0-.9.73-1.64,1.64-1.64h21.26c.9,0,1.64.73,1.64,1.64v45.73c0,.9.73,1.64,1.64,1.64ZM31.62,29.99h45.73c.9,0,1.64-.73,1.64-1.64V7.1c0-.9-.73-1.64-1.64-1.64H7.1c-.9,0-1.64.73-1.64,1.64v70.26c0,.9.73,1.64,1.64,1.64h21.26c.9,0,1.64-.73,1.64-1.64V31.62c0-.9.73-1.64,1.64-1.64ZM177.01,7.1v21.26c0,.9.73,1.64,1.64,1.64h45.76c.9,0,1.64.73,1.64,1.64v45.73c0,.9.73,1.64,1.64,1.64h21.23c.9,0,1.64-.73,1.64-1.64V7.1c0-.9-.73-1.64-1.64-1.64h-70.26c-.9,0-1.64.73-1.64,1.64ZM212.16,115.77h-70.26c-.9,0-1.64-.73-1.64-1.64V43.87c0-.9.73-1.64,1.64-1.64h70.26c.9,0,1.64.73,1.64,1.64v70.26c0,.9-.73,1.64-1.64,1.64ZM187.66,66.74h-21.26c-.9,0-1.64.73-1.64,1.64v21.23c0,.9.73,1.64,1.64,1.64h21.26c.9,0,1.64-.73,1.64-1.64v-21.23c0-.9-.73-1.64-1.64-1.64ZM43.87,42.24h70.26c.9,0,1.64.73,1.64,1.64v70.26c0,.9-.73,1.64-1.64,1.64H43.87c-.9,0-1.64-.73-1.64-1.64V43.87c0-.9.73-1.64,1.64-1.64ZM68.37,91.24h21.23c.9,0,1.64-.73,1.64-1.64v-21.23c0-.9-.73-1.64-1.64-1.64h-21.23c-.9,0-1.64.73-1.64,1.64v21.23c0,.9.73,1.64,1.64,1.64ZM43.87,140.26h70.26c.9,0,1.64.73,1.64,1.64v70.26c0,.9-.73,1.64-1.64,1.64H43.87c-.9,0-1.64-.73-1.64-1.64v-70.26c0-.9.73-1.64,1.64-1.64ZM68.37,189.29h21.23c.9,0,1.64-.73,1.64-1.64v-21.26c0-.9-.73-1.64-1.64-1.64h-21.23c-.9,0-1.64.73-1.64,1.64v21.26c0,.9.73,1.64,1.64,1.64ZM140.26,141.9v21.23c0,.9.73,1.64,1.64,1.64h21.23c.9,0,1.64-.73,1.64-1.64v-21.23c0-.9-.73-1.64-1.64-1.64h-21.23c-.9,0-1.64.73-1.64,1.64ZM187.66,164.76h-21.26c-.9,0-1.64.73-1.64,1.64v21.26c0,.9.73,1.64,1.64,1.64h21.26c.9,0,1.64-.73,1.64-1.64v-21.26c0-.9-.73-1.64-1.64-1.64ZM212.16,140.26h-21.23c-.9,0-1.64.73-1.64,1.64v21.23c0,.9.73,1.64,1.64,1.64h21.23c.9,0,1.64-.73,1.64-1.64v-21.23c0-.9-.73-1.64-1.64-1.64ZM213.79,212.16v-21.23c0-.9-.73-1.64-1.64-1.64h-21.23c-.9,0-1.64.73-1.64,1.64v21.23c0,.9.73,1.64,1.64,1.64h21.23c.9,0,1.64-.73,1.64-1.64ZM224.41,226.04h-45.76c-.9,0-1.64.73-1.64,1.64v21.23c0,.9.73,1.64,1.64,1.64h70.26c.9,0,1.64-.73,1.64-1.64v-70.23c0-.9-.73-1.64-1.64-1.64h-21.23c-.9,0-1.64.73-1.64,1.64v45.73c0,.9-.73,1.64-1.64,1.64ZM154.15,201.54h8.98c.9,0,1.64-.73,1.64-1.64v-8.98c0-.9-.73-1.64-1.64-1.64h-8.98c-.9,0-1.64.73-1.64,1.64v8.98c0,.9.73,1.64,1.64,1.64Z"/></svg>