<?xml version="1.0" encoding="UTF-8"?><svg id="b" xmlns="http://www.w3.org/2000/svg" viewBox="0 0 216 216"><path d="M169.79,210.63c-11.46-5.54-26.46-9.54-43.38-11.25-6.12-.62-10.81-5.73-10.79-11.88l.24-77.78c.01-4.33,1.57-8.51,4.4-11.79L201,4.27h-118.29l-5.61,19.71,8.41-4.14,4.29-2.11c-.33,1.12-9.73,34.24-10.42,36.62,0,0,3.32-21.47,4.4-28.42l-10.02,6.58-5.65,3.71c.49-3.15,3.23-20.89,4.94-31.94H15l80.74,93.65c2.83,3.28,4.39,7.46,4.4,11.79l.24,77.78c.02,6.15-4.66,11.27-10.79,11.88-16.92,1.7-31.92,5.7-43.38,11.25-.55.27-.36,1.1.26,1.1h123.06c.61,0,.81-.83.26-1.1Z"/></svg>