<?xml version="1.0" encoding="UTF-8"?><svg id="grSpringboot" xmlns="http://www.w3.org/2000/svg" viewBox="0 0 256 256"><path id="ahp-icon-springboot" d="M227.63,20.91c-.41-.9-.95-1.08-1.33,0-2.88,8.07-6.87,15.4-11.62,22.11C192.39,19.89,161.13,5.46,126.47,5.46,58.79,5.46,3.93,60.32,3.93,128c0,36.5,15.98,69.26,41.3,91.7-.33-1.12-.56-2.28-.56-3.5,0-6.87,5.57-12.44,12.44-12.44s12.44,5.57,12.44,12.44-5.57,12.44-12.44,12.44c-.2,0-.39-.05-.6-.06,19.84,13.82,43.94,21.95,69.95,21.95,54.29,0,100.3-35.31,116.39-84.21,20.7-42.28,2.49-107.18-15.23-145.42ZM227.13,34.33c.25.38.57.79,1.07,1.27,3.33,3.2,5.16,13.27,6.58,17.49,11.4,33.89,23.46,82.33.75,112.81-18.91,25.39-53.6,35.89-83.65,39.61-12.01,1.49-27.64,3.52-42.37,3.29,19.25-6.15,38.44-13.61,54.92-24.25,24.33-15.73,37.91-47.57,49.04-73.45,1-1.98.05-10.32-.96-10.6-.13-.09-.26-.03-.37.25-14.04,27.79-35.83,52.88-64.4,65.96-16.61,7.6-34.59,12.52-52.28,16.87-7.59,1.86-23.08,8.62-30.7,6.59-7.3-1.95-13.94-13.47-16.58-20.43-13.42-35.29,14.96-55.46,41.46-63.78,25.23-7.92,53.27-5.28,77.75-14.96,14.99-5.93,29.93-16.4,41.51-27.44,8.68-8.27,9.56-18.5,16.72-26.86.84-.98,1.24-1.72,1.5-2.35Z"/></svg>