<?xml version="1.0" encoding="UTF-8"?><svg id="icones" xmlns="http://www.w3.org/2000/svg" viewBox="0 0 256 256"><path id="maisonA" d="M40.91,251.22c-7.9,0-14.3-6.4-14.3-14.3V106.42c0-3.79,1.51-7.43,4.19-10.11L118.14,8.97c5.58-5.58,14.64-5.58,20.22,0l86.84,86.84c2.68,2.68,4.19,6.32,4.19,10.11v102.34c0,7.9-6.4,14.3-14.3,14.3h-106.41c-7.9,0-14.3-6.4-14.3-14.3s6.4-14.3,14.3-14.3h92.11v-82.11l-72.54-72.54L55.21,112.34v124.58c0,7.9-6.4,14.3-14.3,14.3ZM148.23,99.75c0-11.16-9.08-20.23-20.23-20.23s-20.23,9.08-20.23,20.23,9.08,20.23,20.23,20.23,20.23-9.08,20.23-20.23ZM137.77,99.75c0,5.39-4.38,9.77-9.77,9.77s-9.77-4.38-9.77-9.77,4.38-9.77,9.77-9.77,9.77,4.38,9.77,9.77Z"/></svg>