<?xml version="1.0" encoding="UTF-8"?><svg id="SVG" xmlns="http://www.w3.org/2000/svg" viewBox="0 0 256 256"><path id="open_x5F_pageA" d="M250.16,102.14c0,26.86-.13,53.72.08,80.58.07,8.56-2.54,14.94-9.46,20.65-16.36,13.48-31.66,28.25-48.16,41.54-4.27,3.44-11.34,4.6-17.17,4.73-23.12.49-46.27.17-69.4.13-29.78-.06-59.55-.14-89.33-.21-7.58-.02-10.66-3.27-10.66-11.58,0-47.87.73-95.74-.27-143.59-.35-16.77,4.47-29.56,15.86-41.36,12.32-12.75,23.17-26.92,35.31-39.85,3.23-3.44,8.84-6.53,13.39-6.58,54.24-.53,108.49-.56,162.74-.45,15.51.03,16.91,1.78,16.95,17.01.05,26.33.01,52.65.01,78.98.04,0,.07,0,.11,0ZM146.7,24.61c-24.47,0-48.93-.03-73.4.01-11.23.02-13.03,1.8-13.05,12.84-.04,33.51-.05,67.02-.06,100.54,0,10.11-.24,20.23.26,30.31.13,2.66,2.07,6.22,4.25,7.43,1.46.8,5.41-1.24,7.22-3.04,25.23-25.08,50.33-50.31,75.3-75.65,1.97-1.99,2.8-5.1,4.16-7.69-2.81-1.19-5.58-3.31-8.43-3.42-10.62-.42-21.27-.03-31.9-.27-3.64-.08-8.27.04-10.62-2.02-2.68-2.35-4.1-6.95-4.46-10.73-.13-1.37,4.35-4.55,6.76-4.58,26.58-.36,53.17-.3,79.76-.23,4.77.01,7.19,2.62,7.17,7.59-.13,25-.16,49.99-.23,74.99-.02,6.29-3.67,9.47-9.44,9.49-6.26.02-8.62-4.02-8.51-10.08.19-10.63.44-21.29-.08-31.9-.23-4.7-2.31-9.32-3.55-13.97-3.77,2.63-8.01,4.79-11.24,7.98-24.35,24.08-48.54,48.34-72.67,72.64-1.68,1.69-4.02,5.13-3.39,6.22,1.21,2.08,4.17,3.65,6.7,4.34,2.73.74,5.81.25,8.73.25,41.73-.05,83.46-.15,125.2-.15,10.55,0,11.96-1.17,11.96-11.83,0-48.67-.02-97.34-.1-146.01-.02-11.11-1.99-13.02-12.95-13.03-24.47-.02-48.94,0-73.4,0Z"/></svg>