<?xml version="1.0" encoding="UTF-8"?><svg id="SVG" xmlns="http://www.w3.org/2000/svg" viewBox="0 0 256 256"><path id="teteA" d="M165.75,149.45c0-29.06,37.26-52.71,83.75-53.58-16.47-40.52-63.2-69.75-118.31-69.75C62.32,26.12,6.5,71.73,6.5,128s55.82,101.88,124.68,101.88c34.89,0,66.42-11.73,89.05-30.61-31.92-7.88-54.49-27.21-54.49-49.83ZM103.9,158.38c-18.12,0-32.81-14.69-32.81-32.81s14.69-32.81,32.81-32.81,32.81,14.69,32.81,32.81-14.69,32.81-32.81,32.81ZM116.49,109.8c0,6.42-5.21,11.63-11.63,11.63s-11.63-5.21-11.63-11.63,5.21-11.63,11.63-11.63,11.63,5.21,11.63,11.63Z"/></svg>